<svg version="1.1" id="Camada_1" xmlns="http://www.w3.org/2000/svg" x="0" y="0" viewBox="0 0 1397 509" xml:space="preserve"><style>.st0{opacity:.5}.st1{fill:#f4c17f}.st2{fill:#fff}.st3{fill:none;stroke:#fff;stroke-width:2;stroke-miterlimit:10}</style><g class="st0"><path class="st1" d="M141.7 496c-6.2-19.6-13.6-39-22-58.3l-.3-.4c-6.2-.8-12.4-1.5-18.6-2.3l-1.1.5c13.8 20.5 26.7 41.6 38.6 63.1l3.4-2.6zm-18.2-61.2c11.4-.1 22.7-.1 34.1-.2l.9.3c-7-22.2-13-44.5-18.1-67h.8c-5.3 22.5-11.5 44.8-18.6 66.9m21.6 64.2c5.6-21.2 12.3-42.3 20.3-63.3l1-.2c6.5-1.2 13.1-2.1 19.7-2.8l1.8-.8c-14 22.7-27 45.8-38.9 69.5"/><path class="st2" d="M138.2 501.9c-9.5-18.7-19.5-37.2-30.2-55.2-3-5.1-6.1-10.2-9.2-15.3-.8-1.4-3-.1-2.2 1.3 11 17.9 21.5 36.1 31.3 54.7 2.8 5.2 5.5 10.5 8.1 15.8.8 1.4 2.9.1 2.2-1.3zm1-138.3c-4.6 18.7-9.8 37.2-15.6 55.5-1.7 5.2-3.4 10.4-5.2 15.6-.5 1.5 1.9 2.2 2.4.7 6.2-18.2 11.9-36.7 16.8-55.4 1.4-5.2 2.7-10.5 4-15.8.4-1.5-2-2.2-2.4-.6z"/><path class="st2" d="M142.2 499.5c-4.7-16.9-10-33.7-16-50.2-1.7-4.8-3.5-9.6-5.4-14.3-.6-1.5-3-.8-2.4.7 6.4 16.5 12.1 33.1 17.2 50.1 1.4 4.8 2.8 9.6 4.1 14.4.5 1.6 2.9.9 2.5-.7zM98.8 432c5.4-9.3 10.7-18.6 16.1-27.9 5.2-9 10.2-18 15.6-26.8 2.9-4.7 6-9.2 9.8-13.2 1.1-1.2-.7-2.9-1.8-1.8-6.8 7.2-11.5 15.9-16.4 24.4-5.4 9.4-10.8 18.8-16.2 28.1-3.1 5.3-6.1 10.6-9.2 15.9-.8 1.4 1.3 2.7 2.1 1.3zm48.4 71c9-18.9 18.7-37.5 29-55.7 2.9-5.2 5.9-10.4 8.9-15.5.8-1.4-1.3-2.6-2.2-1.3-10.6 18.1-20.7 36.5-30.1 55.2-2.7 5.3-5.3 10.7-7.9 16-.6 1.5 1.6 2.7 2.3 1.3z"/><path class="st2" d="M138.4 364.3c5 18.6 10.7 37 17 55.1 1.8 5.2 3.6 10.3 5.5 15.5.6 1.5 3 .8 2.4-.7-6.7-18.1-12.7-36.4-18.1-54.9-1.5-5.2-3-10.4-4.4-15.7-.5-1.6-2.9-.9-2.4.7z"/><path class="st2" d="M143.5 500.2c4.2-17 9.2-33.9 14.8-50.5 1.6-4.8 3.3-9.6 5-14.4.5-1.5-1.9-2.2-2.4-.7-6 16.6-11.4 33.4-16 50.4-1.3 4.8-2.6 9.7-3.8 14.5-.4 1.6 2 2.3 2.4.7zm41.4-70.5c-5.6-9.3-11.3-18.5-16.9-27.8-5.4-8.9-10.7-18-16.4-26.8-3-4.6-6.3-9-10.1-12.9-1.1-1.1-2.9.6-1.8 1.8 7 7 11.9 15.8 17 24.2 5.5 9.1 11.1 18.2 16.6 27.3 3.1 5.2 6.3 10.3 9.4 15.5.9 1.3 3.1.1 2.2-1.3z"/><ellipse transform="matrix(.9999 -.01148 .01148 .9999 -5.767 1.659)" class="st3" cx="141.6" cy="503" rx="4.4" ry="1.8"/><path class="st2" d="M98.6 432.7c6.8 1.1 13.6 2.2 20.4 3.4 1.6.3 2.3-2.1.7-2.4-6.8-1.1-13.6-2.2-20.4-3.4-1.6-.2-2.3 2.2-.7 2.4z"/><path class="st2" d="M120.8 436.3c13.4-.3 26.9-.6 40.3-.8 1.6 0 1.6-2.5 0-2.5-13.4.3-26.9.6-40.3.8-1.6 0-1.6 2.5 0 2.5z"/><path class="st2" d="M163.4 435.9c6.3-1.2 12.6-2.1 18.9-2.8 1.6-.2 1.6-2.7 0-2.5-6.6.7-13.1 1.6-19.6 2.9-1.5.3-.9 2.7.7 2.4z"/><path class="st2" d="M191.5 494.7c-1.4-4.1-3.1-8.4-3.6-12.7-.5-4.5 2-8.4 2.8-12.7.7-4 .7-8.2-.4-12.1-1.1-4-3.1-7.7-4.6-11.6-1.6-4.2-2.8-9.1-.9-13.3.7-1.5-1.5-2.7-2.2-1.3-3.7 8.2 1.3 16.1 4.1 23.6 1.6 4.2 2.2 8.6 1.6 13.1-.3 2.2-1 4.3-1.7 6.4-.7 2-1.4 4-1.4 6.2 0 2.5.6 5.1 1.4 7.5.7 2.5 1.5 5 2.4 7.5.6 1.5 3 .9 2.5-.6zm-95.7-62.4c-2.6 2.4-3.8 6.1-2.9 9.6.9 3.6 4 6.1 6.2 8.9 5.3 6.7 2 15.8-1 22.8-2.1 4.8-4.4 9.6-6.9 14.3-.8 1.4 1.4 2.7 2.2 1.3 2.2-4.1 4.2-8.3 6.1-12.5 1.6-3.7 3.3-7.4 4.2-11.4.9-3.7 1.2-7.6 0-11.3-1.2-3.6-3.8-6-6.1-8.8-1.3-1.6-2.4-3.5-2.4-5.6 0-2.1.9-4.1 2.5-5.5 1-1.1-.7-2.8-1.9-1.8z"/><path class="st2" d="M184.3 432.2c4.2 7.2 4.6 16.3 1.3 23.9-.8 1.9-1.9 3.8-3.2 5.4-1.5 1.9-3.2 3.6-4.7 5.4-2.8 3.5-4.8 7.5-5.9 11.8-1.2 4.9-1.5 10-1.5 15 0 1.6 2.5 1.6 2.5 0-.1-9.3 1.1-18.8 7.5-26.1 3-3.4 5.9-6.7 7.7-11 1.6-3.9 2.4-8.1 2.2-12.3-.1-4.8-1.4-9.4-3.8-13.6-.7-1.1-2.9.1-2.1 1.5zM97 434.3c1.6 7.9-1.8 15.7-2.9 23.4-.6 3.8-.5 7.6.2 11.4.7 3.8 1.8 7.5 2.8 11.3 1.1 4.3 1.9 8.7 1.4 13.1-.2 1.6 2.3 1.6 2.5 0 .9-7.9-2.2-15.4-3.8-23-.9-3.9-1.2-7.9-.6-11.9s1.7-7.9 2.5-11.9c.9-4.3 1.3-8.7.4-13.1-.4-1.6-2.8-.9-2.5.7z"/></g><g class="st0"><path class="st1" d="M28.8 76.3c-3.5-11-7.6-22-12.4-32.8l-.2-.2c-3.5-.4-7-.9-10.5-1.3l-.6.3c7.8 11.6 15 23.4 21.7 35.5l2-1.5zM18.6 41.8c6.4 0 12.8-.1 19.2-.1l.5.2C34.4 29.4 31 16.8 28.1 4.1h.4C25.5 16.8 22 29.4 18 41.8M30.2 78c3.1-11.9 6.9-23.8 11.4-35.7l.6-.1c3.7-.7 7.4-1.2 11.1-1.6l1-.4C46.4 53 39.1 66.1 32.4 79.4"/><path class="st2" d="M27.3 79.3C20.5 65.8 13.1 52.6 5.1 39.6c-.8-1.4-3-.1-2.2 1.3 7.9 12.9 15.3 26.2 22.2 39.7.8 1.4 2.9.2 2.2-1.3zm-.4-77.7c-3.3 13.5-7.2 26.9-11.7 40.1-.5 1.5 1.9 2.2 2.4.7C22.1 29.1 26 15.7 29.3 2.2c.4-1.5-2-2.2-2.4-.6z"/><path class="st2" d="M29.6 78.2c-3.4-12.3-7.4-24.4-12-36.3-.6-1.5-3-.8-2.4.7 4.6 11.9 8.6 24 12 36.3.4 1.5 2.9.8 2.4-.7zM5.2 40.5c3.8-6.7 7.7-13.3 11.5-20 3.6-6.2 6.8-12.9 11.7-18.2 1.1-1.2-.7-2.9-1.8-1.8-5 5.3-8.2 12-11.8 18.2C10.9 25.6 6.9 32.4 3 39.2c-.8 1.4 1.4 2.7 2.2 1.3zm27.2 40C38.9 66.8 46 53.4 53.7 40.4c.8-1.4-1.3-2.6-2.2-1.3a531.2 531.2 0 00-21.3 40.1c-.7 1.5 1.5 2.8 2.2 1.3z"/><path class="st2" d="M26.4 2.2C30 15.7 34.3 28.9 39.1 42c.6 1.5 3 .8 2.4-.7-4.8-13.1-9-26.3-12.7-39.8-.4-1.5-2.8-.8-2.4.7z"/><path class="st2" d="M30.3 78.8c3.1-12.4 6.8-24.6 11.1-36.6.5-1.5-1.9-2.2-2.4-.7-4.3 12-8.1 24.2-11.1 36.6-.4 1.6 2 2.3 2.4.7zm23.3-40.1c-4.1-6.7-8.2-13.4-12.3-20.2-3.7-6.2-7.2-12.8-12.3-18-1.1-1.1-2.9.6-1.8 1.8 5 5.1 8.4 11.8 12.1 17.9 4 6.6 8 13.2 12 19.7 1 1.4 3.1.2 2.3-1.2z"/><ellipse transform="rotate(-.659 28.755 80.34)" class="st3" cx="28.7" cy="80.3" rx="2.5" ry="1"/><path class="st2" d="M4.4 41.2c3.8.6 7.6 1.3 11.5 1.9.7.1 1.3-.2 1.5-.9.2-.6-.2-1.4-.9-1.5-3.8-.6-7.6-1.3-11.5-1.9-.7-.1-1.3.2-1.5.9-.1.6.3 1.4.9 1.5z"/><path class="st2" d="M17 43.2c7.6-.2 15.1-.3 22.7-.5 1.6 0 1.6-2.5 0-2.5-7.6.2-15.1.3-22.7.5-1.6 0-1.6 2.5 0 2.5z"/><path class="st2" d="M41.2 43c3.5-.7 7-1.2 10.5-1.5.7-.1 1.3-.5 1.3-1.3 0-.6-.6-1.3-1.3-1.3-3.7.4-7.5.9-11.2 1.6-.7.1-1 .9-.9 1.5.2.8.9 1.1 1.6 1z"/><path class="st2" d="M57.3 75.4c-.5-1.5-1-3-1.4-4.5-.4-1.5-.8-3-.5-4.6.3-1.5 1-2.8 1.3-4.3.3-1.5.5-3 .4-4.5-.1-2.9-1.3-5.5-2.4-8.2-1.1-2.6-2.4-5.8-1.2-8.7.6-1.5-1.5-2.7-2.2-1.3-1.2 2.8-.9 5.8.1 8.7 1.1 3 2.8 5.8 3.1 9 .1 1.6 0 3.2-.4 4.7-.4 1.6-1.1 3-1.4 4.6-.4 3.2 1 6.6 2 9.6.7 1.7 3.1 1 2.6-.5zM2.6 40.1C.7 41.9.1 44.7 1.2 47c1.2 2.5 3.8 4 4.5 6.8.7 2.8-.4 5.8-1.4 8.4-1.3 3.2-2.8 6.2-4.4 9.2-.7 1.4 1.4 2.7 2.2 1.3 1.5-2.9 2.9-5.8 4.2-8.8 1.1-2.6 2.1-5.3 2.1-8.1.1-2.7-1-5-2.7-7-.9-1-1.9-2-2.3-3.2-.4-1.4.1-2.7 1.1-3.7 1-1.2-.7-2.9-1.9-1.8z"/><path class="st2" d="M52.3 40.6c3.1 5.4 2.3 12.2-1.8 16.9-2.1 2.4-4 4.7-5 7.9-1 3.1-1.2 6.4-1.1 9.7 0 1.6 2.5 1.6 2.5 0 0-3.4.2-6.8 1.4-10 1.3-3.3 4.1-5.4 5.9-8.3 3.3-5.2 3.3-12.1.3-17.4-.8-1.4-3-.2-2.2 1.2zM3.1 41.7C4.3 47.3 1 52.8 1.3 58.4c.2 5.6 3.2 10.8 2.6 16.5-.2 1.6 2.3 1.6 2.5 0C7 69 3.9 63.8 3.7 58c-.1-5.8 3-11.2 1.8-17-.3-1.6-2.7-.9-2.4.7z"/></g><g class="st0"><path class="st1" d="M1091.3 170.7c-3.8-12.2-8.3-24.3-13.4-36.3l-.2-.3c-3.8-.5-7.6-.9-11.4-1.4l-.7.3c8.4 12.8 16.3 25.9 23.6 39.3l2.1-1.6zm-11.2-38.1c7 0 13.9-.1 20.9-.1l.5.2c-4.3-13.8-8-27.7-11.1-41.8h.5c-3.2 14-7 27.9-11.4 41.7m13.3 40c3.4-13.2 7.6-26.4 12.5-39.4l.6-.1c4-.8 8-1.3 12.1-1.7l1.1-.5c-8.6 14.1-16.6 28.6-23.8 43.3"/><path class="st2" d="M1089.6 174.2c-7.4-15-15.5-29.6-24.1-43.9-.8-1.4-3-.1-2.2 1.3 8.7 14.3 16.7 28.9 24.1 43.9.7 1.4 2.9.1 2.2-1.3zm-.3-86.1c-3.6 14.9-7.8 29.7-12.7 44.3-.5 1.5 1.9 2.2 2.4.7 4.9-14.6 9.2-29.3 12.7-44.3.4-1.6-2-2.2-2.4-.7z"/><path class="st2" d="M1092.1 172.8c-3.7-13.6-8.1-27-13.1-40.2-.6-1.5-3-.8-2.4.7 5 13.2 9.4 26.6 13.1 40.2.4 1.5 2.8.9 2.4-.7zm-26.6-41.7l12.6-22.2c3.9-6.8 7.4-14.3 12.7-20.1 1.1-1.2-.7-3-1.8-1.8-5.4 5.9-9 13.3-12.9 20.1-4.3 7.5-8.5 15.1-12.8 22.6-.8 1.5 1.4 2.8 2.2 1.4zm29.6 44.2c7.1-15.1 14.9-29.9 23.2-44.4.8-1.4-1.4-2.7-2.2-1.3-8.4 14.5-16.1 29.3-23.2 44.4-.7 1.5 1.5 2.8 2.2 1.3z"/><path class="st2" d="M1088.8 88.8c3.9 14.9 8.5 29.5 13.8 44 .5 1.5 3 .9 2.4-.7-5.2-14.4-9.8-29.1-13.8-44-.4-1.5-2.8-.9-2.4.7z"/><path class="st2" d="M1092.9 173.5c3.4-13.7 7.4-27.2 12.1-40.5.5-1.5-1.9-2.2-2.4-.7-4.7 13.3-8.8 26.8-12.1 40.5-.4 1.6 2 2.2 2.4.7zm25.3-44.3c-4.4-7.4-8.9-14.9-13.3-22.3-4.1-6.8-7.8-14.1-13.3-19.8-1.1-1.2-2.9.6-1.8 1.8 5.5 5.7 9.2 13 13.2 19.8 4.4 7.3 8.7 14.6 13.1 21.9.8 1.2 2.9 0 2.1-1.4z"/><ellipse transform="rotate(-.678 1091.18 175.19) scale(.99997)" class="st3" cx="1091.2" cy="175.1" rx="2.7" ry="1.1"/><path class="st2" d="M1064.8 131.8c4.2.7 8.3 1.4 12.5 2.1.7.1 1.3-.2 1.5-.9.2-.6-.2-1.4-.9-1.5-4.2-.7-8.3-1.4-12.5-2.1-.7-.1-1.3.2-1.5.9-.2.6.2 1.4.9 1.5z"/><path class="st2" d="M1078.5 134c8.2-.2 16.4-.3 24.7-.5 1.6 0 1.6-2.5 0-2.5-8.2.2-16.4.3-24.7.5-1.6 0-1.6 2.5 0 2.5z"/><path class="st2" d="M1104.7 133.8c3.8-.7 7.6-1.3 11.5-1.7.7-.1 1.3-.5 1.3-1.3 0-.6-.6-1.3-1.3-1.3-4.1.4-8.1 1-12.1 1.8-.7.1-1 .9-.9 1.5.2.8.9 1.1 1.5 1z"/><path class="st2" d="M1122.2 169.8c-.6-1.7-1.1-3.5-1.6-5.2-.5-1.7-.8-3.4-.4-5.1.4-1.6 1.1-3.2 1.5-4.8.3-1.6.5-3.2.4-4.7-.2-3.2-1.4-6.1-2.6-9-1.3-2.9-2.6-6.5-1.3-9.7.6-1.5-1.5-2.7-2.2-1.3-1.3 3.1-.9 6.4.2 9.5 1.2 3.3 3.1 6.4 3.4 10 .1 1.8 0 3.6-.5 5.4-.4 1.7-1.2 3.2-1.4 4.9-.5 3.6 1.1 7.3 2.2 10.6.4 1.6 2.8.9 2.3-.6zm-59.4-39c-2.1 2-2.7 5-1.5 7.6 1.3 2.7 4.1 4.3 4.8 7.4.7 3.2-.4 6.6-1.5 9.5-1.4 3.5-3 6.9-4.7 10.2-.7 1.4 1.4 2.7 2.2 1.3 1.6-3.1 3.1-6.3 4.5-9.6 1.2-2.9 2.4-6.1 2.3-9.3 0-3.1-1.3-5.5-3.3-7.8-.9-1.1-2-2.2-2.3-3.6-.3-1.4.2-2.9 1.3-3.9 1.2-1.2-.6-3-1.8-1.8z"/><path class="st2" d="M1117 131.2c3.3 6 2.5 13.6-1.9 18.7-1.2 1.4-2.5 2.7-3.4 4.3-.9 1.4-1.6 3-2.1 4.7-1 3.4-1.2 6.9-1.2 10.4 0 1.6 2.5 1.6 2.5 0 0-3.7.2-7.4 1.5-10.9.7-1.8 1.6-3.4 2.9-4.9 1.2-1.4 2.5-2.7 3.5-4.3 3.6-5.7 3.7-13.4.4-19.3-.8-1.3-3-.1-2.2 1.3zm-53.5 1.2c1.2 6.2-2.3 12.3-2.1 18.5.3 6.2 3.5 12 2.9 18.2-.2 1.6 2.3 1.6 2.5 0 .7-6.4-2.7-12.3-2.9-18.7-.1-6.4 3.2-12.3 2-18.7-.3-1.5-2.7-.9-2.4.7z"/></g><g class="st0"><path class="st1" d="M1373.9 347.5c-3-9.5-6.5-18.9-10.4-28.2l-.2-.2c-3-.4-5.9-.7-8.9-1.1l-.5.2c6.6 9.9 12.7 20.1 18.4 30.5l1.6-1.2zm-8.7-29.6c5.4 0 10.8-.1 16.2-.1l.4.2c-3.3-10.7-6.2-21.5-8.6-32.4h.4c-2.5 10.9-5.5 21.7-8.9 32.4m10.4 31c2.6-10.2 5.9-20.5 9.7-30.6l.5-.1c3.1-.6 6.2-1 9.4-1.3l.8-.4c-6.7 11-12.9 22.2-18.5 33.6"/><path class="st2" d="M1372.8 350.1c-5.8-11.6-12-23-18.7-34.1-.8-1.4-3-.1-2.2 1.3 6.7 11.1 13 22.5 18.7 34.1.8 1.4 2.9.1 2.2-1.3zm-.7-66.8c-2.8 11.6-6.1 23.1-9.9 34.4-.5 1.5 1.9 2.2 2.4.7 3.8-11.3 7.1-22.8 9.9-34.4.4-1.6-2-2.2-2.4-.7z"/><path class="st2" d="M1374.8 349.1c-2.9-10.6-6.3-21-10.2-31.2-.6-1.5-3-.8-2.4.7 3.9 10.2 7.3 20.6 10.2 31.2.4 1.5 2.8.8 2.4-.7zm-20.7-32.2c3.3-5.7 6.5-11.5 9.8-17.2 3-5.3 5.7-11 9.8-15.5 1.1-1.2-.7-3-1.8-1.8-4.2 4.5-6.9 10.2-10 15.6-3.3 5.9-6.7 11.8-10 17.7-.8 1.3 1.4 2.6 2.2 1.2z"/><path class="st2" d="M1377.1 351.2c5.5-11.7 11.6-23.2 18-34.5.8-1.4-1.4-2.7-2.2-1.3-6.5 11.2-12.5 22.7-18 34.5-.7 1.5 1.5 2.8 2.2 1.3zm-5.4-67.2c3.1 11.5 6.6 22.9 10.7 34.2.5 1.5 3 .9 2.4-.7-4.1-11.2-7.6-22.6-10.7-34.2-.4-1.5-2.8-.9-2.4.7z"/><path class="st2" d="M1375.4 349.7c2.6-10.6 5.8-21.1 9.4-31.4.5-1.5-1.9-2.2-2.4-.7-3.7 10.3-6.8 20.8-9.4 31.4-.4 1.6 2 2.3 2.4.7zm19.6-34.5c-3.5-5.8-7-11.6-10.4-17.4-3.1-5.3-6-10.9-10.3-15.3-1.1-1.2-2.9.6-1.8 1.8 4.2 4.4 7.1 10.1 10.2 15.3 3.4 5.7 6.8 11.3 10.2 17 .8 1.2 3-.1 2.1-1.4z"/><ellipse transform="rotate(-.678 1373.782 351.034) scale(.99997)" class="st3" cx="1373.9" cy="350.9" rx="2.1" ry=".9"/><path class="st2" d="M1353.2 317.6c3.2.5 6.5 1.1 9.7 1.6.7.1 1.3-.2 1.5-.9.2-.6-.2-1.4-.9-1.5-3.2-.5-6.5-1.1-9.7-1.6-.7-.1-1.3.2-1.5.9-.1.5.3 1.4.9 1.5z"/><path class="st2" d="M1364 319.3c6.4-.1 12.8-.3 19.2-.4 1.6 0 1.6-2.5 0-2.5-6.4.1-12.8.3-19.2.4-1.6 0-1.7 2.5 0 2.5z"/><path class="st2" d="M1384.4 319.1c2.9-.6 5.9-1 8.8-1.3.7-.1 1.3-.5 1.3-1.3 0-.6-.6-1.3-1.3-1.3-3.2.3-6.3.8-9.5 1.4-.7.1-1 .9-.9 1.5.3.8.9 1.1 1.6 1z"/><path class="st2" d="M1398.2 346.7c-.8-2.3-2.2-5.3-1.6-7.8.3-1.2.9-2.4 1.1-3.7.3-1.3.4-2.6.3-3.9-.1-2.5-1.1-4.8-2.1-7.1-1-2.4-1.9-5-.9-7.5.6-1.5-1.8-2.1-2.4-.7-2.3 5.4 2.6 10 2.9 15.3.1 1.4-.1 2.8-.5 4.1-.4 1.3-.9 2.5-1.1 3.8-.3 2.7.9 5.6 1.8 8.1.6 1.6 3 1 2.5-.6zm-46.6-30.4c-1.6 1.5-2.2 3.9-1.3 5.9.9 2.2 3.2 3.5 3.8 5.8.7 2.4-.2 5-1.1 7.3-1.1 2.7-2.4 5.4-3.7 8-.7 1.4 1.4 2.7 2.2 1.3 1.3-2.4 2.4-4.9 3.5-7.4 1-2.3 1.8-4.7 1.9-7.2 0-2.3-.8-4.3-2.3-6.1-1.5-1.7-3.3-3.8-1.2-5.8 1.1-1.2-.6-2.9-1.8-1.8z"/><path class="st2" d="M1393.6 317c2.6 4.7 1.8 10.5-1.7 14.5-1.8 2.1-3.3 4.1-4.1 6.8-.8 2.7-1 5.5-.9 8.2 0 1.6 2.5 1.6 2.5 0 0-2.9.1-5.8 1.2-8.5 1.1-2.9 3.5-4.7 5.1-7.3 2.7-4.5 2.7-10.4.2-15-.9-1.4-3.1-.1-2.3 1.3zm-41.6.9c.9 4.8-1.8 9.5-1.6 14.3.2 4.8 2.7 9.3 2.2 14.2-.2 1.6 2.3 1.6 2.5 0 .5-5.1-2.2-9.6-2.2-14.6-.1-4.9 2.5-9.5 1.5-14.5-.3-1.7-2.7-1-2.4.6z"/></g></svg>