<svg version="1.1" id="Camada_1" xmlns="http://www.w3.org/2000/svg" x="0" y="0" viewBox="0 0 1397 509" xml:space="preserve"><style>.st0{opacity:.5}.st1{fill:#f4c17f}.st2{fill:#fff}.st3{fill:none;stroke:#fff;stroke-width:1.9999;stroke-miterlimit:9.9997}</style><g class="st0"><path class="st1" d="M281.7 456c-6.2-19.6-13.6-39-22-58.3l-.3-.4c-6.2-.8-12.4-1.5-18.6-2.3l-1.1.5c13.8 20.5 26.7 41.6 38.6 63.1l3.4-2.6zm-18.2-61.2c11.4-.1 22.7-.1 34.1-.2l.9.3c-7-22.2-13-44.5-18.1-67h.8c-5.3 22.5-11.5 44.8-18.6 66.9m21.6 64.2c5.6-21.2 12.3-42.3 20.3-63.3l1-.2c6.5-1.2 13.1-2.1 19.7-2.8l1.8-.8c-14 22.7-27 45.8-38.9 69.5"/><path class="st2" d="M278.2 461.9c-9.5-18.7-19.5-37.2-30.2-55.2-3-5.1-6.1-10.2-9.2-15.3-.8-1.4-3-.1-2.2 1.3 11 17.9 21.5 36.1 31.3 54.7 2.8 5.2 5.5 10.5 8.1 15.8.8 1.4 2.9.1 2.2-1.3zm1-138.3c-4.6 18.7-9.8 37.2-15.6 55.5-1.7 5.2-3.4 10.4-5.2 15.6-.5 1.5 1.9 2.2 2.4.7 6.2-18.2 11.9-36.7 16.8-55.4 1.4-5.2 2.7-10.5 4-15.8.4-1.5-2-2.2-2.4-.6z"/><path class="st2" d="M282.2 459.5c-4.7-16.9-10-33.7-16-50.2-1.7-4.8-3.5-9.6-5.4-14.3-.6-1.5-3-.8-2.4.7 6.4 16.5 12.1 33.1 17.2 50.1 1.4 4.8 2.8 9.6 4.1 14.4.5 1.6 2.9.9 2.5-.7zM238.8 392c5.4-9.3 10.7-18.6 16.1-27.9 5.2-9 10.2-18 15.6-26.8 2.9-4.7 6-9.2 9.8-13.2 1.1-1.2-.7-2.9-1.8-1.8-6.8 7.2-11.5 15.9-16.4 24.4-5.4 9.4-10.8 18.8-16.2 28.1-3.1 5.3-6.1 10.6-9.2 15.9-.8 1.4 1.3 2.7 2.1 1.3zm48.4 71c9-18.9 18.7-37.5 29-55.7 2.9-5.2 5.9-10.4 8.9-15.5.8-1.4-1.3-2.6-2.2-1.3-10.6 18.1-20.7 36.5-30.1 55.2-2.7 5.3-5.3 10.7-7.9 16-.6 1.5 1.6 2.7 2.3 1.3z"/><path class="st2" d="M278.4 324.3c5 18.6 10.7 37 17 55.1 1.8 5.2 3.6 10.3 5.5 15.5.6 1.5 3 .8 2.4-.7-6.7-18.1-12.7-36.4-18.1-54.9-1.5-5.2-3-10.4-4.4-15.7-.5-1.6-2.9-.9-2.4.7z"/><path class="st2" d="M283.5 460.2c4.2-17 9.2-33.9 14.8-50.5 1.6-4.8 3.3-9.6 5-14.4.5-1.5-1.9-2.2-2.4-.7-6 16.6-11.4 33.4-16 50.4-1.3 4.8-2.6 9.7-3.8 14.5-.4 1.6 2 2.3 2.4.7zm41.4-70.5c-5.6-9.3-11.3-18.5-16.9-27.8-5.4-8.9-10.7-18-16.4-26.8-3-4.6-6.3-9-10.1-12.9-1.1-1.1-2.9.6-1.8 1.8 7 7 11.9 15.8 17 24.2 5.5 9.1 11.1 18.2 16.6 27.3 3.1 5.2 6.3 10.3 9.4 15.5.9 1.3 3.1.1 2.2-1.3z"/><ellipse transform="matrix(.9999 -.01148 .01148 .9999 -5.298 3.264)" class="st3" cx="281.6" cy="463" rx="4.4" ry="1.8"/><path class="st2" d="M238.6 392.7c6.8 1.1 13.6 2.2 20.4 3.4 1.6.3 2.3-2.1.7-2.4-6.8-1.1-13.6-2.2-20.4-3.4-1.6-.2-2.3 2.2-.7 2.4z"/><path class="st2" d="M260.8 396.3c13.4-.3 26.9-.6 40.3-.8 1.6 0 1.6-2.5 0-2.5-13.4.3-26.9.6-40.3.8-1.6 0-1.6 2.5 0 2.5z"/><path class="st2" d="M303.4 395.9c6.3-1.2 12.6-2.1 18.9-2.8 1.6-.2 1.6-2.7 0-2.5-6.6.7-13.1 1.6-19.6 2.9-1.5.3-.9 2.7.7 2.4z"/><path class="st2" d="M331.5 454.7c-1.4-4.1-3.1-8.4-3.6-12.7-.5-4.5 2-8.4 2.8-12.7.7-4 .7-8.2-.4-12.1-1.1-4-3.1-7.7-4.6-11.6-1.6-4.2-2.8-9.1-.9-13.3.7-1.5-1.5-2.7-2.2-1.3-3.7 8.2 1.3 16.1 4.1 23.6 1.6 4.2 2.2 8.6 1.6 13.1-.3 2.2-1 4.3-1.7 6.4-.7 2-1.4 4-1.4 6.2 0 2.5.6 5.1 1.4 7.5.7 2.5 1.5 5 2.4 7.5.6 1.5 3 .9 2.5-.6zm-95.7-62.4c-2.6 2.4-3.8 6.1-2.9 9.6.9 3.6 4 6.1 6.2 8.9 5.3 6.7 2 15.8-1 22.8-2.1 4.8-4.4 9.6-6.9 14.3-.8 1.4 1.4 2.7 2.2 1.3 2.2-4.1 4.2-8.3 6.1-12.5 1.6-3.7 3.3-7.4 4.2-11.4.9-3.7 1.2-7.6 0-11.3-1.2-3.6-3.8-6-6.1-8.8-1.3-1.6-2.4-3.5-2.4-5.6s.9-4.1 2.5-5.5c1-1.1-.7-2.8-1.9-1.8z"/><path class="st2" d="M324.3 392.2c4.2 7.2 4.6 16.3 1.3 23.9-.8 1.9-1.9 3.8-3.2 5.4-1.5 1.9-3.2 3.6-4.7 5.4-2.8 3.5-4.8 7.5-5.9 11.8-1.2 4.9-1.5 10-1.5 15 0 1.6 2.5 1.6 2.5 0-.1-9.3 1.1-18.8 7.5-26.1 3-3.4 5.9-6.7 7.7-11 1.6-3.9 2.4-8.1 2.2-12.3-.1-4.8-1.4-9.4-3.8-13.6-.7-1.1-2.9.1-2.1 1.5zm-87.3 2.1c1.6 7.9-1.8 15.7-2.9 23.4-.6 3.8-.5 7.6.2 11.4.7 3.8 1.8 7.5 2.8 11.3 1.1 4.3 1.9 8.7 1.4 13.1-.2 1.6 2.3 1.6 2.5 0 .9-7.9-2.2-15.4-3.8-23-.9-3.9-1.2-7.9-.6-11.9s1.7-7.9 2.5-11.9c.9-4.3 1.3-8.7.4-13.1-.4-1.6-2.8-.9-2.5.7z"/></g><g class="st0"><path class="st1" d="M68.8 116.3c-3.5-11-7.6-22-12.4-32.8l-.2-.2c-3.5-.4-7-.9-10.5-1.3l-.6.3c7.8 11.6 15 23.4 21.7 35.5l2-1.5zM58.6 81.8c6.4 0 12.8-.1 19.2-.1l.5.2C74.4 69.4 71 56.8 68.1 44.1h.4C65.5 56.8 62 69.4 58 81.8M70.2 118c3.1-11.9 6.9-23.8 11.4-35.7l.6-.1c3.7-.7 7.4-1.2 11.1-1.6l1-.4c-7.9 12.8-15.2 25.9-21.9 39.2"/><path class="st2" d="M67.3 119.3c-6.8-13.5-14.2-26.7-22.2-39.7-.8-1.4-3-.1-2.2 1.3 7.9 12.9 15.3 26.2 22.2 39.7.8 1.4 2.9.2 2.2-1.3zm-.4-77.7c-3.3 13.5-7.2 26.9-11.7 40.1-.5 1.5 1.9 2.2 2.4.7 4.5-13.3 8.4-26.7 11.7-40.2.4-1.5-2-2.2-2.4-.6z"/><path class="st2" d="M69.6 118.2c-3.4-12.3-7.4-24.4-12-36.3-.6-1.5-3-.8-2.4.7 4.6 11.9 8.6 24 12 36.3.4 1.5 2.9.8 2.4-.7zM45.2 80.5c3.8-6.7 7.7-13.3 11.5-20 3.6-6.2 6.8-12.9 11.7-18.2 1.1-1.2-.7-2.9-1.8-1.8-5 5.3-8.2 12-11.8 18.2-3.9 6.9-7.9 13.7-11.8 20.5-.8 1.4 1.4 2.7 2.2 1.3zm27.2 40c6.5-13.7 13.6-27.1 21.3-40.1.8-1.4-1.3-2.6-2.2-1.3a531.2 531.2 0 00-21.3 40.1c-.7 1.5 1.5 2.8 2.2 1.3z"/><path class="st2" d="M66.4 42.2C70 55.7 74.3 68.9 79.1 82c.6 1.5 3 .8 2.4-.7-4.8-13.1-9-26.3-12.7-39.8-.4-1.5-2.8-.8-2.4.7z"/><path class="st2" d="M70.3 118.8c3.1-12.4 6.8-24.6 11.1-36.6.5-1.5-1.9-2.2-2.4-.7-4.3 12-8.1 24.2-11.1 36.6-.4 1.6 2 2.3 2.4.7zm23.3-40.1c-4.1-6.7-8.2-13.4-12.3-20.2-3.7-6.2-7.2-12.8-12.3-18-1.1-1.1-2.9.6-1.8 1.8 5 5.1 8.4 11.8 12.1 17.9 4 6.6 8 13.2 12 19.7 1 1.4 3.1.2 2.3-1.2z"/><ellipse transform="rotate(-.659 68.699 120.395)" class="st3" cx="68.7" cy="120.3" rx="2.5" ry="1"/><path class="st2" d="M44.4 81.2c3.8.6 7.6 1.3 11.5 1.9.7.1 1.3-.2 1.5-.9.2-.6-.2-1.4-.9-1.5-3.8-.6-7.6-1.3-11.5-1.9-.7-.1-1.3.2-1.5.9-.1.6.3 1.4.9 1.5z"/><path class="st2" d="M57 83.2c7.6-.2 15.1-.3 22.7-.5 1.6 0 1.6-2.5 0-2.5-7.6.2-15.1.3-22.7.5-1.6 0-1.6 2.5 0 2.5z"/><path class="st2" d="M81.2 83c3.5-.7 7-1.2 10.5-1.5.7-.1 1.3-.5 1.3-1.3 0-.6-.6-1.3-1.3-1.3-3.7.4-7.5.9-11.2 1.6-.7.1-1 .9-.9 1.5.2.8.9 1.1 1.6 1z"/><path class="st2" d="M97.3 115.4c-.5-1.5-1-3-1.4-4.5-.4-1.5-.8-3-.5-4.6.3-1.5 1-2.8 1.3-4.3s.5-3 .4-4.5c-.1-2.9-1.3-5.5-2.4-8.2-1.1-2.6-2.4-5.8-1.2-8.7.6-1.5-1.5-2.7-2.2-1.3-1.2 2.8-.9 5.8.1 8.7 1.1 3 2.8 5.8 3.1 9 .1 1.6 0 3.2-.4 4.7-.4 1.6-1.1 3-1.4 4.6-.4 3.2 1 6.6 2 9.6.7 1.7 3.1 1 2.6-.5zM42.6 80.1c-1.9 1.8-2.5 4.6-1.4 6.9 1.2 2.5 3.8 4 4.5 6.8.7 2.8-.4 5.8-1.4 8.4-1.3 3.2-2.8 6.2-4.4 9.2-.7 1.4 1.4 2.7 2.2 1.3 1.5-2.9 2.9-5.8 4.2-8.8 1.1-2.6 2.1-5.3 2.1-8.1.1-2.7-1-5-2.7-7-.9-1-1.9-2-2.3-3.2-.4-1.4.1-2.7 1.1-3.7 1-1.2-.7-2.9-1.9-1.8z"/><path class="st2" d="M92.3 80.6c3.1 5.4 2.3 12.2-1.8 16.9-2.1 2.4-4 4.7-5 7.9-1 3.1-1.2 6.4-1.1 9.7 0 1.6 2.5 1.6 2.5 0 0-3.4.2-6.8 1.4-10 1.3-3.3 4.1-5.4 5.9-8.3 3.3-5.2 3.3-12.1.3-17.4-.8-1.4-3-.2-2.2 1.2zm-49.2 1.1c1.2 5.6-2.1 11.1-1.8 16.7.2 5.6 3.2 10.8 2.6 16.5-.2 1.6 2.3 1.6 2.5 0 .6-5.9-2.5-11.1-2.7-16.9-.1-5.8 3-11.2 1.8-17-.3-1.6-2.7-.9-2.4.7z"/></g><g class="st0"><path class="st1" d="M1084 218.5c-5.3-17.1-11.7-34.1-18.8-51l-.3-.4c-5.3-.7-10.7-1.3-16-2l-1 .4c11.8 18 22.9 36.4 33.1 55.2l3-2.2zm-15.7-53.5c9.8 0 19.5-.1 29.3-.1l.7.3c-6-19.4-11.2-38.9-15.6-58.7h.7c-4.5 19.7-9.8 39.2-16 58.6m18.8 56c4.8-18.5 10.7-37.1 17.6-55.3l.8-.1c5.6-1.1 11.2-1.8 17-2.4l1.5-.7c-12.1 19.8-23.3 40.2-33.4 60.8"/><path class="st2" d="M1081.7 223.4c-10.4-21.1-21.8-41.6-33.8-61.6-1.1-2-4.2-.1-3.1 1.8 12.2 20.1 23.4 40.6 33.8 61.6 1 2 4 .2 3.1-1.8zm-.5-120.9c-5.1 20.9-11 41.7-17.8 62.2-.7 2.1 2.7 3.1 3.4 1 6.9-20.5 12.9-41.1 17.8-62.2.6-2.3-2.8-3.1-3.4-1z"/><path class="st2" d="M1085.2 221.4c-5.2-19.1-11.4-37.9-18.4-56.4-.8-2.1-4.2-1.1-3.4 1 7 18.5 13.2 37.3 18.4 56.4.6 2.1 3.9 1.3 3.4-1zm-37.4-58.5l17.7-31.2c5.5-9.5 10.4-20.1 17.8-28.2 1.5-1.7-1-4.2-2.5-2.5-7.6 8.3-12.6 18.7-18.1 28.2-6 10.5-11.9 21.2-18 31.7-1.1 2.1 2 3.9 3.1 2zm41.6 62c10-21.2 20.9-42 32.6-62.3 1.1-2-2-3.8-3.1-1.8-11.8 20.4-22.6 41.1-32.6 62.3-1 2.1 2.1 3.9 3.1 1.8z"/><path class="st2" d="M1080.5 103.5c5.5 20.9 11.9 41.4 19.4 61.8.7 2.1 4.2 1.3 3.4-1-7.3-20.2-13.8-40.9-19.4-61.8-.6-2.1-3.9-1.3-3.4 1z"/><path class="st2" d="M1086.3 222.4c4.8-19.2 10.4-38.2 17-56.9.7-2.1-2.7-3.1-3.4-1-6.6 18.7-12.4 37.6-17 56.9-.5 2.3 2.8 3.1 3.4 1zm35.5-62.2c-6.2-10.4-12.5-20.9-18.7-31.3-5.8-9.5-11-19.8-18.7-27.8-1.5-1.7-4.1.8-2.5 2.5 7.7 8 12.9 18.3 18.5 27.8 6.2 10.2 12.2 20.5 18.4 30.7 1.2 1.8 4.1.1 3-1.9z"/><ellipse transform="rotate(-.678 1083.805 224.717) scale(.99997)" class="st3" cx="1083.9" cy="224.7" rx="3.8" ry="1.5"/><path class="st2" d="M1046.8 163.9c5.9 1 11.7 2 17.6 2.9 1 .1 1.8-.3 2.1-1.3.3-.8-.3-2-1.3-2.1-5.9-1-11.7-2-17.6-2.9-1-.1-1.8.3-2.1 1.3-.2.8.4 1.9 1.3 2.1z"/><path class="st2" d="M1066.1 166.9c11.5-.3 23-.4 34.7-.7 2.2 0 2.2-3.5 0-3.5-11.5.3-23 .4-34.7.7-2.3 0-2.3 3.5 0 3.5z"/><path class="st2" d="M1102.9 166.7c5.3-1 10.7-1.8 16.1-2.4 1-.1 1.8-.7 1.8-1.8 0-.8-.8-1.8-1.8-1.8-5.8.6-11.4 1.4-17 2.5-1 .1-1.4 1.3-1.3 2.1.3 1.1 1.3 1.5 2.2 1.4z"/><path class="st2" d="M1127.4 217.2c-.8-2.4-1.5-4.9-2.2-7.3-.7-2.4-1.1-4.8-.6-7.2.6-2.2 1.5-4.5 2.1-6.7.4-2.2.7-4.5.6-6.6-.3-4.5-2-8.6-3.7-12.6-1.8-4.1-3.7-9.1-1.8-13.6.8-2.1-2.1-3.8-3.1-1.8-1.8 4.4-1.3 9 .3 13.3 1.7 4.6 4.4 9 4.8 14 .1 2.5 0 5.1-.7 7.6-.6 2.4-1.7 4.5-2 6.9-.7 5.1 1.5 10.2 3.1 14.9.6 2.2 3.9 1.2 3.2-.9zm-83.4-54.7c-2.9 2.8-3.8 7-2.1 10.7 1.8 3.8 5.8 6 6.7 10.4 1 4.5-.6 9.3-2.1 13.3-2 4.9-4.2 9.7-6.6 14.3-1 2 2 3.8 3.1 1.8 2.2-4.4 4.4-8.8 6.3-13.5 1.7-4.1 3.4-8.6 3.2-13.1 0-4.4-1.8-7.7-4.6-11-1.3-1.5-2.8-3.1-3.2-5.1-.4-2 .3-4.1 1.8-5.5 1.7-1.5-.8-4-2.5-2.3z"/><path class="st2" d="M1120.1 163c4.6 8.4 3.5 19.1-2.7 26.3-1.7 2-3.5 3.8-4.8 6-1.3 2-2.2 4.2-2.9 6.6-1.4 4.8-1.7 9.7-1.7 14.6 0 2.2 3.5 2.2 3.5 0 0-5.2.3-10.4 2.1-15.3 1-2.5 2.2-4.8 4.1-6.9 1.7-2 3.5-3.8 4.9-6 5.1-8 5.2-18.8.6-27.1-1.1-1.8-4.2-.1-3.1 1.8zm-75.1 1.7c1.7 8.7-3.2 17.3-2.9 26 .4 8.7 4.9 16.8 4.1 25.6-.3 2.2 3.2 2.2 3.5 0 1-9-3.8-17.3-4.1-26.3-.1-9 4.5-17.3 2.8-26.3-.4-2.1-3.8-1.2-3.4 1z"/></g><g class="st0"><path class="st1" d="M1353.9 377.5c-3-9.5-6.5-18.9-10.4-28.2l-.2-.2c-3-.4-5.9-.7-8.9-1.1l-.5.2c6.6 9.9 12.7 20.1 18.4 30.5l1.6-1.2zm-8.7-29.6c5.4 0 10.8-.1 16.2-.1l.4.2c-3.3-10.7-6.2-21.5-8.6-32.4h.4c-2.5 10.9-5.5 21.7-8.9 32.4m10.4 31c2.6-10.2 5.9-20.5 9.7-30.6l.5-.1c3.1-.6 6.2-1 9.4-1.3l.8-.4c-6.7 11-12.9 22.2-18.5 33.6"/><path class="st2" d="M1352.8 380.1c-5.8-11.6-12-23-18.7-34.1-.8-1.4-3-.1-2.2 1.3 6.7 11.1 13 22.5 18.7 34.1.8 1.4 2.9.1 2.2-1.3zm-.7-66.8c-2.8 11.6-6.1 23.1-9.9 34.4-.5 1.5 1.9 2.2 2.4.7 3.8-11.3 7.1-22.8 9.9-34.4.4-1.6-2-2.2-2.4-.7z"/><path class="st2" d="M1354.8 379.1c-2.9-10.6-6.3-21-10.2-31.2-.6-1.5-3-.8-2.4.7 3.9 10.2 7.3 20.6 10.2 31.2.4 1.5 2.8.8 2.4-.7zm-20.7-32.2c3.3-5.7 6.5-11.5 9.8-17.2 3-5.3 5.7-11 9.8-15.5 1.1-1.2-.7-3-1.8-1.8-4.2 4.5-6.9 10.2-10 15.6-3.3 5.9-6.7 11.8-10 17.7-.8 1.3 1.4 2.6 2.2 1.2z"/><path class="st2" d="M1357.1 381.2c5.5-11.7 11.6-23.2 18-34.5.8-1.4-1.4-2.7-2.2-1.3-6.5 11.2-12.5 22.7-18 34.5-.7 1.5 1.5 2.8 2.2 1.3zm-5.4-67.2c3.1 11.5 6.6 22.9 10.7 34.2.5 1.5 3 .9 2.4-.7-4.1-11.2-7.6-22.6-10.7-34.2-.4-1.5-2.8-.9-2.4.7z"/><path class="st2" d="M1355.4 379.7c2.6-10.6 5.8-21.1 9.4-31.4.5-1.5-1.9-2.2-2.4-.7-3.7 10.3-6.8 20.8-9.4 31.4-.4 1.6 2 2.3 2.4.7zm19.6-34.5c-3.5-5.8-7-11.6-10.4-17.4-3.1-5.3-6-10.9-10.3-15.3-1.1-1.2-2.9.6-1.8 1.8 4.2 4.4 7.1 10.1 10.2 15.3 3.4 5.7 6.8 11.3 10.2 17 .8 1.2 3-.1 2.1-1.4z"/><ellipse transform="rotate(-.678 1353.79 380.972) scale(.99997)" class="st3" cx="1353.9" cy="380.9" rx="2.1" ry=".9"/><path class="st2" d="M1333.2 347.6c3.2.5 6.5 1.1 9.7 1.6.7.1 1.3-.2 1.5-.9.2-.6-.2-1.4-.9-1.5-3.2-.5-6.5-1.1-9.7-1.6-.7-.1-1.3.2-1.5.9-.1.5.3 1.4.9 1.5z"/><path class="st2" d="M1344 349.3c6.4-.1 12.8-.3 19.2-.4 1.6 0 1.6-2.5 0-2.5-6.4.1-12.8.3-19.2.4-1.6 0-1.7 2.5 0 2.5z"/><path class="st2" d="M1364.4 349.1c2.9-.6 5.9-1 8.8-1.3.7-.1 1.3-.5 1.3-1.3 0-.6-.6-1.3-1.3-1.3-3.2.3-6.3.8-9.5 1.4-.7.1-1 .9-.9 1.5.3.8.9 1.1 1.6 1z"/><path class="st2" d="M1378.2 376.7c-.8-2.3-2.2-5.3-1.6-7.8.3-1.2.9-2.4 1.1-3.7.3-1.3.4-2.6.3-3.9-.1-2.5-1.1-4.8-2.1-7.1-1-2.4-1.9-5-.9-7.5.6-1.5-1.8-2.1-2.4-.7-2.3 5.4 2.6 10 2.9 15.3.1 1.4-.1 2.8-.5 4.1-.4 1.3-.9 2.5-1.1 3.8-.3 2.7.9 5.6 1.8 8.1.6 1.6 3 1 2.5-.6zm-46.6-30.4c-1.6 1.5-2.2 3.9-1.3 5.9.9 2.2 3.2 3.5 3.8 5.8.7 2.4-.2 5-1.1 7.3-1.1 2.7-2.4 5.4-3.7 8-.7 1.4 1.4 2.7 2.2 1.3 1.3-2.4 2.4-4.9 3.5-7.4 1-2.3 1.8-4.7 1.9-7.2 0-2.3-.8-4.3-2.3-6.1-1.5-1.7-3.3-3.8-1.2-5.8 1.1-1.2-.6-2.9-1.8-1.8z"/><path class="st2" d="M1373.6 347c2.6 4.7 1.8 10.5-1.7 14.5-1.8 2.1-3.3 4.1-4.1 6.8-.8 2.7-1 5.5-.9 8.2 0 1.6 2.5 1.6 2.5 0 0-2.9.1-5.8 1.2-8.5 1.1-2.9 3.5-4.7 5.1-7.3 2.7-4.5 2.7-10.4.2-15-.9-1.4-3.1-.1-2.3 1.3zm-41.6.9c.9 4.8-1.8 9.5-1.6 14.3.2 4.8 2.7 9.3 2.2 14.2-.2 1.6 2.3 1.6 2.5 0 .5-5.1-2.2-9.6-2.2-14.6-.1-4.9 2.5-9.5 1.5-14.5-.3-1.7-2.7-1-2.4.6z"/></g></svg>