<svg version="1.1" id="Camada_1" xmlns="http://www.w3.org/2000/svg" x="0" y="0" viewBox="0 0 639.8 257.2" xml:space="preserve"><style>.st2{fill:#fff}</style><path d="M417.9 184.5c-13-2.2-25.5-5.8-37.1-10.8h-.1c-7.9 9.2-15.8 18.5-23.7 27.7h.2c-5.5-21-11.6-41.8-18.2-62.6h.5c8.8-2.8 17.6-5.5 26.5-8.1 2.3-.7 4.7-1.3 7-2l12.6-3.6c5-1.4 10-2.8 15-3.7l.5-.3c5.4 21.3 11.3 42.5 17.7 63.5m-404.1 63c12-6 23.2-13.2 33-21.4l.1-.1c10.6 6.5 21.1 12.9 31.7 19.4l-.2.1c-1-21.7-1.5-43.4-1.4-65.1l-.5.2c-9.5-.1-18.9 0-28.4.2-2.5.1-5 .1-7.5.2l-13.5.3c-5.3.1-10.6.3-15.9.9l-.6-.1c1.3 21.9 2 43.9 2.1 65.9" fill="#f2ab43"/><path d="M519.5 139.9c6.9-10.8 12.4-22.4 16.4-34.4l.1-.1c11.9 1.2 23.7 2.4 35.6 3.6l-.1.2c-11.6-19.4-22.8-39.1-33.5-59.1l-.3.4c-7.8 4.2-15.5 8.4-23.1 12.9-2 1.2-4 2.3-6 3.5l-10.8 6.3c-4.3 2.5-8.5 5-12.5 7.9l-.6.2c11.9 19.5 23.4 39.4 34.5 59.4M186 237.4c10.9-7.8 20.7-16.7 29.2-26.4l.1-.1c11.5 4.7 22.9 9.4 34.4 14l-.2.1c-4.5-21.2-8.4-42.6-11.9-64.1l-.4.2c-9.4 1.4-18.7 3-28 4.8-2.5.5-4.9.9-7.4 1.4-4.4.8-8.8 1.7-13.2 2.5-5.2 1-10.4 2-15.5 3.5h-.6c4.8 21.4 9 43 12.7 64.6" fill="#f08228"/><path class="st2" d="M75.9 181.3c-2.1 17.1-3.9 34.3-5.4 51.5-.4 4.9-.8 9.7-1.2 14.6-.1 1.6 2.4 1.6 2.5 0 1.3-17.2 2.9-34.4 4.9-51.5.5-4.8 1.1-9.7 1.7-14.5.2-1.7-2.3-1.7-2.5-.1zM13.4 176c-1.2 17.4-2.6 34.7-4.4 52-.5 4.9-1 9.9-1.6 14.8-.2 1.6 2.3 1.6 2.5 0 1.9-17.3 3.6-34.6 4.9-52 .4-5 .7-9.9 1.1-14.9.1-1.5-2.4-1.5-2.5.1z"/><path class="st2" d="M71.6 246.4c-9.1-7.6-18.3-15.3-27.4-22.9-1.2-1-3 .7-1.8 1.8 9.1 7.6 18.3 15.3 27.4 22.9 1.2 1 3-.8 1.8-1.8z"/><path class="st2" d="M9.9 243.8c12-4.8 23.4-10.9 33.9-18.3 1.3-.9.1-3.1-1.3-2.2-10.3 7.3-21.6 13.4-33.3 18.1-1.4.5-.8 3 .7 2.4zm4.6-66.5c20.5 2.9 41.3 2.5 61.8 5.5 1.6.2 2.3-2.2.7-2.4-20.5-3.1-41.3-2.6-61.8-5.5-1.6-.3-2.2 2.1-.7 2.4zM160.3 222c-1.8-14.6-3.3-29.2-4.6-43.8-.1-1.6-2.6-1.6-2.5 0 1.3 14.6 2.8 29.3 4.6 43.8.2 1.5 2.7 1.6 2.5 0zm-67.6-39.2c1.4 14.4 2.8 28.8 4.2 43.3.2 1.6 2.7 1.6 2.5 0-1.4-14.4-2.8-28.8-4.2-43.3-.2-1.6-2.7-1.6-2.5 0z"/><path class="st2" d="M158.1 221.1c-2.8 1.4-5 3.8-7.2 5.9-2.5 2.3-4.9 4.6-7.4 7-4.9 4.7-9.7 9.5-14.4 14.3-1.1 1.2.6 2.9 1.8 1.8 4.6-4.8 9.3-9.4 14-14 2.3-2.2 4.7-4.5 7-6.7s4.6-4.7 7.4-6.2c1.5-.7.2-2.9-1.2-2.1z"/><path class="st2" d="M130.8 249.2c-10.5-8.4-21.2-16.6-32-24.6-1.3-1-2.5 1.2-1.3 2.2 10.7 7.8 21.2 15.9 31.5 24.2 1.3.9 3.1-.8 1.8-1.8zm-36.7-65.4c4.9-.1 9.7-.1 14.6-.6 5-.4 10-.9 14.9-1.4 10.2-1 20.4-1.9 30.5-2.9 1.6-.2 1.6-2.7 0-2.5-10.2 1-20.4 1.9-30.5 2.9-5 .5-9.9 1-14.9 1.4-4.8.4-9.7.4-14.6.6-1.6 0-1.6 2.5 0 2.5zm145.4-18.1c4.7 20.8 9.4 41.5 14.1 62.3.4 1.6 2.8.9 2.4-.7-4.7-20.8-9.4-41.5-14.1-62.3-.4-1.5-2.8-.9-2.4.7z"/><path class="st2" d="M254.3 225.9c-13.6-5.7-26.8-12.4-39.4-19.9-1.4-.8-2.6 1.3-1.3 2.2 12.8 7.7 26.2 14.4 40 20.2 1.5.5 2.1-1.9.7-2.5z"/><path class="st2" d="M212.7 205.4c-7.3 11.5-15.1 22.7-23.4 33.5-1 1.3 1.2 2.5 2.2 1.3 8.3-10.8 16.1-22 23.4-33.5.8-1.4-1.3-2.6-2.2-1.3z"/><path class="st2" d="M191.1 239.1c-4.8-15.9-9.2-32-13.4-48.1-1.2-4.6-2.4-9.2-3.6-13.9-.4-1.6-2.8-.9-2.4.7 4.2 16.1 8.3 32.2 12.9 48.2 1.3 4.6 2.7 9.2 4.1 13.8.4 1.5 2.9.9 2.4-.7z"/><path class="st2" d="M173 178.4c8.7-.8 16.8-4.2 25.4-5.5 4.5-.6 8.9-1 13.3-2 4.5-1 8.9-1.9 13.4-2.6 5.1-.8 10.3-1.4 15.5-1.8 1.6-.1 1.6-2.6 0-2.5-9 .6-18 1.9-26.9 3.9-4.4 1-8.8 1.8-13.3 2.3-4.4.5-8.7 1.5-12.9 2.6-4.8 1.3-9.6 2.7-14.6 3.1-1.5.1-1.5 2.6.1 2.5zm102.4 19.9c-4.4-12.6-9.3-25-14.5-37.3-.6-1.5-2.8-.2-2.2 1.3 5.2 12.1 9.9 24.3 14.3 36.7.5 1.5 3 .8 2.4-.7zm44.7-51.8c2.2 13.5 5.8 26.7 10.6 39.4.6 1.5 3 .8 2.4-.7-4.8-12.8-8.3-26-10.6-39.4-.2-1.6-2.7-.9-2.4.7zm-6.6 73.6c1.6 0 1.6-2.5 0-2.5s-1.6 2.5 0 2.5z"/><path class="st2" d="M314 217.6c-12.8-6.7-25.6-13.4-38.5-20.1-1.4-.7-2.7 1.4-1.3 2.2 12.8 6.7 25.6 13.4 38.5 20.1 1.5.8 2.8-1.4 1.3-2.2z"/><path class="st2" d="M330.9 185.3c-3.4 5.4-6.9 10.8-10.3 16.3-3.1 5.1-6.1 10.3-7.8 16-.5 1.5 1.9 2.2 2.4.7 1.8-5.7 4.7-10.8 7.8-15.8 3.3-5.3 6.7-10.6 10-15.9.9-1.4-1.3-2.7-2.1-1.3zM260 162.7c16.1-3.1 32-6.9 47.7-11.5 4.5-1.3 9-2.7 13.5-4.1 1.5-.5.9-2.9-.7-2.4-15.6 4.9-31.4 9.2-47.4 12.7-4.6 1-9.2 2-13.8 2.9-1.6.3-.9 2.7.7 2.4zm135.7-40.3c4.9 16.5 10.1 32.9 15.6 49.2 1.6 4.7 3.2 9.3 4.8 13.9.5 1.5 2.9.9 2.4-.7-5.7-16.2-11-32.6-16.1-49-1.4-4.7-2.9-9.4-4.3-14.1-.4-1.5-2.8-.9-2.4.7zm-59.5 19.8c5.9 16.4 11.5 32.8 16.8 49.4 1.5 4.7 3 9.5 4.5 14.3.5 1.5 2.9.9 2.4-.7-5.1-16.6-10.6-33.1-16.3-49.6-1.6-4.7-3.3-9.4-5-14.1-.5-1.5-2.9-.9-2.4.7z"/><path class="st2" d="M417.8 183.8c-11.5-3.4-22.9-6.8-34.4-10.2-1.5-.5-2.2 2-.7 2.4 11.5 3.4 22.9 6.8 34.4 10.2 1.5.5 2.2-1.9.7-2.4z"/><path class="st2" d="M360.3 205.7c9.1-9.1 17.1-19.2 23.8-30.2.8-1.4-1.3-2.6-2.2-1.3-6.6 10.8-14.5 20.7-23.4 29.7-1.1 1.2.6 3 1.8 1.8zm-21.6-62.8c4.6-2.1 9.5-3.7 14.3-5.3 4.8-1.6 9.7-3.2 14.5-4.8 9.8-3.3 19.6-6.3 29.4-9.2 1.5-.5.9-2.9-.7-2.4-15.6 4.6-31 9.7-46.4 14.9-4.2 1.4-8.3 2.9-12.4 4.7-1.5.6-.2 2.7 1.3 2.1zM487 131.1c-6.2-12.9-12.1-25.9-17.9-38.9-.6-1.5-2.8-.2-2.2 1.3 5.8 13.1 11.7 26 17.9 38.9.7 1.4 2.9.2 2.2-1.3zm-76.6-14.5c6.1 13.2 12.1 26.3 18.2 39.5.7 1.5 2.8.2 2.2-1.3-6.1-13.2-12.1-26.3-18.2-39.5-.7-1.4-2.9-.1-2.2 1.3z"/><path class="st2" d="M484.8 131.1c-2.1 2.3-3.5 5.2-4.9 7.9-1.6 3-3.2 6-4.7 9-3.1 6-6 12.1-8.9 18.2-.7 1.4 1.5 2.7 2.2 1.3 2.8-6 5.7-11.9 8.6-17.8 1.5-2.9 2.9-5.7 4.5-8.6 1.5-2.8 2.8-6 5-8.3 1.1-1.1-.7-2.8-1.8-1.7z"/><path class="st2" d="M468 166.6c-12.6-4.5-25.3-8.8-38-12.7-1.5-.5-2.2 1.9-.7 2.4 12.8 4 25.4 8.2 38 12.7 1.5.5 2.2-1.9.7-2.4zM412 117c15.1-4.8 29.9-10.6 44.3-17.1 4.1-1.9 8.2-3.8 12.2-5.8 1.4-.7.2-2.9-1.3-2.2-18 9-36.7 16.6-55.9 22.7-1.5.5-.8 2.9.7 2.4zm128.1-62.6c7.4 15.6 15 31.1 22.9 46.4 2.2 4.3 4.5 8.7 6.8 13 .8 1.4 2.9.2 2.2-1.3-8.1-15.2-15.9-30.6-23.4-46.1l-6.3-13.2c-.7-1.5-2.8-.2-2.2 1.2zm-55.7 28.7c8.3 15.3 16.3 30.7 24.1 46.3 2.2 4.5 4.4 8.9 6.6 13.4.7 1.4 2.9.2 2.2-1.3-7.6-15.6-15.5-31.2-23.6-46.5-2.3-4.4-4.7-8.8-7.1-13.2-.8-1.4-3-.1-2.2 1.3z"/><path class="st2" d="M571.4 111.8c-11.8-1.6-23.7-3.2-35.5-4.9-1.6-.2-2.3 2.2-.7 2.4 11.8 1.6 23.7 3.2 35.5 4.9 1.6.2 2.3-2.2.7-2.4z"/><path class="st2" d="M517.8 142c7.6-10.4 13.9-21.6 18.9-33.5.6-1.5-1.8-2.1-2.4-.7-4.9 11.7-11.2 22.7-18.7 32.9-.9 1.4 1.2 2.6 2.2 1.3zm-31.6-58.3c7.5-2.6 14.5-6.4 21.3-10.5 7-4.2 13.9-8.5 21.2-12.2 4.3-2.2 8.7-4.3 13.1-6.2 1.5-.6.2-2.8-1.3-2.2-7.7 3.3-15.1 7-22.4 11.2-6.8 3.9-13.4 8.3-20.3 11.9-4 2.1-8.1 4-12.3 5.5-1.5.6-.9 3.1.7 2.5zm146.4-47c-8.9-9.8-17.7-19.7-26.2-29.8-1-1.2-2.8.5-1.8 1.8 8.6 10.1 17.3 20 26.2 29.8 1.1 1.2 2.9-.6 1.8-1.8zM555 44.2c9.5 11 19 21.9 28.5 32.9 1.1 1.2 2.8-.6 1.8-1.8-9.5-11-19-21.9-28.5-32.9-1.1-1.2-2.9.6-1.8 1.8z"/><path class="st2" d="M630.5 37.3c-1.4 2.8-1.9 6-2.5 9-.7 3.3-1.3 6.6-2 9.9-1.3 6.7-2.4 13.3-3.4 20-.2 1.6 2.2 2.3 2.4.7 1-6.5 2.1-13.1 3.3-19.5.6-3.2 1.2-6.4 1.9-9.6.6-3 1-6.4 2.4-9.2.8-1.5-1.4-2.7-2.1-1.3z"/><path class="st2" d="M624.2 76.1c-13.3-.8-26.7-1.3-40-1.6-1.6 0-1.6 2.5 0 2.5 13.4.2 26.7.8 40 1.6 1.6.1 1.6-2.5 0-2.5zm-67-31.6C564.9 38 572.9 31.9 581 26c8.1-6 16.4-11.9 24.7-17.7 1.3-.9.1-3.1-1.3-2.2-8.4 5.9-16.8 11.9-25.1 18-8.1 6-16.2 12-23.8 18.6-1.2 1.1.5 2.8 1.7 1.8z"/></svg>