<svg version="1.1" id="Camada_1" xmlns="http://www.w3.org/2000/svg" x="0" y="0" viewBox="0 0 600 554" xml:space="preserve"><style>.st0{fill:#ec952e}.st1{fill:#ef8128}.st2{fill:#fff}</style><path class="st0" d="M393.7 430.9c2.4.9 4.8 1.8 7.2 2.6 1.1.4 2.3.9 3.2 1.6 1 .8 1.6 2 2.8 2.5 1.1.5 2.4.5 3.3 1.3.8.7.8 1.9 1.5 2.7l.2-.9c-.5 5.1-1.4 15 6.4 17.8l-1.4-.4c-86.2-33.2-171.4-69.9-255.1-110l.6.1c-10.3-3.7-6.5-20.5-4.9-26.4l.5-.7c1.5.9 3.2.2 4.9.2 2.1.1 4 1.3 6.1 2 2.1.7 4.3.9 6.5 1.3 3.5.8 6.8 2.4 10.1 3.9-4-2.2-8-4.5-12.2-6-1.4-.5-2.9-.9-4.2-1.6-1.2-.7-2.1-1.7-3.2-2.5-1.6-1.1-3.5-1.9-5.4-2.1l-.8-1.2c6.5-10.2 11.1-23 25.3-26.8l-.1.2c84 40.1 169.5 76.8 256 110-5.5-2.9-14.5 9.9-16.8 12.8-4.9 6.1-8.7 13-10.7 20.6l.4 1.6c-1.6.4-3.2.6-4.9.8-.4 0-.8.1-1.2 0-.5-.1-1.1-.3-1.6-.5-.9-.3-1.9-.5-2.8-.6"/><path class="st1" d="M394.6 426.6c2 1.1 4 2.2 5.9 3.3.9.5 1.9 1.1 2.6 1.9.7.9 1.1 2.1 2.1 2.8.8.6 2 .7 2.7 1.6.6.8.5 1.9.9 2.8l.3-.8c-1.2 5-3.4 14.7 3.1 18.2l.3.2c4.9 3.3 11.9-5.7 14.4-8.5 6.5-7 12.2-14.8 15.5-24.3l-.3-.5c-.7-1.3-1.8-2.2-2.8-3-1.3-1.1-2.6-2.1-4.2-2.7-1.8-.6-3.8-.5-5.4-1.6l1.2.4c1.8-.1 3.6.2 5.3.9.5.2 1 .5 1.5.3s.9-.6 1.4-.7c.4-.1.7.1 1.1.2 1.3.3 2.7-.4 3.9-1.2l.4-.7c.9-4.6 2.1-12.5-3.6-15.5l-.3-.2c-4.4-3.4-14.1 8.4-16.6 11-5.1 5.5-9.5 12-12.3 19.3l.1 1.6c-1.4.2-2.9.3-4.4.3-.4 0-.7 0-1.1-.1-.5-.1-.9-.4-1.3-.6-.8-.4-1.6-.7-2.4-.9"/><path class="st0" d="M181.5 393.3c-2.4 1-4.8 1.9-7.1 2.9-1.1.5-2.3.9-3.5 1-1.3.1-2.5-.4-3.8 0-1.1.3-2.1 1.2-3.3 1.2-1.1 0-1.9-.8-3-1l.4.8c-3.1-4.1-9-12.1-16.7-8.9l1.3-.6c86.2-33.2 174-63.1 263-89.5l-.5.3c10.2-4.2 18.6 10.9 21.4 16.3l.1.9c-1.7.3-2.5 2-3.8 3.1-1.6 1.3-3.9 1.7-5.9 2.6-2.1.9-3.8 2.3-5.7 3.4-3.1 1.8-6.6 2.8-10.1 3.8 4.4-1 8.9-2 13.1-3.8 1.4-.6 2.7-1.3 4.2-1.6 1.3-.3 2.7-.2 4.1-.3 1.9-.2 3.9-.9 5.4-2l1.4.4c2 11.9 7.2 24.5-.8 36.8l-.1-.2c-89.2 26.6-177.2 56.7-263.7 90.1 6-1.5 4.1-17.1 3.9-20.8-.5-7.8-2.3-15.4-5.9-22.4l-1.3-.9c.9-1.3 2-2.6 3.1-3.9.3-.3.6-.6.9-.8.4-.3 1-.5 1.5-.7.9-.4 1.7-.9 2.5-1.4"/><path class="st1" d="M185.5 398c-2.2.6-4.4 1.2-6.5 1.9-1 .3-2.1.6-3.2.5-1.2-.1-2.3-.7-3.4-.5-1 .2-1.9.9-3 .8-1-.1-1.7-1-2.7-1.3l.4.8c-2.7-4.4-8-12.8-15-10.7l-.3.1c-5.8 1.1-4.3 12.4-4.2 16.1.4 9.6 1.8 19.1 6.2 28.1l.6.2c1.4.4 2.8.3 4.1.2 1.7-.2 3.4-.4 4.8-1.1 1.7-.8 3-2.4 4.9-2.7l-1.1.6c-1.2 1.4-2.7 2.4-4.4 3.1-.5.2-1 .4-1.3.9-.2.4-.2 1.1-.5 1.5-.2.3-.6.4-.9.6-1.1.7-1.6 2.2-1.9 3.6l.2.8c2.6 3.9 7.4 10.3 13.5 8.4l.3-.1c5.5-.7 4.1-15.9 3.9-19.5-.3-7.6-1.8-15.2-4.9-22.4l-1.2-1c.9-1.2 1.8-2.3 2.9-3.3.3-.2.5-.5.8-.7.4-.2.9-.3 1.4-.5.8-.3 1.6-.6 2.3-1.1"/><path class="st2" d="M422.4 303.8c-1 0-2 .2-2.7.8-.4.3-.7.7-1 1.1-.4.4-.9.7-1.5.8-1 .3-2.1.4-3.2.8s-2.2 1-3.2 1.5c-.3.2 0 .6.3.4 1-.6 2.1-1.1 3.2-1.5 1-.3 2.1-.4 3.1-.7.9-.3 1.5-.7 2-1.4.7-1 1.9-1.4 3.1-1.3.3 0 .3-.5-.1-.5zm-38 71.8c17.9-5.7 35.9-11.2 53.9-16.6 1.5-.5.9-2.9-.7-2.4-18 5.4-35.9 10.9-53.9 16.6-1.5.4-.9 2.8.7 2.4zM174 449.5c15.3-5.9 30.7-11.8 46.1-17.5 15.5-5.8 31-11.4 46.6-16.9 8.8-3.1 17.5-6.2 26.3-9.2 1.5-.5.9-2.9-.7-2.4-15.5 5.4-31 10.9-46.5 16.5s-31 11.4-46.5 17.2c-8.7 3.3-17.4 6.6-26 10-1.4.4-.8 2.9.7 2.3zm124.7-112.9c29.5-9.9 59.2-19.4 89-28.5 8.4-2.6 16.7-5.1 25.1-7.6 1.5-.5.9-2.9-.7-2.4-29.9 8.9-59.6 18.2-89.2 27.9-8.3 2.7-16.6 5.5-24.9 8.2-1.5.5-.9 2.9.7 2.4zm-149.5 53.8c16-6.2 32.1-12.2 48.2-18.2 4.6-1.7 9.1-3.3 13.7-5 1.5-.5.9-3-.7-2.4-16.1 5.9-32.2 11.9-48.3 18-4.5 1.7-9.1 3.5-13.6 5.2-1.5.6-.8 3 .7 2.4z"/><path class="st2" d="M436.1 322c1.2 5.8 3.2 11.5 4 17.3.9 6.3.1 12.5-3.2 18-.8 1.4 1.3 2.6 2.2 1.3 3.5-5.7 4.4-12.2 3.6-18.7-.8-6.3-2.9-12.3-4.2-18.5-.3-1.6-2.8-.9-2.4.6zm-23.9-21.3c4.9-2 9.5.9 12.9 4.3 3.2 3.2 5.8 7 8 11 .8 1.4 3 .1 2.2-1.3-2.5-4.3-5.4-8.6-9-12-3.9-3.7-9.3-6.6-14.8-4.4-1.4.6-.8 3 .7 2.4zM168.8 406.3c3.9 6.9 5.8 14.4 6.8 22.2.5 4.4 1.2 9 .5 13.5-.3 1.8-.8 4.5-2.8 5-1.6.4-.9 2.8.7 2.4 5-1.4 5-8.5 4.9-12.5-.1-2.5-.3-5-.6-7.4-.4-3.3-.8-6.6-1.6-9.9-1.2-5.1-3.1-9.9-5.7-14.5-.8-1.4-3-.2-2.2 1.2zM147.9 391c6.8-2.7 12.3 3.6 16.1 8.3.4.5 1.3.4 1.8 0 .5-.5.4-1.2 0-1.8-4.4-5.4-10.9-12.1-18.5-9-.6.3-1.1.8-.9 1.5.1.8.9 1.3 1.5 1z"/><path class="st2" d="M153.4 434.1c-4.3-6.7-6.6-14.4-7.9-22.2-.4-2.6-.7-5.2-1-7.8-.3-2.4-.5-4.8-.3-7.1s1-4.9 3.3-5.7c1.5-.5.9-2.9-.7-2.4-5.4 1.8-5.5 8.4-5.1 13.2.6 6.8 1.5 13.6 3.5 20.1 1.4 4.7 3.4 9.2 6 13.3.9 1.2 3.1 0 2.2-1.4zm19.6 13.1c-5.8 2.4-10.7-2.2-14.2-6.2-1.1-1.2-2.8.6-1.8 1.8 4.2 4.6 10.1 9.6 16.7 6.9.6-.3 1.1-.8.9-1.5-.2-.7-1-1.3-1.6-1zm-8.7-48.9c1.6.3 2.6 1.4 4.3.8.8-.3 1.5-.8 2.3-1.1 1-.3 2.1 0 3.1 0 1.9.1 3.7-.8 5.4-1.5l6-2.4c.7-.3.4-1.5-.3-1.2-1.9.8-3.7 1.5-5.6 2.3-1.7.7-3.5 1.6-5.4 1.6-1.8-.1-3.1-.2-4.8.6-.8.4-1.5.8-2.5.5-.8-.2-1.4-.7-2.2-.8-.8-.2-1.1 1-.3 1.2z"/><path class="st2" d="M169.1 405.2c1-1.4 2-2.9 3.3-4.1.6-.6 1.4-.8 2.2-1.1.8-.3 1.5-.8 2.1-1.3.3-.2.4-.5.2-.9-.2-.3-.6-.4-.9-.2-.7.5-1.4 1-2.2 1.3-.8.4-1.7.6-2.3 1.3-1.3 1.3-2.5 2.8-3.5 4.4-.5.6.6 1.2 1.1.6zm-17.1 31c1.4.2 2.9 0 4.3-.4 1.5-.3 3-.7 4.4-1.3 2.4-1 4.1-3.3 6.6-4.1.5-.1.3-.9-.2-.7-2.4.7-3.9 2.9-6.2 3.9-1.3.6-2.8 1-4.2 1.3-1.5.4-3 .7-4.6.5-.6-.1-.6.7-.1.8z"/><path class="st2" d="M157 442.2c.3-1.2.5-2.5 1.4-3.4.4-.4 1-.6 1.3-1.1.4-.5.3-1.1.5-1.7.2-.6 1-.9 1.5-1.2.6-.3 1.1-.7 1.7-1 1.1-.8 2-1.7 2.9-2.7.3-.4-.2-.9-.5-.5-.9 1.1-1.9 2.1-3.1 2.9-.6.4-1.2.7-1.8 1.1-.5.3-1 .6-1.2 1.1-.3.6-.1 1.3-.6 1.8-.5.4-1 .7-1.4 1.2-.8 1-1.1 2.2-1.3 3.4-.3.3.4.5.6.1zm277.2-126.5c-2 .5-2.7 2.3-4.2 3.4-1.9 1.4-4.4 1.7-6.5 2.8-2.3 1.2-4.3 2.8-6.6 3.9-2.6 1.2-5.3 2-8 2.8-.8.2-.5 1.4.3 1.2 4.7-1 9.3-2.1 13.7-4.1 1.2-.5 2.4-1.1 3.6-1.3 1.3-.3 2.6-.2 3.9-.3 2.1-.2 4-.9 5.7-2.1.7-.5 0-1.5-.6-1.1-2.1 1.5-4.4 1.9-6.9 2.1-2.2.1-4 .6-6 1.5-4.4 2-9.1 3.1-13.8 4.1l.3 1.2c2.5-.7 5-1.5 7.4-2.5 2.4-1 4.5-2.6 6.8-3.9 2-1.2 4.4-1.6 6.4-2.7 1.8-1 2.8-3.3 4.7-3.8 1-.2.6-1.4-.2-1.2zm-217.6 98.4c13.7-6.6 27.5-13.3 42.3-17.2 4.2-1.1 8.5-2 12.9-2.6.3 0 .2-.5-.1-.5-15.2 2.1-29.4 7.7-43.2 14.1-4 1.9-8 3.8-12 5.8-.5.1-.2.5.1.4zm22.2-7.1c6.4 0 12.4-2.4 18.3-4.7 6.5-2.5 13-5 19.4-7.5.3-.1.2-.6-.1-.5-6.3 2.4-12.6 4.9-19 7.3-6 2.3-12.1 4.9-18.6 4.8-.3.1-.3.6 0 .6zm75.4-62.6c12.4 1.4 23.7-4.8 34.7-9.5.3-.1 0-.6-.3-.4-11 4.7-22.1 10.8-34.5 9.5-.2-.1-.2.4.1.4zm6.1 3.7c5.9-.2 11.3-2.6 16.8-4.4.3-.1.2-.6-.1-.5-5.5 1.8-10.9 4.2-16.7 4.4-.3 0-.3.5 0 .5zm36.2 16.7c15-1.6 30-5.5 43.5-12.3.3-.1 0-.6-.3-.4-13.5 6.8-28.3 10.7-43.3 12.2-.2 0-.2.5.1.5zm17.1-6.4c4.4-.5 8.7-1.8 12.4-4.1 2.2-1.4 4.1-2.8 6.5-3.8 2.2-.9 4.5-1.5 6.7-2.1.3-.1.2-.6-.1-.5-2.3.6-4.5 1.2-6.7 2.1-2 .8-3.7 1.9-5.5 3.1-4 2.7-8.5 4.3-13.3 4.8-.4 0-.4.5 0 .5zm-223 39.5c6.5-.2 10 6 12.2 11.1 2.4 5.6 4.1 11.6 5.1 17.7 0 .3.5.2.5-.1-1-6.6-2.9-13-5.7-19-2.3-5-6-10.3-12.1-10.1-.3 0-.3.5 0 .4zm8.7 31c-1.5-1.4-1.9-3.4-2.4-5.3s-1-3.9-1.5-5.9c-.9-4.1-2.2-8.7-1.5-12.9.1-.3-.4-.4-.5-.1-.8 4.3.5 9 1.5 13.2.5 2.3 1.1 4.5 1.7 6.8.5 1.7 1 3.4 2.3 4.6.3.2.7-.2.4-.4zm0-14.1c2.3 2.8.5 7 2.9 9.8.2.2.6-.1.4-.4-1.2-1.4-1.3-3.3-1.5-5.1-.1-1.7-.4-3.4-1.5-4.7-.1-.2-.5.2-.3.4zm6 25.1c.3.4.6.8.8 1.2.2.3.5.8.8 1 .6.4 1.5.3 2.2 0 1.5-.8 1.8-2.6 1.4-4.1-.1-.3-.6-.2-.5.1.4 1.3.2 2.8-1.1 3.5-.5.3-1.3.4-1.8 0-.3-.3-.5-.6-.7-.9-.2-.3-.5-.7-.7-1-.2-.3-.6-.1-.4.2z"/><path class="st2" d="M438.9 397.1c-16.7-6.9-33.4-14-50-21.2-16.6-7.2-33.1-14.5-49.6-22s-32.9-15-49.3-22.7c-16.4-7.7-32.7-15.5-49-23.5-16.2-7.9-32.4-16-48.5-24.2-2-1-4.1-2.1-6.1-3.1-1.4-.7-2.7 1.4-1.3 2.2 16.2 8.3 32.5 16.4 48.9 24.5 16.3 8 32.6 15.9 49 23.6 16.4 7.8 33 15.4 49.5 22.9 16.5 7.5 33.2 14.9 49.8 22.1 16.5 7.2 33.1 14.3 49.7 21.2 2.1.9 4.2 1.8 6.3 2.6 1.4.6 2-1.8.6-2.4zm-25.6 58.8c-16.7-6.9-33.3-14-49.9-21.2-16.5-7.2-33-14.5-49.4-21.9-16.4-7.4-32.8-15-49.2-22.7-16.3-7.7-32.6-15.5-48.8-23.5-16.2-7.9-32.3-16-48.3-24.2-2-1-4.1-2.1-6.1-3.1-1.4-.7-2.7 1.4-1.3 2.2 16.2 8.3 32.4 16.4 48.7 24.5 16.2 8 32.5 15.9 48.8 23.6 16.4 7.8 32.8 15.4 49.3 22.9 16.5 7.5 33 14.9 49.6 22.1 16.5 7.2 33 14.2 49.5 21.2 2.1.9 4.2 1.8 6.3 2.6 1.6.5 2.2-1.9.8-2.5z"/><path class="st2" d="M160.8 308c3.4-5 6.2-10.4 9.9-15.1 4-5.1 9-8.8 15.3-10.4 1.6-.4.9-2.8-.7-2.4-6.6 1.6-12 5.5-16.2 10.8-4 5-6.9 10.6-10.5 15.9-.9 1.3 1.3 2.5 2.2 1.2zm1 31.2c-4.8-1.9-5.8-7.3-5.7-11.9.1-4.4 1.1-8.8 2.3-13.1.5-1.5-2-2.2-2.4-.7-2.6 8.7-5.7 23.7 5.1 28.1 1.5.6 2.1-1.8.7-2.4zm249.5 92.1c2.2-7.4 6.2-14 11.1-20 2.9-3.6 5.8-7.3 9.6-10.1 1.5-1.1 3.9-2.8 5.9-1.8 1.4.8 2.7-1.4 1.3-2.2-4.7-2.5-10 2.8-12.9 5.9-4.1 4.3-8 9.1-11.2 14.1-2.6 4.2-4.7 8.7-6.1 13.4-.6 1.6 1.9 2.3 2.3.7zm3.3 25c-6.6-2.6-5.7-11.1-5-16.8.1-.7-.6-1.2-1.3-1.3-.7 0-1.2.6-1.3 1.3-.9 7.1-1 16.1 6.9 19.2 1.6.6 2.2-1.8.7-2.4z"/><path class="st2" d="M442.5 422.2c-1.8 7.2-5.2 13.7-9.5 19.6-1.7 2.4-3.6 4.6-5.4 6.9-1.6 2-3.2 3.9-5.1 5.6-1.9 1.6-4.6 3.5-7.2 2.3-1.5-.7-2.7 1.5-1.3 2.2 5.5 2.5 10.6-2.7 13.9-6.6 4.4-5.2 8.8-10.7 12.1-16.7 2.2-4 3.9-8.2 5-12.6.3-1.6-2.1-2.3-2.5-.7zm-4-22.5c5.6 2.2 5.6 9 5.2 14-.1 1.6 2.4 1.6 2.5 0 .2-3 .3-6.1-.5-9-.9-3.5-3.2-6.1-6.5-7.4-.6-.2-1.4.3-1.5.9-.2.6.2 1.2.8 1.5zm-29.8 40.4c-.5-.7-.6-1.5-1-2.3-.4-.6-.9-1-1.6-1.3-.8-.3-1.7-.4-2.5-.9s-1.3-1.3-1.9-1.9c-1.3-1.4-3.1-2-4.8-2.7-2.1-.8-4.2-1.7-6.3-2.5-.7-.3-1.1.9-.3 1.2 1.9.8 3.8 1.5 5.7 2.3 1.8.7 3.7 1.3 5.1 2.8 1.1 1.2 1.9 2.1 3.5 2.6.8.2 1.6.4 2.1 1.1.4.7.6 1.6 1 2.3.4.6 1.4 0 1-.7z"/><path class="st2" d="M410.3 432c-1.7.4-3.6.7-5.3.6-.8 0-1.6-.4-2.4-.7-.8-.3-1.7-.5-2.6-.6-.8-.1-.8 1.2 0 1.3.9.1 1.8.3 2.6.7.8.3 1.6.6 2.6.6 1.8 0 3.7-.3 5.5-.7.7-.2.4-1.4-.4-1.2zm34.7-10.3c-.8-1-1.8-1.8-2.9-2.4-1.2-.7-2.5-1.5-3.8-2.1-1.2-.5-2.4-.8-3.7-1-1.6-.2-3.1-.2-4.6-.9-.4-.2-.8.4-.4.6 2.5 1.2 5.3.7 7.8 1.7 1.4.5 2.6 1.3 3.9 2.1 1.2.7 2.2 1.4 3.1 2.5.4.4.9-.1.6-.5z"/><path class="st2" d="M445.9 414.1c-1.1.7-2.4 1.5-3.8 1.4-.5 0-1-.2-1.6-.1-.5.1-.8.5-1.2.7-.7.4-1.4.1-2.1-.1-.6-.2-1.3-.3-1.9-.4-1.3-.2-2.7-.2-4 0-.5.1-.5.8 0 .8 1.6-.2 3.1-.1 4.7.2 1.1.2 2.4.9 3.4.5.6-.2 1-.9 1.8-.8.6 0 1.1.2 1.7.1 1.3-.2 2.4-.9 3.4-1.5.4-.4 0-1.1-.4-.8zM157.4 313.7c2.1 1.1 4.3 0 6.4.7 2.3.7 4.4 2 6.7 2.6 2.3.5 4.6.9 6.9 1.7 2.5.9 4.9 2.1 7.3 3.4.7.4 1.3-.7.6-1.1-4.1-2.5-8.3-4.9-12.9-6.6-1.2-.4-2.4-.9-3.5-1.6-1-.7-1.8-1.5-2.7-2.2-1.7-1.3-3.6-2.2-5.7-2.5-.8-.1-1.1 1.1-.3 1.2 2.4.4 4.4 1.5 6.3 3.1 1.6 1.4 3.2 2.3 5.2 3.1 4.6 1.7 8.8 4.1 13 6.6.2-.4.4-.7.6-1.1-2.1-1.1-4.3-2.2-6.5-3.1-2.3-.9-4.7-1.4-7.1-1.9-2.4-.5-4.4-1.5-6.6-2.4-1-.4-2.1-.7-3.2-.6-1.3 0-2.7.4-3.9-.3-.6-.4-1.3.6-.6 1zm225.9 79.5c-3.5-2-7.2-3.7-11-4.8-3.8-1.1-7.7-1.7-11.5-2.8-4-1.2-7.3-3.2-10.8-5.5-3.4-2.3-6.9-4.4-10.6-6.3-4-2.1-8.1-3.9-12.3-5.4-.3-.1-.4.4-.1.5 7.7 2.8 15 6.5 21.8 11 3.2 2.1 6.3 4.3 10 5.6 3.7 1.3 7.5 1.9 11.3 2.8 4.6 1.1 9 2.9 13 5.3.2.1.5-.3.2-.4zm-20.9-10.3c-4.3-4.2-9.8-6.5-15.3-8.8-6.8-2.8-13.6-5.7-20.4-8.5-.3-.1-.4.4-.1.5l19.5 8.1c5.7 2.4 11.5 4.7 16 9 .1.3.5-.1.3-.3zm-66.6 5.8c-4.5-2.3-8.9-4.7-13.4-7-1.9-1-3.9-2-6-2.6-2.2-.7-4.5-.8-6.7-1.2-4.4-.9-7.1-4-10.5-6.5-3.7-2.8-8.1-4.5-12.3-6.3-5-2.2-10-4.4-15.1-6.5-.3-.1-.4.4-.1.5 4.6 1.9 9.2 3.9 13.8 5.9 4.2 1.8 8.6 3.5 12.3 6.1 3.2 2.2 5.8 5.4 9.6 6.8 2.1.8 4.3.9 6.5 1.2 2.4.4 4.6 1.3 6.8 2.4 5 2.5 9.9 5.2 14.9 7.8.2 0 .5-.5.2-.6zm-25.6-14.6c-2-.9-4-1.9-5.8-3.2-1.8-1.3-3.4-2.9-5.3-4.2-1.8-1.3-3.9-2.2-5.9-3.2-2.2-1.1-4.5-2.1-6.7-3.2-.3-.1-.5.3-.3.4 2.2 1 4.3 2.1 6.5 3.1 2.1 1 4.2 1.9 6.1 3.3 1.8 1.3 3.3 2.8 5.1 4.1 1.9 1.3 3.9 2.4 6 3.3.3.2.6-.2.3-.4zm-15.8-39.2c-6.5-2.8-13.3-5.7-18.5-10.8-2.5-2.4-4.6-5-7.8-6.6-2.8-1.4-5.8-2.1-8.8-2.8-3.7-.9-7.4-1.7-10.8-3.6-.3-.2-.5.3-.3.4 5.6 3.1 12.2 3.3 18.1 5.7 1.7.7 3.3 1.6 4.7 2.7 1.5 1.2 2.7 2.7 4 4 2.4 2.4 5.1 4.4 8.1 6.1 3.5 2 7.2 3.6 10.9 5.2.4.3.7-.2.4-.3zm-22.8-9.9c-3.4-2.7-7.3-4.6-11.6-5.5-2.3-.5-4.7-.7-6.9-1.6-2.4-.9-4.7-2.1-6.9-3.4-.3-.2-.5.3-.3.4 1.9 1 3.8 2.1 5.8 2.9 2.2.9 4.5 1.4 6.9 1.8 4.6.8 9 2.7 12.7 5.6.2.4.5 0 .3-.2zm186.5 124.7c-5-4.5-2.5-11.7-.2-16.9 2.4-5.4 5.4-10.5 9-15.2.2-.3-.2-.5-.4-.3-4 5.2-7.3 10.9-9.7 16.9-2.1 5.1-3.6 11.7 1 15.9.1.1.5-.2.3-.4zm16.4-27.9c0 2.2-1.4 4.1-2.5 5.9-1.1 1.8-2.2 3.6-3.4 5.4-2.2 3.3-4.5 7.1-7.9 9.4-.3.2 0 .6.3.4 3.5-2.3 5.8-6.2 8.1-9.6 1.3-1.9 2.5-3.9 3.7-5.9 1-1.8 2.3-3.6 2.2-5.7 0-.2-.5-.2-.5.1zm-10.3 10c.2-1.8 1.6-3.2 2.7-4.5 1.1-1.3 2.2-2.6 2.4-4.4 0-.3-.5-.3-.5 0-.1 1.8-1.5 3.2-2.7 4.5-1.1 1.3-2.3 2.6-2.4 4.4 0 .3.5.3.5 0zm14.1-21.8c.1-.5.2-1 .3-1.6.1-.4.2-.9.1-1.3-.2-.7-.9-1.2-1.6-1.3-1.6-.4-3.1.6-3.8 2-.2.3.3.5.4.3.6-1.1 1.8-2.1 3.2-1.8.6.1 1.2.5 1.4 1.1.1.4-.1.9-.2 1.3s-.2.8-.2 1.3c-.1.2.4.3.4 0z"/><path d="M411.3 217.1c3.5 33.2-5.9 66.6-26.4 94.1-5.1 6.8-10.9 13.4-18 18.8-21.3 16.4-52.3 21.7-82.1 24.3-27.6-8.7-55.7-20.3-72.4-40.7-5.6-6.8-9.7-14.4-13.1-22.1-13.7-31.1-15.7-65.5-5.6-97.2l.2 1c6.9 7.5 15.2 13.8 24.3 18.5l1.1.9c-3.3-8.6-3.5-18.1-2.3-27.2 3.5-26 18.4-49.5 37.4-68.3s41.9-33.7 64.8-48.3l1.7-.9c19 19.3 38.1 38.9 52.4 61.5 14.3 22.6 23.6 48.9 21.3 75-.8 9.1-3.1 18.3-8.3 26l-.9.9c10-4.2 19-10.8 25.9-19.1" fill="#e8511d"/><path d="M270.5 260.4c-2.5-6-3.7-13-4.2-20-1.4-19.8 2.5-39.2 8.7-55.7s14.7-30.4 23.2-44.2l.6.2c2.7 4.7 4.7 10.3 6.5 15.8 4.2 12.6 8 25.5 11.5 38.5 1.2 4.5 2.3 8.9 3.1 13.6 1.1 6.1 1.5 12.4 2 18.7.9 12.8 1.8 26-.7 37.8l.1 1.2c15.5-14.3 36.8-17.6 49.5-36.1l1.2.8c.9 17.4-4.5 34.1-12.8 47.1s-19.1 22.6-30.2 31.2c-6.2 4.8-12.6 9.4-17.4 16.5-3.1 4.6-5.4 10-8.5 14.7l-1.7-.6c-3.9-16.2-15.3-27.3-26.3-36.4-11-9.1-22.9-18.1-29.4-33-3.5-8.2-5.1-17.4-6.3-26.6l.6-1.4c1.6-.3 2.9 1.8 4 3.5 3.3 5.2 8 8.7 12.7 11.1 4.8 2.5 9.7 4.1 14.5 6.6" fill="#ffce00"/><path class="st2" d="M239.9 246.2c.7 8.6 1.6 17.3 4.4 25.5 2.5 7.4 6.5 14 11.5 19.9 9.3 11.1 21.5 19.3 30.3 30.8 5.3 6.8 9.2 14.6 10.8 23.1.3 1.6 2.7.9 2.4-.7-2.8-14.8-12.3-26.6-23-36.7-10.7-10.1-22.3-19.6-28.2-33.4-3.8-9-4.9-18.9-5.7-28.6-.2-1.5-2.7-1.5-2.5.1z"/><path class="st2" d="M300.8 346.6c2.7-3.7 4.9-7.8 7.4-11.7 2.5-3.7 5.5-7 8.9-9.9 3.3-2.8 6.9-5.2 10.5-7.6 3.5-2.4 6.9-4.9 10.2-7.5 13.7-10.8 25.2-24.1 31.7-40.4 3.7-9.3 5.7-19.3 5.8-29.3 0-1.6-2.5-1.6-2.5 0 0 17.4-6.3 34.5-16.9 48.3-5.3 7-11.7 13.1-18.6 18.6-6.6 5.3-13.8 9.7-20.4 14.9-3.8 3-7.2 6.3-9.9 10.2-3 4.3-5.4 8.9-8.4 13.1-.9 1.3 1.3 2.6 2.2 1.3zm-59-100.5c1.2-.1 2 1.8 2.4 2.6.8 1.4 1.6 2.7 2.5 3.9 1.9 2.4 4.1 4.5 6.5 6.3 5.5 4.1 12 6.4 17.9 9.8 1.4.8 2.7-1.4 1.3-2.2-6.1-3.5-13-5.9-18.6-10.4-2.6-2-4.8-4.4-6.6-7.2-1.3-2.1-2.6-5.6-5.5-5.4-1.5.2-1.5 2.7.1 2.6z"/><path class="st2" d="M371.9 238.8c-10.1 13.1-25.9 18-39.8 25.7-4 2.2-7.8 4.7-11.3 7.6-1.2 1 .5 2.8 1.8 1.8 12.5-10.3 28.8-14.1 41.6-24 3.7-2.8 7-6.1 9.8-9.8 1.1-1.4-1.1-2.6-2.1-1.3zM272.5 264c-2.8-8-3.3-16.6-3.1-25 .2-8.4 1.3-16.7 3.2-24.8 3.7-15.9 10.4-30.8 18.7-44.8 4.6-7.8 9.8-15.2 14.9-22.7.9-1.3-1.3-2.6-2.2-1.3-9.4 13.7-18.7 27.6-25.4 42.9-6.6 15.1-10.8 31.3-11.6 47.9-.5 9.5-.1 19.4 3.1 28.4.6 1.6 3 1 2.4-.6z"/><path class="st2" d="M304.7 147c3.6 7.2 5.5 15.3 7.5 23 2.1 8.1 4.1 16.3 6 24.5 1.8 8.3 3.7 16.6 4.4 25.1.6 8.2.7 16.6.7 24.8 0 9.1-.4 18.2-2.8 27.1-.4 1.6 2 2.2 2.4.7 2.1-7.9 2.7-16.1 2.8-24.2.1-8.5 0-17-.5-25.5-.5-8.6-2.1-16.9-4-25.3-1.8-8.4-3.8-16.7-6-25-2.3-8.9-4.3-18.2-8.5-26.4-.6-1.5-2.8-.3-2 1.2zm-78.9 66.6c-5-11.2-4.6-24.1-2.4-35.8 2.1-11.3 6.4-22.1 11.9-32.2 11.7-21.3 29.1-38.7 47.8-54 10.9-8.9 22.4-17.2 33.8-25.5 1.3-.9 0-3.1-1.3-2.2-20.8 15-41.8 30.3-59.5 49.1-16.1 17.2-29.5 38-34.7 61.2-2.9 13.3-3.6 27.9 2.1 40.6.8 1.5 3 .2 2.3-1.2z"/><path class="st2" d="M393.4 223.1c6.2-10.5 7.6-23.2 6.9-35.2-.7-12-3.6-23.8-8.2-34.9-9.4-23.1-25-42.9-42.3-60.6-9.9-10.2-20.5-19.8-31-29.3-1.2-1.1-3 .7-1.8 1.8 18.3 16.6 36.8 33.4 51.8 53.1 14.4 18.8 25.8 41 28.5 64.8 1.5 13.1.7 27.4-6.1 39-.8 1.5 1.4 2.7 2.2 1.3z"/><path class="st2" d="M392.1 224.5c10-4.9 18.6-12.1 25.3-21 1-1.3-1.2-2.5-2.2-1.3-6.4 8.6-14.8 15.5-24.4 20.1-1.4.8-.1 3 1.3 2.2zm-167.9-12.2c-9.3-4.1-17.7-9.8-25-16.9-1.2-1.1-2.9.6-1.8 1.8 7.4 7.2 16.1 13.1 25.5 17.3 1.5.6 2.8-1.5 1.3-2.2z"/><path class="st2" d="M196.9 195c-7.1 27.7-5.2 57.2 5.1 83.9 5.1 13.2 11.9 26.2 21.7 36.5 8.8 9.2 19.8 16 31.2 21.3 13.7 6.4 28.3 10.7 42.9 14.5 1.6.4 2.2-2 .7-2.4-12.8-3.3-25.6-7-37.8-12.2-11.5-4.9-22.7-11.1-31.9-19.7-10.2-9.4-17.3-21.6-22.6-34.3-5.4-12.8-8.9-26.4-10.3-40.2-1.5-15.6-.3-31.4 3.5-46.6.3-1.7-2.1-2.3-2.5-.8z"/><path class="st2" d="M415.4 206.1c4.4 27.7-.4 56.4-13.2 81.3-6.4 12.4-14.5 24.5-25.3 33.5-10 8.3-22 13.9-34.2 18-14.6 4.8-29.7 7.6-44.9 9.8-1.6.2-.9 2.6.7 2.4 13.9-2 27.9-4.6 41.4-8.7 12.6-3.9 25-9.2 35.6-17.2 11.3-8.5 19.8-20.1 26.7-32.4 7-12.5 12-26.1 14.8-40.1 3.1-15.6 3.4-31.6.9-47.3-.4-1.6-2.8-.9-2.5.7z"/></svg>