<svg version="1.1" id="Camada_1" xmlns="http://www.w3.org/2000/svg" x="0" y="0" viewBox="0 0 841.9 700.9" xml:space="preserve"><style>.st0{fill:#fff}.st2{fill:#f2ab43}.st3{font-family:&apos;Collegium&apos;}.st4{font-size:276.2509px}.st5{letter-spacing:-7.4}</style><path class="st0" d="M6.8 453.6c4.6-.2 9.3-.5 13.9-.6 229.5-2.2 459.1-2.2 688.6-1 39 .2 78.1.6 117.1 1 4.4 0 8.9.4 13.3.6.4.2.5.5.4.7-.1.2-.3.3-.4.3-52.6.5-105.2 1-157.8 1.4-200.1 1.4-400.3.7-600.4-.5-24.9-.1-49.8-.6-74.7-.9-.4-.2-.5-.5-.4-.7.1-.2.2-.3.4-.3zm584.8-224.9c.7-13.3-2-26-7.1-38.1-8.3-19.6-21.8-32.7-45.4-31.5-5.9.3-11.8.2-17.7 0-3.5-.2-4.5.9-4.5 4.4.2 12.2.3 24.3 0 36.5-.6 24.7-15 46.1-44.9 46.3-26.3.1-52.6.2-78.9.2-10.3 0-20.3 1.6-29.3 7-14.8 8.7-19.5 22.5-19.5 38.6-.1 24.1-.1 48.3 0 72.4 0 8.9 3.1 16.8 9.4 23.2 9.7 9.9 22.2 14.1 35.2 16.9 21.6 4.7 43.4 4 65.1 1.9 10.9-1 21.5-3.4 31.4-8.3 13.3-6.6 22.1-15.9 20.8-32.2-.7-9.2-.4-18.6 0-27.9.1-4.2-1-5.4-5.3-5.3-24 .2-47.9-.1-71.9.2-5.5.1-4.3-3.1-4.4-6.2-.1-3-.7-5.7 4.3-5.6 19.1.3 38.3.1 57.4.1v-.3c19 0 37.9.1 56.9 0 9.2-.1 17.4-3.4 24.6-9.2 12.8-10.1 18.6-24.1 21.8-39.4 3.4-14.4 1.2-29.1 2-43.7zM471.3 353.2c7.9 0 14.6 6.6 14.7 14.6.1 7.8-6.6 14.5-14.6 14.5-8.2 0-14.7-6.4-14.6-14.5 0-8.2 6.4-14.6 14.5-14.6z"/><path class="st0" d="M488.8 88.3c-3.3-2.2-6.6-.4-9.8.3-18.7 4.1-37.6 6.7-56.8 7.6-20.3 1-40.4-.2-59.8-7-2-.7-4.1-1.5-6 .4-8.8 6.4-12.5 15.2-12.1 26 .3 9.5.4 19-.1 28.4-.2 4.8 1.2 5.9 5.9 5.9 23.6-.3 47.2-.1 70.8-.1 1.5 0 4.1-.8 4.4.8.6 3.1.8 6.5.1 9.5-.5 2.3-3.4 1.1-5.2 1.1-35.2.1-70.5.3-105.7 0-24-.2-39.8 11.2-48.9 33-5.3 12.7-7.1 26.2-7.6 39.8-.7 21.4.4 42.7 9.9 62.4 8.4 17.4 21.3 28.4 42 27.3 6.2-.3 12.5-.3 18.8 0 3.7.2 4.8-.9 4.8-4.7-.2-12.7-.4-25.4.1-38.1.7-14.5 5.9-27.1 18-36.2 9.2-6.9 19.9-8.4 31-8.4 26.3 0 52.6.2 78.9-.1 28.2-.4 44.7-17.6 44.7-45.8 0-21.8-.5-43.6.2-65.4.6-15.7-4.8-27.8-17.6-36.7zm-109.5 41.5c-7.7 0-14.6-6.8-14.6-14.7-.1-7.9 6.7-14.5 14.8-14.5 8.1 0 14.6 6.4 14.6 14.6 0 7.7-7 14.6-14.8 14.6z"/><path d="M394.6 11.7c3.2-.4 6.5-.3 9.7.1 7.4-.8 12.2 3.9 17.3 8 7 5.5 12.1 12.6 16.8 20 .8 1.2 1.4 2.5 1.8 3.9.7 2.2.8 4.3-1.3 5.8-1.8 1.4-3.8.8-5.5-.2-3.2-1.9-6.3-4-9.9-5.4-19.6-7.8-38.2-2.9-51.2 13.7-2 2.6-6 5.4-4.9 8.4 1.1 2.9 5.8 1.1 8.9 1.5 22.3 2.5 44.2-.7 66-4.4 13.6-2.3 26.8-6 40.1-9.5 1.6-.4 3.1-.9 4.7.1L531.8 42c2.7-.9 5.4-1.8 8.2-2.2 2.6-.4 5.6-.7 6.7 2.7 1 3.1-.1 5.6-2.9 7.4-1.8 1.2-3.7 2.1-5.8 2.8-30.6 10.4-60.6 22.3-92.2 29.9-22.9 5.5-46.1 8.7-69.5 6.9-29-2.3-52.2-14.9-67-40.9-2.9-5.1-1.8-7.7 3.3-8.6 8.8 12.9 20.5 21.5 36 25.1 4.2 1 6 .6 7.4-3.7 2.7-8.9 6.3-17.5 10.5-25.7 6.3-12 15.8-19.6 28.1-24z" fill="#f08228"/><path class="st2" d="M312.9 39.9c-4.2 2-4.3 4.3-1.9 8.3 16.3 27.5 41.2 38.9 72.2 40 31.1 1.2 60.9-5.7 90.2-14.9 21.4-6.7 42.5-14.5 63.7-21.8 2.5-.9 4.9-2.2 7.2-3.5 2.1-1.2 1.8-3.4 1.5-5.3-.4-2.3-2.3-1.7-3.8-1.9-3.4-.3-6.6 1.7-10.1 1.1 4.4-2 8.7-4 13.1-5.8 1.4-.6 3-1.9 4.5-.6 1.7 1.4.7 3.3.4 5-.2 1.2-.6 2.4-1 4.4 4-1.1 7.5-2 11-3 2-.5 4.3-2.1 5.8.3 1.4 2.1-.9 3.5-1.9 5-.8 1.2-2 2.1-2.1 4 2.5.5 5 1.1 7.5 1.5 1.3.2 2.5.6 2.8 2 .4 1.9-1.1 2.5-2.3 3.1-2.1 1-4.2 1.7-6.5 2.7 2 2.4 4.6 3.4 6.8 4.8 1.3.8 3.4 1.2 3.2 3.2-.3 2.1-2.3 2.3-4.1 2.5-9.3 1.3-18.7 2.2-28 4.2-17.6 3.8-34.9 8.3-52.2 13.1-12.4 2.3-24.8 5-37.3 6.7-31 4.1-61.9 5.8-92-5.1-1.1-.4-2-.6-3.1-.2-9.4-4.5-19.7-6.2-29.6-9-12.4-3.5-24.8-6.7-36.1-13.2-2.4-1.3-6.5-2-6.1-5.2.5-3.9 5-.9 7.6-2.6-1.5-2.3-3.1-4.6-4.5-7-.7-1.2-1.5-2.7 0-3.9 1.1-.9 2.4-.4 3.5.3 3 1.9 6 3.7 9.9 6.1-1.6-4.3-2.9-7.7-4.2-11.1-.5-1.4-1.1-2.8.4-3.8s2.7 0 3.9.7c.5.3.8.7 1.3.9 1.3.8 2.1 3 3.8 2.4 1.7-.7 1.2-2.6.9-4.3-.2-1.1.4-2.4 1.5-2.6 1.8-.4 3 1 4.1 2.5z"/><path class="st2" d="M487.2 53.7c-20.3 5.9-40.9 11.2-61.9 13.8-19.1 2.4-38.3 3.6-57.5 1.3-1.8-.2-4.8.1-2.5-3.7 7.8-12.6 17.8-22.2 32.8-25.5 12.4-2.7 23.6.7 34.1 7.2 2 1.3 4 4 6.5 1.8 2.5-2.1.5-4.7-.7-6.8-4.8-8-10.2-15.4-17.6-21.3 6.6-5.2 13.8-8.7 22.4-8.8 4-.8 8-1.5 11.9 0 12.2 4.4 18.3 14.8 24.5 25 3.3 5.4 5.4 11.3 8 17zm-33.6 15.5c-3.9 1.1-7.6 3-12.8 2.6 4.7-2.2 8.7-2.6 12.8-2.6zm-67.4 6.3h10.3v.5h-10.1c-.1-.2-.2-.3-.2-.5z"/><text transform="matrix(.94 0 0 1 -9.122 684.32)"><tspan x="0" y="0" class="st0 st3 st4 st5">CAI</tspan><tspan x="349.9" y="0" class="st3 st4 st5" fill="#d88133">PY</tspan><tspan x="622.2" y="0" class="st0 st3 st4 st5">RA</tspan></text></svg>