<?xml version="1.0" encoding="utf-8"?>
<!-- Generator: Adobe Illustrator 24.0.1, SVG Export Plug-In . SVG Version: 6.00 Build 0)  -->
<svg version="1.1" id="Camada_1" xmlns="http://www.w3.org/2000/svg" xmlns:xlink="http://www.w3.org/1999/xlink" x="0px" y="0px"
	 viewBox="0 0 1397 509" style="enable-background:new 0 0 1397 509;" xml:space="preserve">
<style type="text/css">
	.st0{opacity:0.5;}
	.st1{fill:#F4C17F;}
	.st2{fill:#FFFFFF;}
	.st3{fill:none;stroke:#FFFFFF;stroke-width:1.9999;stroke-miterlimit:9.9997;}
</style>
<title>Group 3 Copy</title>
<desc>Created with Sketch.</desc>
<g class="st0">
	<g>
		<path class="st1" d="M281.7,456c-6.2-19.6-13.6-39-22-58.3l-0.3-0.4c-6.2-0.8-12.4-1.5-18.6-2.3l-1.1,0.5
			c13.8,20.5,26.7,41.6,38.6,63.1L281.7,456z"/>
	</g>
	<g>
		<g>
			<path class="st1" d="M263.5,394.8c11.4-0.1,22.7-0.1,34.1-0.2l0.9,0.3c-7-22.2-13-44.5-18.1-67h0.8
				c-5.3,22.5-11.5,44.8-18.6,66.9"/>
		</g>
	</g>
	<g>
		<path class="st1" d="M284.2,459c5.6-21.2,12.3-42.3,20.3-63.3l1-0.2c6.5-1.2,13.1-2.1,19.7-2.8l1.8-0.8
			c-14,22.7-27,45.8-38.9,69.5"/>
	</g>
	<g>
		<g>
			<g>
				<path class="st2" d="M278.2,461.9c-9.5-18.7-19.5-37.2-30.2-55.2c-3-5.1-6.1-10.2-9.2-15.3c-0.8-1.4-3-0.1-2.2,1.3
					c11,17.9,21.5,36.1,31.3,54.7c2.8,5.2,5.5,10.5,8.1,15.8C276.8,464.6,278.9,463.3,278.2,461.9L278.2,461.9z"/>
			</g>
		</g>
		<g>
			<g>
				<path class="st2" d="M279.2,323.6c-4.6,18.7-9.8,37.2-15.6,55.5c-1.7,5.2-3.4,10.4-5.2,15.6c-0.5,1.5,1.9,2.2,2.4,0.7
					c6.2-18.2,11.9-36.7,16.8-55.4c1.4-5.2,2.7-10.5,4-15.8C282,322.7,279.6,322,279.2,323.6L279.2,323.6z"/>
			</g>
		</g>
		<g>
			<g>
				<path class="st2" d="M282.2,459.5c-4.7-16.9-10-33.7-16-50.2c-1.7-4.8-3.5-9.6-5.4-14.3c-0.6-1.5-3-0.8-2.4,0.7
					c6.4,16.5,12.1,33.1,17.2,50.1c1.4,4.8,2.8,9.6,4.1,14.4C280.2,461.8,282.6,461.1,282.2,459.5L282.2,459.5z"/>
			</g>
		</g>
		<g>
			<g>
				<path class="st2" d="M238.8,392c5.4-9.3,10.7-18.6,16.1-27.9c5.2-9,10.2-18,15.6-26.8c2.9-4.7,6-9.2,9.8-13.2
					c1.1-1.2-0.7-2.9-1.8-1.8c-6.8,7.2-11.5,15.9-16.4,24.4c-5.4,9.4-10.8,18.8-16.2,28.1c-3.1,5.3-6.1,10.6-9.2,15.9
					C235.9,392.1,238,393.4,238.8,392L238.8,392z"/>
			</g>
		</g>
		<g>
			<g>
				<path class="st2" d="M287.2,463c9-18.9,18.7-37.5,29-55.7c2.9-5.2,5.9-10.4,8.9-15.5c0.8-1.4-1.3-2.6-2.2-1.3
					c-10.6,18.1-20.7,36.5-30.1,55.2c-2.7,5.3-5.3,10.7-7.9,16C284.3,463.2,286.5,464.4,287.2,463L287.2,463z"/>
			</g>
		</g>
		<g>
			<g>
				<path class="st2" d="M278.4,324.3c5,18.6,10.7,37,17,55.1c1.8,5.2,3.6,10.3,5.5,15.5c0.6,1.5,3,0.8,2.4-0.7
					c-6.7-18.1-12.7-36.4-18.1-54.9c-1.5-5.2-3-10.4-4.4-15.7C280.3,322,277.9,322.7,278.4,324.3L278.4,324.3z"/>
			</g>
		</g>
		<g>
			<g>
				<path class="st2" d="M283.5,460.2c4.2-17,9.2-33.9,14.8-50.5c1.6-4.8,3.3-9.6,5-14.4c0.5-1.5-1.9-2.2-2.4-0.7
					c-6,16.6-11.4,33.4-16,50.4c-1.3,4.8-2.6,9.7-3.8,14.5C280.7,461.1,283.1,461.8,283.5,460.2L283.5,460.2z"/>
			</g>
		</g>
		<g>
			<g>
				<path class="st2" d="M324.9,389.7c-5.6-9.3-11.3-18.5-16.9-27.8c-5.4-8.9-10.7-18-16.4-26.8c-3-4.6-6.3-9-10.1-12.9
					c-1.1-1.1-2.9,0.6-1.8,1.8c7,7,11.9,15.8,17,24.2c5.5,9.1,11.1,18.2,16.6,27.3c3.1,5.2,6.3,10.3,9.4,15.5
					C323.6,392.3,325.8,391.1,324.9,389.7L324.9,389.7z"/>
			</g>
		</g>
		
			<ellipse transform="matrix(0.9999 -1.148269e-02 1.148269e-02 0.9999 -5.2977 3.264)" class="st3" cx="281.6" cy="463" rx="4.4" ry="1.8"/>
		<g>
			<g>
				<path class="st2" d="M238.6,392.7c6.8,1.1,13.6,2.2,20.4,3.4c1.6,0.3,2.3-2.1,0.7-2.4c-6.8-1.1-13.6-2.2-20.4-3.4
					C237.7,390.1,237,392.5,238.6,392.7L238.6,392.7z"/>
			</g>
		</g>
		<g>
			<g>
				<path class="st2" d="M260.8,396.3c13.4-0.3,26.9-0.6,40.3-0.8c1.6,0,1.6-2.5,0-2.5c-13.4,0.3-26.9,0.6-40.3,0.8
					C259.2,393.8,259.2,396.3,260.8,396.3L260.8,396.3z"/>
			</g>
		</g>
		<g>
			<g>
				<path class="st2" d="M303.4,395.9c6.3-1.2,12.6-2.1,18.9-2.8c1.6-0.2,1.6-2.7,0-2.5c-6.6,0.7-13.1,1.6-19.6,2.9
					C301.2,393.8,301.8,396.2,303.4,395.9L303.4,395.9z"/>
			</g>
		</g>
	</g>
	<g>
		<g>
			<path class="st2" d="M331.5,454.7c-1.4-4.1-3.1-8.4-3.6-12.7c-0.5-4.5,2-8.4,2.8-12.7c0.7-4,0.7-8.2-0.4-12.1
				c-1.1-4-3.1-7.7-4.6-11.6c-1.6-4.2-2.8-9.1-0.9-13.3c0.7-1.5-1.5-2.7-2.2-1.3c-3.7,8.2,1.3,16.1,4.1,23.6
				c1.6,4.2,2.2,8.6,1.6,13.1c-0.3,2.2-1,4.3-1.7,6.4c-0.7,2-1.4,4-1.4,6.2c0,2.5,0.6,5.1,1.4,7.5c0.7,2.5,1.5,5,2.4,7.5
				C329.6,456.8,332,456.2,331.5,454.7L331.5,454.7z"/>
		</g>
	</g>
	<g>
		<g>
			<path class="st2" d="M235.8,392.3c-2.6,2.4-3.8,6.1-2.9,9.6c0.9,3.6,4,6.1,6.2,8.9c5.3,6.7,2,15.8-1,22.8
				c-2.1,4.8-4.4,9.6-6.9,14.3c-0.8,1.4,1.4,2.7,2.2,1.3c2.2-4.1,4.2-8.3,6.1-12.5c1.6-3.7,3.3-7.4,4.2-11.4c0.9-3.7,1.2-7.6,0-11.3
				c-1.2-3.6-3.8-6-6.1-8.8c-1.3-1.6-2.4-3.5-2.4-5.6s0.9-4.1,2.5-5.5C238.7,393,237,391.3,235.8,392.3L235.8,392.3z"/>
		</g>
	</g>
	<g>
		<g>
			<path class="st2" d="M324.3,392.2c4.2,7.2,4.6,16.3,1.3,23.9c-0.8,1.9-1.9,3.8-3.2,5.4c-1.5,1.9-3.2,3.6-4.7,5.4
				c-2.8,3.5-4.8,7.5-5.9,11.8c-1.2,4.9-1.5,10-1.5,15c0,1.6,2.5,1.6,2.5,0c-0.1-9.3,1.1-18.8,7.5-26.1c3-3.4,5.9-6.7,7.7-11
				c1.6-3.9,2.4-8.1,2.2-12.3c-0.1-4.8-1.4-9.4-3.8-13.6C325.7,389.6,323.5,390.8,324.3,392.2L324.3,392.2z"/>
		</g>
	</g>
	<g>
		<g>
			<path class="st2" d="M237,394.3c1.6,7.9-1.8,15.7-2.9,23.4c-0.6,3.8-0.5,7.6,0.2,11.4c0.7,3.8,1.8,7.5,2.8,11.3
				c1.1,4.3,1.9,8.7,1.4,13.1c-0.2,1.6,2.3,1.6,2.5,0c0.9-7.9-2.2-15.4-3.8-23c-0.9-3.9-1.2-7.9-0.6-11.9c0.6-4,1.7-7.9,2.5-11.9
				c0.9-4.3,1.3-8.7,0.4-13.1C239.1,392,236.7,392.7,237,394.3L237,394.3z"/>
		</g>
	</g>
</g>
<g class="st0">
	<g>
		<path class="st1" d="M68.8,116.3c-3.5-11-7.6-22-12.4-32.8l-0.2-0.2c-3.5-0.4-7-0.9-10.5-1.3l-0.6,0.3c7.8,11.6,15,23.4,21.7,35.5
			L68.8,116.3z"/>
	</g>
	<g>
		<g>
			<path class="st1" d="M58.6,81.8c6.4,0,12.8-0.1,19.2-0.1l0.5,0.2C74.4,69.4,71,56.8,68.1,44.1h0.4C65.5,56.8,62,69.4,58,81.8"/>
		</g>
	</g>
	<g>
		<path class="st1" d="M70.2,118c3.1-11.9,6.9-23.8,11.4-35.7l0.6-0.1c3.7-0.7,7.4-1.2,11.1-1.6l1-0.4
			c-7.9,12.8-15.2,25.9-21.9,39.2"/>
	</g>
	<g>
		<g>
			<g>
				<path class="st2" d="M67.3,119.3c-6.8-13.5-14.2-26.7-22.2-39.7c-0.8-1.4-3-0.1-2.2,1.3c7.9,12.9,15.3,26.2,22.2,39.7
					C65.9,122,68,120.8,67.3,119.3L67.3,119.3z"/>
			</g>
		</g>
		<g>
			<g>
				<path class="st2" d="M66.9,41.6c-3.3,13.5-7.2,26.9-11.7,40.1c-0.5,1.5,1.9,2.2,2.4,0.7c4.5-13.3,8.4-26.7,11.7-40.2
					C69.7,40.7,67.3,40,66.9,41.6L66.9,41.6z"/>
			</g>
		</g>
		<g>
			<g>
				<path class="st2" d="M69.6,118.2c-3.4-12.3-7.4-24.4-12-36.3c-0.6-1.5-3-0.8-2.4,0.7c4.6,11.9,8.6,24,12,36.3
					C67.6,120.4,70.1,119.7,69.6,118.2L69.6,118.2z"/>
			</g>
		</g>
		<g>
			<g>
				<path class="st2" d="M45.2,80.5c3.8-6.7,7.7-13.3,11.5-20c3.6-6.2,6.8-12.9,11.7-18.2c1.1-1.2-0.7-2.9-1.8-1.8
					c-5,5.3-8.2,12-11.8,18.2c-3.9,6.9-7.9,13.7-11.8,20.5C42.2,80.6,44.4,81.9,45.2,80.5L45.2,80.5z"/>
			</g>
		</g>
		<g>
			<g>
				<path class="st2" d="M72.4,120.5c6.5-13.7,13.6-27.1,21.3-40.1c0.8-1.4-1.3-2.6-2.2-1.3c-7.7,13.1-14.8,26.5-21.3,40.1
					C69.5,120.7,71.7,122,72.4,120.5L72.4,120.5z"/>
			</g>
		</g>
		<g>
			<g>
				<path class="st2" d="M66.4,42.2C70,55.7,74.3,68.9,79.1,82c0.6,1.5,3,0.8,2.4-0.7c-4.8-13.1-9-26.3-12.7-39.8
					C68.4,40,66,40.7,66.4,42.2L66.4,42.2z"/>
			</g>
		</g>
		<g>
			<g>
				<path class="st2" d="M70.3,118.8c3.1-12.4,6.8-24.6,11.1-36.6c0.5-1.5-1.9-2.2-2.4-0.7c-4.3,12-8.1,24.2-11.1,36.6
					C67.5,119.7,69.9,120.4,70.3,118.8L70.3,118.8z"/>
			</g>
		</g>
		<g>
			<g>
				<path class="st2" d="M93.6,78.7c-4.1-6.7-8.2-13.4-12.3-20.2c-3.7-6.2-7.2-12.8-12.3-18c-1.1-1.1-2.9,0.6-1.8,1.8
					c5,5.1,8.4,11.8,12.1,17.9c4,6.6,8,13.2,12,19.7C92.3,81.3,94.4,80.1,93.6,78.7L93.6,78.7z"/>
			</g>
		</g>
		
			<ellipse transform="matrix(0.9999 -1.150736e-02 1.150736e-02 0.9999 -1.3798 0.7985)" class="st3" cx="68.7" cy="120.3" rx="2.5" ry="1"/>
		<g>
			<g>
				<path class="st2" d="M44.4,81.2c3.8,0.6,7.6,1.3,11.5,1.9c0.7,0.1,1.3-0.2,1.5-0.9c0.2-0.6-0.2-1.4-0.9-1.5
					c-3.8-0.6-7.6-1.3-11.5-1.9c-0.7-0.1-1.3,0.2-1.5,0.9C43.4,80.3,43.8,81.1,44.4,81.2L44.4,81.2z"/>
			</g>
		</g>
		<g>
			<g>
				<path class="st2" d="M57,83.2c7.6-0.2,15.1-0.3,22.7-0.5c1.6,0,1.6-2.5,0-2.5c-7.6,0.2-15.1,0.3-22.7,0.5
					C55.4,80.7,55.4,83.2,57,83.2L57,83.2z"/>
			</g>
		</g>
		<g>
			<g>
				<path class="st2" d="M81.2,83c3.5-0.7,7-1.2,10.5-1.5c0.7-0.1,1.3-0.5,1.3-1.3c0-0.6-0.6-1.3-1.3-1.3c-3.7,0.4-7.5,0.9-11.2,1.6
					c-0.7,0.1-1,0.9-0.9,1.5C79.8,82.8,80.5,83.1,81.2,83L81.2,83z"/>
			</g>
		</g>
	</g>
	<g>
		<g>
			<path class="st2" d="M97.3,115.4c-0.5-1.5-1-3-1.4-4.5c-0.4-1.5-0.8-3-0.5-4.6c0.3-1.5,1-2.8,1.3-4.3s0.5-3,0.4-4.5
				c-0.1-2.9-1.3-5.5-2.4-8.2c-1.1-2.6-2.4-5.8-1.2-8.7c0.6-1.5-1.5-2.7-2.2-1.3c-1.2,2.8-0.9,5.8,0.1,8.7c1.1,3,2.8,5.8,3.1,9
				c0.1,1.6,0,3.2-0.4,4.7c-0.4,1.6-1.1,3-1.4,4.6c-0.4,3.2,1,6.6,2,9.6C95.4,117.6,97.8,116.9,97.3,115.4L97.3,115.4z"/>
		</g>
	</g>
	<g>
		<g>
			<path class="st2" d="M42.6,80.1c-1.9,1.8-2.5,4.6-1.4,6.9c1.2,2.5,3.8,4,4.5,6.8c0.7,2.8-0.4,5.8-1.4,8.4
				c-1.3,3.2-2.8,6.2-4.4,9.2c-0.7,1.4,1.4,2.7,2.2,1.3c1.5-2.9,2.9-5.8,4.2-8.8c1.1-2.6,2.1-5.3,2.1-8.1c0.1-2.7-1-5-2.7-7
				c-0.9-1-1.9-2-2.3-3.2c-0.4-1.4,0.1-2.7,1.1-3.7C45.5,80.7,43.8,79,42.6,80.1L42.6,80.1z"/>
		</g>
	</g>
	<g>
		<g>
			<path class="st2" d="M92.3,80.6c3.1,5.4,2.3,12.2-1.8,16.9c-2.1,2.4-4,4.7-5,7.9c-1,3.1-1.2,6.4-1.1,9.7c0,1.6,2.5,1.6,2.5,0
				c0-3.4,0.2-6.8,1.4-10c1.3-3.3,4.1-5.4,5.9-8.3c3.3-5.2,3.3-12.1,0.3-17.4C93.7,78,91.5,79.2,92.3,80.6L92.3,80.6z"/>
		</g>
	</g>
	<g>
		<g>
			<path class="st2" d="M43.1,81.7c1.2,5.6-2.1,11.1-1.8,16.7c0.2,5.6,3.2,10.8,2.6,16.5c-0.2,1.6,2.3,1.6,2.5,0
				c0.6-5.9-2.5-11.1-2.7-16.9c-0.1-5.8,3-11.2,1.8-17C45.2,79.4,42.8,80.1,43.1,81.7L43.1,81.7z"/>
		</g>
	</g>
</g>
<g class="st0">
	<g>
		<path class="st1" d="M1084,218.5c-5.3-17.1-11.7-34.1-18.8-51l-0.3-0.4c-5.3-0.7-10.7-1.3-16-2l-1,0.4
			c11.8,18,22.9,36.4,33.1,55.2L1084,218.5z"/>
	</g>
	<g>
		<g>
			<path class="st1" d="M1068.3,165c9.8,0,19.5-0.1,29.3-0.1l0.7,0.3c-6-19.4-11.2-38.9-15.6-58.7h0.7c-4.5,19.7-9.8,39.2-16,58.6"
				/>
		</g>
	</g>
	<g>
		<path class="st1" d="M1086.2,221.1c4.8-18.5,10.7-37.1,17.6-55.3l0.8-0.1c5.6-1.1,11.2-1.8,17-2.4l1.5-0.7
			c-12.1,19.8-23.3,40.2-33.4,60.8"/>
	</g>
	<g>
		<g>
			<g>
				<path class="st2" d="M1081.7,223.4c-10.4-21.1-21.8-41.6-33.8-61.6c-1.1-2-4.2-0.1-3.1,1.8c12.2,20.1,23.4,40.6,33.8,61.6
					C1079.6,227.2,1082.6,225.4,1081.7,223.4L1081.7,223.4z"/>
			</g>
		</g>
		<g>
			<g>
				<path class="st2" d="M1081.2,102.5c-5.1,20.9-11,41.7-17.8,62.2c-0.7,2.1,2.7,3.1,3.4,1c6.9-20.5,12.9-41.1,17.8-62.2
					C1085.2,101.2,1081.8,100.4,1081.2,102.5L1081.2,102.5z"/>
			</g>
		</g>
		<g>
			<g>
				<path class="st2" d="M1085.2,221.4c-5.2-19.1-11.4-37.9-18.4-56.4c-0.8-2.1-4.2-1.1-3.4,1c7,18.5,13.2,37.3,18.4,56.4
					C1082.4,224.5,1085.7,223.7,1085.2,221.4L1085.2,221.4z"/>
			</g>
		</g>
		<g>
			<g>
				<path class="st2" d="M1047.8,162.9c5.9-10.4,11.8-20.8,17.7-31.2c5.5-9.5,10.4-20.1,17.8-28.2c1.5-1.7-1-4.2-2.5-2.5
					c-7.6,8.3-12.6,18.7-18.1,28.2c-6,10.5-11.9,21.2-18,31.7C1043.6,163,1046.7,164.8,1047.8,162.9L1047.8,162.9z"/>
			</g>
		</g>
		<g>
			<g>
				<path class="st2" d="M1089.4,224.9c10-21.2,20.9-42,32.6-62.3c1.1-2-2-3.8-3.1-1.8c-11.8,20.4-22.6,41.1-32.6,62.3
					C1085.3,225.2,1088.4,227,1089.4,224.9L1089.4,224.9z"/>
			</g>
		</g>
		<g>
			<g>
				<path class="st2" d="M1080.5,103.5c5.5,20.9,11.9,41.4,19.4,61.8c0.7,2.1,4.2,1.3,3.4-1c-7.3-20.2-13.8-40.9-19.4-61.8
					C1083.3,100.4,1080,101.2,1080.5,103.5L1080.5,103.5z"/>
			</g>
		</g>
		<g>
			<g>
				<path class="st2" d="M1086.3,222.4c4.8-19.2,10.4-38.2,17-56.9c0.7-2.1-2.7-3.1-3.4-1c-6.6,18.7-12.4,37.6-17,56.9
					C1082.4,223.7,1085.7,224.5,1086.3,222.4L1086.3,222.4z"/>
			</g>
		</g>
		<g>
			<g>
				<path class="st2" d="M1121.8,160.2c-6.2-10.4-12.5-20.9-18.7-31.3c-5.8-9.5-11-19.8-18.7-27.8c-1.5-1.7-4.1,0.8-2.5,2.5
					c7.7,8,12.9,18.3,18.5,27.8c6.2,10.2,12.2,20.5,18.4,30.7C1120,163.9,1122.9,162.2,1121.8,160.2L1121.8,160.2z"/>
			</g>
		</g>
		
			<ellipse transform="matrix(0.9999 -1.176317e-02 1.176317e-02 0.9999 -2.5676 12.7651)" class="st3" cx="1083.9" cy="224.7" rx="3.8" ry="1.5"/>
		<g>
			<g>
				<path class="st2" d="M1046.8,163.9c5.9,1,11.7,2,17.6,2.9c1,0.1,1.8-0.3,2.1-1.3c0.3-0.8-0.3-2-1.3-2.1c-5.9-1-11.7-2-17.6-2.9
					c-1-0.1-1.8,0.3-2.1,1.3C1045.3,162.6,1045.9,163.7,1046.8,163.9L1046.8,163.9z"/>
			</g>
		</g>
		<g>
			<g>
				<path class="st2" d="M1066.1,166.9c11.5-0.3,23-0.4,34.7-0.7c2.2,0,2.2-3.5,0-3.5c-11.5,0.3-23,0.4-34.7,0.7
					C1063.8,163.4,1063.8,166.9,1066.1,166.9L1066.1,166.9z"/>
			</g>
		</g>
		<g>
			<g>
				<path class="st2" d="M1102.9,166.7c5.3-1,10.7-1.8,16.1-2.4c1-0.1,1.8-0.7,1.8-1.8c0-0.8-0.8-1.8-1.8-1.8
					c-5.8,0.6-11.4,1.4-17,2.5c-1,0.1-1.4,1.3-1.3,2.1C1101,166.4,1102,166.8,1102.9,166.7L1102.9,166.7z"/>
			</g>
		</g>
	</g>
	<g>
		<g>
			<path class="st2" d="M1127.4,217.2c-0.8-2.4-1.5-4.9-2.2-7.3c-0.7-2.4-1.1-4.8-0.6-7.2c0.6-2.2,1.5-4.5,2.1-6.7
				c0.4-2.2,0.7-4.5,0.6-6.6c-0.3-4.5-2-8.6-3.7-12.6c-1.8-4.1-3.7-9.1-1.8-13.6c0.8-2.1-2.1-3.8-3.1-1.8c-1.8,4.4-1.3,9,0.3,13.3
				c1.7,4.6,4.4,9,4.8,14c0.1,2.5,0,5.1-0.7,7.6c-0.6,2.4-1.7,4.5-2,6.9c-0.7,5.1,1.5,10.2,3.1,14.9
				C1124.8,220.3,1128.1,219.3,1127.4,217.2L1127.4,217.2z"/>
		</g>
	</g>
	<g>
		<g>
			<path class="st2" d="M1044,162.5c-2.9,2.8-3.8,7-2.1,10.7c1.8,3.8,5.8,6,6.7,10.4c1,4.5-0.6,9.3-2.1,13.3
				c-2,4.9-4.2,9.7-6.6,14.3c-1,2,2,3.8,3.1,1.8c2.2-4.4,4.4-8.8,6.3-13.5c1.7-4.1,3.4-8.6,3.2-13.1c0-4.4-1.8-7.7-4.6-11
				c-1.3-1.5-2.8-3.1-3.2-5.1c-0.4-2,0.3-4.1,1.8-5.5C1048.2,163.3,1045.7,160.8,1044,162.5L1044,162.5z"/>
		</g>
	</g>
	<g>
		<g>
			<path class="st2" d="M1120.1,163c4.6,8.4,3.5,19.1-2.7,26.3c-1.7,2-3.5,3.8-4.8,6c-1.3,2-2.2,4.2-2.9,6.6
				c-1.4,4.8-1.7,9.7-1.7,14.6c0,2.2,3.5,2.2,3.5,0c0-5.2,0.3-10.4,2.1-15.3c1-2.5,2.2-4.8,4.1-6.9c1.7-2,3.5-3.8,4.9-6
				c5.1-8,5.2-18.8,0.6-27.1C1122.1,159.4,1119,161.1,1120.1,163L1120.1,163z"/>
		</g>
	</g>
	<g>
		<g>
			<path class="st2" d="M1045,164.7c1.7,8.7-3.2,17.3-2.9,26c0.4,8.7,4.9,16.8,4.1,25.6c-0.3,2.2,3.2,2.2,3.5,0
				c1-9-3.8-17.3-4.1-26.3c-0.1-9,4.5-17.3,2.8-26.3C1048,161.6,1044.6,162.5,1045,164.7L1045,164.7z"/>
		</g>
	</g>
</g>
<g class="st0">
	<g>
		<path class="st1" d="M1353.9,377.5c-3-9.5-6.5-18.9-10.4-28.2l-0.2-0.2c-3-0.4-5.9-0.7-8.9-1.1l-0.5,0.2
			c6.6,9.9,12.7,20.1,18.4,30.5L1353.9,377.5z"/>
	</g>
	<g>
		<g>
			<path class="st1" d="M1345.2,347.9c5.4,0,10.8-0.1,16.2-0.1l0.4,0.2c-3.3-10.7-6.2-21.5-8.6-32.4h0.4
				c-2.5,10.9-5.5,21.7-8.9,32.4"/>
		</g>
	</g>
	<g>
		<path class="st1" d="M1355.1,379c2.6-10.2,5.9-20.5,9.7-30.6l0.5-0.1c3.1-0.6,6.2-1,9.4-1.3l0.8-0.4c-6.7,11-12.9,22.2-18.5,33.6"
			/>
	</g>
	<g>
		<g>
			<g>
				<path class="st2" d="M1352.8,380.1c-5.8-11.6-12-23-18.7-34.1c-0.8-1.4-3-0.1-2.2,1.3c6.7,11.1,13,22.5,18.7,34.1
					C1351.4,382.8,1353.5,381.5,1352.8,380.1L1352.8,380.1z"/>
			</g>
		</g>
		<g>
			<g>
				<path class="st2" d="M1352.1,313.3c-2.8,11.6-6.1,23.1-9.9,34.4c-0.5,1.5,1.9,2.2,2.4,0.7c3.8-11.3,7.1-22.8,9.9-34.4
					C1354.9,312.4,1352.5,311.8,1352.1,313.3L1352.1,313.3z"/>
			</g>
		</g>
		<g>
			<g>
				<path class="st2" d="M1354.8,379.1c-2.9-10.6-6.3-21-10.2-31.2c-0.6-1.5-3-0.8-2.4,0.7c3.9,10.2,7.3,20.6,10.2,31.2
					C1352.8,381.3,1355.2,380.6,1354.8,379.1L1354.8,379.1z"/>
			</g>
		</g>
		<g>
			<g>
				<path class="st2" d="M1334.1,346.9c3.3-5.7,6.5-11.5,9.8-17.2c3-5.3,5.7-11,9.8-15.5c1.1-1.2-0.7-3-1.8-1.8
					c-4.2,4.5-6.9,10.2-10,15.6c-3.3,5.9-6.7,11.8-10,17.7C1331.1,347,1333.3,348.3,1334.1,346.9L1334.1,346.9z"/>
			</g>
		</g>
		<g>
			<g>
				<path class="st2" d="M1357.1,381.2c5.5-11.7,11.6-23.2,18-34.5c0.8-1.4-1.4-2.7-2.2-1.3c-6.5,11.2-12.5,22.7-18,34.5
					C1354.2,381.4,1356.4,382.7,1357.1,381.2L1357.1,381.2z"/>
			</g>
		</g>
		<g>
			<g>
				<path class="st2" d="M1351.7,314c3.1,11.5,6.6,22.9,10.7,34.2c0.5,1.5,3,0.9,2.4-0.7c-4.1-11.2-7.6-22.6-10.7-34.2
					C1353.7,311.8,1351.3,312.4,1351.7,314L1351.7,314z"/>
			</g>
		</g>
		<g>
			<g>
				<path class="st2" d="M1355.4,379.7c2.6-10.6,5.8-21.1,9.4-31.4c0.5-1.5-1.9-2.2-2.4-0.7c-3.7,10.3-6.8,20.8-9.4,31.4
					C1352.6,380.6,1355,381.3,1355.4,379.7L1355.4,379.7z"/>
			</g>
		</g>
		<g>
			<g>
				<path class="st2" d="M1375,345.2c-3.5-5.8-7-11.6-10.4-17.4c-3.1-5.3-6-10.9-10.3-15.3c-1.1-1.2-2.9,0.6-1.8,1.8
					c4.2,4.4,7.1,10.1,10.2,15.3c3.4,5.7,6.8,11.3,10.2,17C1373.7,347.8,1375.9,346.5,1375,345.2L1375,345.2z"/>
			</g>
		</g>
		
			<ellipse transform="matrix(0.9999 -1.176317e-02 1.176317e-02 0.9999 -4.3868 15.952)" class="st3" cx="1353.9" cy="380.9" rx="2.1" ry="0.9"/>
		<g>
			<g>
				<path class="st2" d="M1333.2,347.6c3.2,0.5,6.5,1.1,9.7,1.6c0.7,0.1,1.3-0.2,1.5-0.9c0.2-0.6-0.2-1.4-0.9-1.5
					c-3.2-0.5-6.5-1.1-9.7-1.6c-0.7-0.1-1.3,0.2-1.5,0.9C1332.2,346.6,1332.6,347.5,1333.2,347.6L1333.2,347.6z"/>
			</g>
		</g>
		<g>
			<g>
				<path class="st2" d="M1344,349.3c6.4-0.1,12.8-0.3,19.2-0.4c1.6,0,1.6-2.5,0-2.5c-6.4,0.1-12.8,0.3-19.2,0.4
					C1342.4,346.8,1342.3,349.3,1344,349.3L1344,349.3z"/>
			</g>
		</g>
		<g>
			<g>
				<path class="st2" d="M1364.4,349.1c2.9-0.6,5.9-1,8.8-1.3c0.7-0.1,1.3-0.5,1.3-1.3c0-0.6-0.6-1.3-1.3-1.3
					c-3.2,0.3-6.3,0.8-9.5,1.4c-0.7,0.1-1,0.9-0.9,1.5C1363.1,348.9,1363.7,349.2,1364.4,349.1L1364.4,349.1z"/>
			</g>
		</g>
	</g>
	<g>
		<g>
			<path class="st2" d="M1378.2,376.7c-0.8-2.3-2.2-5.3-1.6-7.8c0.3-1.2,0.9-2.4,1.1-3.7c0.3-1.3,0.4-2.6,0.3-3.9
				c-0.1-2.5-1.1-4.8-2.1-7.1c-1-2.4-1.9-5-0.9-7.5c0.6-1.5-1.8-2.1-2.4-0.7c-2.3,5.4,2.6,10,2.9,15.3c0.1,1.4-0.1,2.8-0.5,4.1
				c-0.4,1.3-0.9,2.5-1.1,3.8c-0.3,2.7,0.9,5.6,1.8,8.1C1376.3,378.9,1378.7,378.3,1378.2,376.7L1378.2,376.7z"/>
		</g>
	</g>
	<g>
		<g>
			<path class="st2" d="M1331.6,346.3c-1.6,1.5-2.2,3.9-1.3,5.9c0.9,2.2,3.2,3.5,3.8,5.8c0.7,2.4-0.2,5-1.1,7.3
				c-1.1,2.7-2.4,5.4-3.7,8c-0.7,1.4,1.4,2.7,2.2,1.3c1.3-2.4,2.4-4.9,3.5-7.4c1-2.3,1.8-4.7,1.9-7.2c0-2.3-0.8-4.3-2.3-6.1
				c-1.5-1.7-3.3-3.8-1.2-5.8C1334.5,346.9,1332.8,345.2,1331.6,346.3L1331.6,346.3z"/>
		</g>
	</g>
	<g>
		<g>
			<path class="st2" d="M1373.6,347c2.6,4.7,1.8,10.5-1.7,14.5c-1.8,2.1-3.3,4.1-4.1,6.8c-0.8,2.7-1,5.5-0.9,8.2
				c0,1.6,2.5,1.6,2.5,0c0-2.9,0.1-5.8,1.2-8.5c1.1-2.9,3.5-4.7,5.1-7.3c2.7-4.5,2.7-10.4,0.2-15
				C1375,344.3,1372.8,345.6,1373.6,347L1373.6,347z"/>
		</g>
	</g>
	<g>
		<g>
			<path class="st2" d="M1332,347.9c0.9,4.8-1.8,9.5-1.6,14.3c0.2,4.8,2.7,9.3,2.2,14.2c-0.2,1.6,2.3,1.6,2.5,0
				c0.5-5.1-2.2-9.6-2.2-14.6c-0.1-4.9,2.5-9.5,1.5-14.5C1334.1,345.6,1331.7,346.3,1332,347.9L1332,347.9z"/>
		</g>
	</g>
</g>
</svg>
