<?xml version="1.0" encoding="utf-8"?>
<!-- Generator: Adobe Illustrator 24.0.1, SVG Export Plug-In . SVG Version: 6.00 Build 0)  -->
<svg version="1.1" id="Camada_1" xmlns="http://www.w3.org/2000/svg" xmlns:xlink="http://www.w3.org/1999/xlink" x="0px" y="0px"
	 viewBox="0 0 1397 509" style="enable-background:new 0 0 1397 509;" xml:space="preserve">
<style type="text/css">
	.st0{opacity:0.5;}
	.st1{fill:#F4C17F;}
	.st2{fill:#FFFFFF;}
	.st3{fill:none;stroke:#FFFFFF;stroke-width:2;stroke-miterlimit:10;}
</style>
<title>Group 3 Copy</title>
<desc>Created with Sketch.</desc>
<g class="st0">
	<g>
		<path class="st1" d="M141.7,496c-6.2-19.6-13.6-39-22-58.3l-0.3-0.4c-6.2-0.8-12.4-1.5-18.6-2.3l-1.1,0.5
			c13.8,20.5,26.7,41.6,38.6,63.1L141.7,496z"/>
	</g>
	<g>
		<g>
			<path class="st1" d="M123.5,434.8c11.4-0.1,22.7-0.1,34.1-0.2l0.9,0.3c-7-22.2-13-44.5-18.1-67l0.8,0
				c-5.3,22.5-11.5,44.8-18.6,66.9"/>
		</g>
	</g>
	<g>
		<path class="st1" d="M144.2,499c5.6-21.2,12.3-42.3,20.3-63.3l1-0.2c6.5-1.2,13.1-2.1,19.7-2.8l1.8-0.8
			c-14,22.7-27,45.8-38.9,69.5"/>
	</g>
	<g>
		<g>
			<g>
				<path class="st2" d="M138.2,501.9c-9.5-18.7-19.5-37.2-30.2-55.2c-3-5.1-6.1-10.2-9.2-15.3c-0.8-1.4-3-0.1-2.2,1.3
					c11,17.9,21.5,36.1,31.3,54.7c2.8,5.2,5.5,10.5,8.1,15.8C136.8,504.6,138.9,503.3,138.2,501.9L138.2,501.9z"/>
			</g>
		</g>
		<g>
			<g>
				<path class="st2" d="M139.2,363.6c-4.6,18.7-9.8,37.2-15.6,55.5c-1.7,5.2-3.4,10.4-5.2,15.6c-0.5,1.5,1.9,2.2,2.4,0.7
					c6.2-18.2,11.9-36.7,16.8-55.4c1.4-5.2,2.7-10.5,4-15.8C142,362.7,139.6,362,139.2,363.6L139.2,363.6z"/>
			</g>
		</g>
		<g>
			<g>
				<path class="st2" d="M142.2,499.5c-4.7-16.9-10-33.7-16-50.2c-1.7-4.8-3.5-9.6-5.4-14.3c-0.6-1.5-3-0.8-2.4,0.7
					c6.4,16.5,12.1,33.1,17.2,50.1c1.4,4.8,2.8,9.6,4.1,14.4C140.2,501.8,142.6,501.1,142.2,499.5L142.2,499.5z"/>
			</g>
		</g>
		<g>
			<g>
				<path class="st2" d="M98.8,432c5.4-9.3,10.7-18.6,16.1-27.9c5.2-9,10.2-18,15.6-26.8c2.9-4.7,6-9.2,9.8-13.2
					c1.1-1.2-0.7-2.9-1.8-1.8c-6.8,7.2-11.5,15.9-16.4,24.4c-5.4,9.4-10.8,18.8-16.2,28.1c-3.1,5.3-6.1,10.6-9.2,15.9
					C95.9,432.1,98,433.4,98.8,432L98.8,432z"/>
			</g>
		</g>
		<g>
			<g>
				<path class="st2" d="M147.2,503c9-18.9,18.7-37.5,29-55.7c2.9-5.2,5.9-10.4,8.9-15.5c0.8-1.4-1.3-2.6-2.2-1.3
					c-10.6,18.1-20.7,36.5-30.1,55.2c-2.7,5.3-5.3,10.7-7.9,16C144.3,503.2,146.5,504.4,147.2,503L147.2,503z"/>
			</g>
		</g>
		<g>
			<g>
				<path class="st2" d="M138.4,364.3c5,18.6,10.7,37,17,55.1c1.8,5.2,3.6,10.3,5.5,15.5c0.6,1.5,3,0.8,2.4-0.7
					c-6.7-18.1-12.7-36.4-18.1-54.9c-1.5-5.2-3-10.4-4.4-15.7C140.3,362,137.9,362.7,138.4,364.3L138.4,364.3z"/>
			</g>
		</g>
		<g>
			<g>
				<path class="st2" d="M143.5,500.2c4.2-17,9.2-33.9,14.8-50.5c1.6-4.8,3.3-9.6,5-14.4c0.5-1.5-1.9-2.2-2.4-0.7
					c-6,16.6-11.4,33.4-16,50.4c-1.3,4.8-2.6,9.7-3.8,14.5C140.7,501.1,143.1,501.8,143.5,500.2L143.5,500.2z"/>
			</g>
		</g>
		<g>
			<g>
				<path class="st2" d="M184.9,429.7c-5.6-9.3-11.3-18.5-16.9-27.8c-5.4-8.9-10.7-18-16.4-26.8c-3-4.6-6.3-9-10.1-12.9
					c-1.1-1.1-2.9,0.6-1.8,1.8c7,7,11.9,15.8,17,24.2c5.5,9.1,11.1,18.2,16.6,27.3c3.1,5.2,6.3,10.3,9.4,15.5
					C183.6,432.3,185.8,431.1,184.9,429.7L184.9,429.7z"/>
			</g>
		</g>
		
			<ellipse transform="matrix(0.9999 -1.148230e-02 1.148230e-02 0.9999 -5.7667 1.6588)" class="st3" cx="141.6" cy="503" rx="4.4" ry="1.8"/>
		<g>
			<g>
				<path class="st2" d="M98.6,432.7c6.8,1.1,13.6,2.2,20.4,3.4c1.6,0.3,2.3-2.1,0.7-2.4c-6.8-1.1-13.6-2.2-20.4-3.4
					C97.7,430.1,97,432.5,98.6,432.7L98.6,432.7z"/>
			</g>
		</g>
		<g>
			<g>
				<path class="st2" d="M120.8,436.3c13.4-0.3,26.9-0.6,40.3-0.8c1.6,0,1.6-2.5,0-2.5c-13.4,0.3-26.9,0.6-40.3,0.8
					C119.2,433.8,119.2,436.3,120.8,436.3L120.8,436.3z"/>
			</g>
		</g>
		<g>
			<g>
				<path class="st2" d="M163.4,435.9c6.3-1.2,12.6-2.1,18.9-2.8c1.6-0.2,1.6-2.7,0-2.5c-6.6,0.7-13.1,1.6-19.6,2.9
					C161.2,433.8,161.8,436.2,163.4,435.9L163.4,435.9z"/>
			</g>
		</g>
	</g>
	<g>
		<g>
			<path class="st2" d="M191.5,494.7c-1.4-4.1-3.1-8.4-3.6-12.7c-0.5-4.5,2-8.4,2.8-12.7c0.7-4,0.7-8.2-0.4-12.1
				c-1.1-4-3.1-7.7-4.6-11.6c-1.6-4.2-2.8-9.1-0.9-13.3c0.7-1.5-1.5-2.7-2.2-1.3c-3.7,8.2,1.3,16.1,4.1,23.6
				c1.6,4.2,2.2,8.6,1.6,13.1c-0.3,2.2-1,4.3-1.7,6.4c-0.7,2-1.4,4-1.4,6.2c0,2.5,0.6,5.1,1.4,7.5c0.7,2.5,1.5,5,2.4,7.5
				C189.6,496.8,192,496.2,191.5,494.7L191.5,494.7z"/>
		</g>
	</g>
	<g>
		<g>
			<path class="st2" d="M95.8,432.3c-2.6,2.4-3.8,6.1-2.9,9.6c0.9,3.6,4,6.1,6.2,8.9c5.3,6.7,2,15.8-1,22.8
				c-2.1,4.8-4.4,9.6-6.9,14.3c-0.8,1.4,1.4,2.7,2.2,1.3c2.2-4.1,4.2-8.3,6.1-12.5c1.6-3.7,3.3-7.4,4.2-11.4c0.9-3.7,1.2-7.6,0-11.3
				c-1.2-3.6-3.8-6-6.1-8.8c-1.3-1.6-2.4-3.5-2.4-5.6c0-2.1,0.9-4.1,2.5-5.5C98.7,433,97,431.3,95.8,432.3L95.8,432.3z"/>
		</g>
	</g>
	<g>
		<g>
			<path class="st2" d="M184.3,432.2c4.2,7.2,4.6,16.3,1.3,23.9c-0.8,1.9-1.9,3.8-3.2,5.4c-1.5,1.9-3.2,3.6-4.7,5.4
				c-2.8,3.5-4.8,7.5-5.9,11.8c-1.2,4.9-1.5,10-1.5,15c0,1.6,2.5,1.6,2.5,0c-0.1-9.3,1.1-18.8,7.5-26.1c3-3.4,5.9-6.7,7.7-11
				c1.6-3.9,2.4-8.1,2.2-12.3c-0.1-4.8-1.4-9.4-3.8-13.6C185.7,429.6,183.5,430.8,184.3,432.2L184.3,432.2z"/>
		</g>
	</g>
	<g>
		<g>
			<path class="st2" d="M97,434.3c1.6,7.9-1.8,15.7-2.9,23.4c-0.6,3.8-0.5,7.6,0.2,11.4c0.7,3.8,1.8,7.5,2.8,11.3
				c1.1,4.3,1.9,8.7,1.4,13.1c-0.2,1.6,2.3,1.6,2.5,0c0.9-7.9-2.2-15.4-3.8-23c-0.9-3.9-1.2-7.9-0.6-11.9c0.6-4,1.7-7.9,2.5-11.9
				c0.9-4.3,1.3-8.7,0.4-13.1C99.1,432,96.7,432.7,97,434.3L97,434.3z"/>
		</g>
	</g>
</g>
<g class="st0">
	<g>
		<path class="st1" d="M28.8,76.3c-3.5-11-7.6-22-12.4-32.8l-0.2-0.2c-3.5-0.4-7-0.9-10.5-1.3l-0.6,0.3c7.8,11.6,15,23.4,21.7,35.5
			L28.8,76.3z"/>
	</g>
	<g>
		<g>
			<path class="st1" d="M18.6,41.8c6.4,0,12.8-0.1,19.2-0.1l0.5,0.2c-3.9-12.5-7.3-25.1-10.2-37.8l0.4,0C25.5,16.8,22,29.4,18,41.8"
				/>
		</g>
	</g>
	<g>
		<path class="st1" d="M30.2,78c3.1-11.9,6.9-23.8,11.4-35.7l0.6-0.1c3.7-0.7,7.4-1.2,11.1-1.6l1-0.4C46.4,53,39.1,66.1,32.4,79.4"
			/>
	</g>
	<g>
		<g>
			<g>
				<path class="st2" d="M27.3,79.3C20.5,65.8,13.1,52.6,5.1,39.6c-0.8-1.4-3-0.1-2.2,1.3c7.9,12.9,15.3,26.2,22.2,39.7
					C25.9,82,28,80.8,27.3,79.3L27.3,79.3z"/>
			</g>
		</g>
		<g>
			<g>
				<path class="st2" d="M26.9,1.6c-3.3,13.5-7.2,26.9-11.7,40.1c-0.5,1.5,1.9,2.2,2.4,0.7C22.1,29.1,26,15.7,29.3,2.2
					C29.7,0.7,27.3,0,26.9,1.6L26.9,1.6z"/>
			</g>
		</g>
		<g>
			<g>
				<path class="st2" d="M29.6,78.2c-3.4-12.3-7.4-24.4-12-36.3c-0.6-1.5-3-0.8-2.4,0.7c4.6,11.9,8.6,24,12,36.3
					C27.6,80.4,30.1,79.7,29.6,78.2L29.6,78.2z"/>
			</g>
		</g>
		<g>
			<g>
				<path class="st2" d="M5.2,40.5c3.8-6.7,7.7-13.3,11.5-20c3.6-6.2,6.8-12.9,11.7-18.2c1.1-1.2-0.7-2.9-1.8-1.8
					c-5,5.3-8.2,12-11.8,18.2C10.9,25.6,6.9,32.4,3,39.2C2.2,40.6,4.4,41.9,5.2,40.5L5.2,40.5z"/>
			</g>
		</g>
		<g>
			<g>
				<path class="st2" d="M32.4,80.5C38.9,66.8,46,53.4,53.7,40.4c0.8-1.4-1.3-2.6-2.2-1.3c-7.7,13.1-14.8,26.5-21.3,40.1
					C29.5,80.7,31.7,82,32.4,80.5L32.4,80.5z"/>
			</g>
		</g>
		<g>
			<g>
				<path class="st2" d="M26.4,2.2C30,15.7,34.3,28.9,39.1,42c0.6,1.5,3,0.8,2.4-0.7c-4.8-13.1-9-26.3-12.7-39.8
					C28.4,0,26,0.7,26.4,2.2L26.4,2.2z"/>
			</g>
		</g>
		<g>
			<g>
				<path class="st2" d="M30.3,78.8c3.1-12.4,6.8-24.6,11.1-36.6c0.5-1.5-1.9-2.2-2.4-0.7c-4.3,12-8.1,24.2-11.1,36.6
					C27.5,79.7,29.9,80.4,30.3,78.8L30.3,78.8z"/>
			</g>
		</g>
		<g>
			<g>
				<path class="st2" d="M53.6,38.7c-4.1-6.7-8.2-13.4-12.3-20.2c-3.7-6.2-7.2-12.8-12.3-18c-1.1-1.1-2.9,0.6-1.8,1.8
					c5,5.1,8.4,11.8,12.1,17.9c4,6.6,8,13.2,12,19.7C52.3,41.3,54.4,40.1,53.6,38.7L53.6,38.7z"/>
			</g>
		</g>
		
			<ellipse transform="matrix(0.9999 -1.150697e-02 1.150697e-02 0.9999 -0.9217 0.336)" class="st3" cx="28.7" cy="80.3" rx="2.5" ry="1"/>
		<g>
			<g>
				<path class="st2" d="M4.4,41.2c3.8,0.6,7.6,1.3,11.5,1.9c0.7,0.1,1.3-0.2,1.5-0.9c0.2-0.6-0.2-1.4-0.9-1.5
					c-3.8-0.6-7.6-1.3-11.5-1.9c-0.7-0.1-1.3,0.2-1.5,0.9C3.4,40.3,3.8,41.1,4.4,41.2L4.4,41.2z"/>
			</g>
		</g>
		<g>
			<g>
				<path class="st2" d="M17,43.2c7.6-0.2,15.1-0.3,22.7-0.5c1.6,0,1.6-2.5,0-2.5c-7.6,0.2-15.1,0.3-22.7,0.5
					C15.4,40.7,15.4,43.2,17,43.2L17,43.2z"/>
			</g>
		</g>
		<g>
			<g>
				<path class="st2" d="M41.2,43c3.5-0.7,7-1.2,10.5-1.5c0.7-0.1,1.3-0.5,1.3-1.3c0-0.6-0.6-1.3-1.3-1.3c-3.7,0.4-7.5,0.9-11.2,1.6
					c-0.7,0.1-1,0.9-0.9,1.5C39.8,42.8,40.5,43.1,41.2,43L41.2,43z"/>
			</g>
		</g>
	</g>
	<g>
		<g>
			<path class="st2" d="M57.3,75.4c-0.5-1.5-1-3-1.4-4.5c-0.4-1.5-0.8-3-0.5-4.6c0.3-1.5,1-2.8,1.3-4.3c0.3-1.5,0.5-3,0.4-4.5
				c-0.1-2.9-1.3-5.5-2.4-8.2c-1.1-2.6-2.4-5.8-1.2-8.7c0.6-1.5-1.5-2.7-2.2-1.3c-1.2,2.8-0.9,5.8,0.1,8.7c1.1,3,2.8,5.8,3.1,9
				c0.1,1.6,0,3.2-0.4,4.7c-0.4,1.6-1.1,3-1.4,4.6c-0.4,3.2,1,6.6,2,9.6C55.4,77.6,57.8,76.9,57.3,75.4L57.3,75.4z"/>
		</g>
	</g>
	<g>
		<g>
			<path class="st2" d="M2.6,40.1c-1.9,1.8-2.5,4.6-1.4,6.9c1.2,2.5,3.8,4,4.5,6.8c0.7,2.8-0.4,5.8-1.4,8.4
				c-1.3,3.2-2.8,6.2-4.4,9.2c-0.7,1.4,1.4,2.7,2.2,1.3c1.5-2.9,2.9-5.8,4.2-8.8c1.1-2.6,2.1-5.3,2.1-8.1c0.1-2.7-1-5-2.7-7
				c-0.9-1-1.9-2-2.3-3.2c-0.4-1.4,0.1-2.7,1.1-3.7C5.5,40.7,3.8,39,2.6,40.1L2.6,40.1z"/>
		</g>
	</g>
	<g>
		<g>
			<path class="st2" d="M52.3,40.6c3.1,5.4,2.3,12.2-1.8,16.9c-2.1,2.4-4,4.7-5,7.9c-1,3.1-1.2,6.4-1.1,9.7c0,1.6,2.5,1.6,2.5,0
				c0-3.4,0.2-6.8,1.4-10c1.3-3.3,4.1-5.4,5.9-8.3c3.3-5.2,3.3-12.1,0.3-17.4C53.7,38,51.5,39.2,52.3,40.6L52.3,40.6z"/>
		</g>
	</g>
	<g>
		<g>
			<path class="st2" d="M3.1,41.7C4.3,47.3,1,52.8,1.3,58.4C1.5,64,4.5,69.2,3.9,74.9c-0.2,1.6,2.3,1.6,2.5,0C7,69,3.9,63.8,3.7,58
				c-0.1-5.8,3-11.2,1.8-17C5.2,39.4,2.8,40.1,3.1,41.7L3.1,41.7z"/>
		</g>
	</g>
</g>
<g class="st0">
	<g>
		<path class="st1" d="M1091.3,170.7c-3.8-12.2-8.3-24.3-13.4-36.3l-0.2-0.3c-3.8-0.5-7.6-0.9-11.4-1.4l-0.7,0.3
			c8.4,12.8,16.3,25.9,23.6,39.3L1091.3,170.7z"/>
	</g>
	<g>
		<g>
			<path class="st1" d="M1080.1,132.6c7,0,13.9-0.1,20.9-0.1l0.5,0.2c-4.3-13.8-8-27.7-11.1-41.8l0.5,0c-3.2,14-7,27.9-11.4,41.7"/>
		</g>
	</g>
	<g>
		<path class="st1" d="M1092.8,172.6c3.4-13.2,7.6-26.4,12.5-39.4l0.6-0.1c4-0.8,8-1.3,12.1-1.7l1.1-0.5
			c-8.6,14.1-16.6,28.6-23.8,43.3"/>
	</g>
	<g>
		<g>
			<g>
				<path class="st2" d="M1089.6,174.2c-7.4-15-15.5-29.6-24.1-43.9c-0.8-1.4-3-0.1-2.2,1.3c8.7,14.3,16.7,28.9,24.1,43.9
					C1088.1,176.9,1090.3,175.6,1089.6,174.2L1089.6,174.2z"/>
			</g>
		</g>
		<g>
			<g>
				<path class="st2" d="M1089.3,88.1c-3.6,14.9-7.8,29.7-12.7,44.3c-0.5,1.5,1.9,2.2,2.4,0.7c4.9-14.6,9.2-29.3,12.7-44.3
					C1092.1,87.2,1089.7,86.6,1089.3,88.1L1089.3,88.1z"/>
			</g>
		</g>
		<g>
			<g>
				<path class="st2" d="M1092.1,172.8c-3.7-13.6-8.1-27-13.1-40.2c-0.6-1.5-3-0.8-2.4,0.7c5,13.2,9.4,26.6,13.1,40.2
					C1090.1,175,1092.5,174.4,1092.1,172.8L1092.1,172.8z"/>
			</g>
		</g>
		<g>
			<g>
				<path class="st2" d="M1065.5,131.1c4.2-7.4,8.4-14.8,12.6-22.2c3.9-6.8,7.4-14.3,12.7-20.1c1.1-1.2-0.7-3-1.8-1.8
					c-5.4,5.9-9,13.3-12.9,20.1c-4.3,7.5-8.5,15.1-12.8,22.6C1062.5,131.2,1064.7,132.5,1065.5,131.1L1065.5,131.1z"/>
			</g>
		</g>
		<g>
			<g>
				<path class="st2" d="M1095.1,175.3c7.1-15.1,14.9-29.9,23.2-44.4c0.8-1.4-1.4-2.7-2.2-1.3c-8.4,14.5-16.1,29.3-23.2,44.4
					C1092.2,175.5,1094.4,176.8,1095.1,175.3L1095.1,175.3z"/>
			</g>
		</g>
		<g>
			<g>
				<path class="st2" d="M1088.8,88.8c3.9,14.9,8.5,29.5,13.8,44c0.5,1.5,3,0.9,2.4-0.7c-5.2-14.4-9.8-29.1-13.8-44
					C1090.8,86.6,1088.4,87.2,1088.8,88.8L1088.8,88.8z"/>
			</g>
		</g>
		<g>
			<g>
				<path class="st2" d="M1092.9,173.5c3.4-13.7,7.4-27.2,12.1-40.5c0.5-1.5-1.9-2.2-2.4-0.7c-4.7,13.3-8.8,26.8-12.1,40.5
					C1090.1,174.4,1092.5,175,1092.9,173.5L1092.9,173.5z"/>
			</g>
		</g>
		<g>
			<g>
				<path class="st2" d="M1118.2,129.2c-4.4-7.4-8.9-14.9-13.3-22.3c-4.1-6.8-7.8-14.1-13.3-19.8c-1.1-1.2-2.9,0.6-1.8,1.8
					c5.5,5.7,9.2,13,13.2,19.8c4.4,7.3,8.7,14.6,13.1,21.9C1116.9,131.8,1119,130.6,1118.2,129.2L1118.2,129.2z"/>
			</g>
		</g>
		
			<ellipse transform="matrix(0.9999 -1.176281e-02 1.176281e-02 0.9999 -1.9844 12.848)" class="st3" cx="1091.2" cy="175.1" rx="2.7" ry="1.1"/>
		<g>
			<g>
				<path class="st2" d="M1064.8,131.8c4.2,0.7,8.3,1.4,12.5,2.1c0.7,0.1,1.3-0.2,1.5-0.9c0.2-0.6-0.2-1.4-0.9-1.5
					c-4.2-0.7-8.3-1.4-12.5-2.1c-0.7-0.1-1.3,0.2-1.5,0.9C1063.7,130.9,1064.1,131.7,1064.8,131.8L1064.8,131.8z"/>
			</g>
		</g>
		<g>
			<g>
				<path class="st2" d="M1078.5,134c8.2-0.2,16.4-0.3,24.7-0.5c1.6,0,1.6-2.5,0-2.5c-8.2,0.2-16.4,0.3-24.7,0.5
					C1076.9,131.5,1076.9,134,1078.5,134L1078.5,134z"/>
			</g>
		</g>
		<g>
			<g>
				<path class="st2" d="M1104.7,133.8c3.8-0.7,7.6-1.3,11.5-1.7c0.7-0.1,1.3-0.5,1.3-1.3c0-0.6-0.6-1.3-1.3-1.3
					c-4.1,0.4-8.1,1-12.1,1.8c-0.7,0.1-1,0.9-0.9,1.5C1103.4,133.6,1104.1,133.9,1104.7,133.8L1104.7,133.8z"/>
			</g>
		</g>
	</g>
	<g>
		<g>
			<path class="st2" d="M1122.2,169.8c-0.6-1.7-1.1-3.5-1.6-5.2c-0.5-1.7-0.8-3.4-0.4-5.1c0.4-1.6,1.1-3.2,1.5-4.8
				c0.3-1.6,0.5-3.2,0.4-4.7c-0.2-3.2-1.4-6.1-2.6-9c-1.3-2.9-2.6-6.5-1.3-9.7c0.6-1.5-1.5-2.7-2.2-1.3c-1.3,3.1-0.9,6.4,0.2,9.5
				c1.2,3.3,3.1,6.4,3.4,10c0.1,1.8,0,3.6-0.5,5.4c-0.4,1.7-1.2,3.2-1.4,4.9c-0.5,3.6,1.1,7.3,2.2,10.6
				C1120.3,172,1122.7,171.3,1122.2,169.8L1122.2,169.8z"/>
		</g>
	</g>
	<g>
		<g>
			<path class="st2" d="M1062.8,130.8c-2.1,2-2.7,5-1.5,7.6c1.3,2.7,4.1,4.3,4.8,7.4c0.7,3.2-0.4,6.6-1.5,9.5
				c-1.4,3.5-3,6.9-4.7,10.2c-0.7,1.4,1.4,2.7,2.2,1.3c1.6-3.1,3.1-6.3,4.5-9.6c1.2-2.9,2.4-6.1,2.3-9.3c0-3.1-1.3-5.5-3.3-7.8
				c-0.9-1.1-2-2.2-2.3-3.6c-0.3-1.4,0.2-2.9,1.3-3.9C1065.8,131.4,1064,129.6,1062.8,130.8L1062.8,130.8z"/>
		</g>
	</g>
	<g>
		<g>
			<path class="st2" d="M1117,131.2c3.3,6,2.5,13.6-1.9,18.7c-1.2,1.4-2.5,2.7-3.4,4.3c-0.9,1.4-1.6,3-2.1,4.7
				c-1,3.4-1.2,6.9-1.2,10.4c0,1.6,2.5,1.6,2.5,0c0-3.7,0.2-7.4,1.5-10.9c0.7-1.8,1.6-3.4,2.9-4.9c1.2-1.4,2.5-2.7,3.5-4.3
				c3.6-5.7,3.7-13.4,0.4-19.3C1118.4,128.6,1116.2,129.8,1117,131.2L1117,131.2z"/>
		</g>
	</g>
	<g>
		<g>
			<path class="st2" d="M1063.5,132.4c1.2,6.2-2.3,12.3-2.1,18.5c0.3,6.2,3.5,12,2.9,18.2c-0.2,1.6,2.3,1.6,2.5,0
				c0.7-6.4-2.7-12.3-2.9-18.7c-0.1-6.4,3.2-12.3,2-18.7C1065.6,130.2,1063.2,130.8,1063.5,132.4L1063.5,132.4z"/>
		</g>
	</g>
</g>
<g class="st0">
	<g>
		<path class="st1" d="M1373.9,347.5c-3-9.5-6.5-18.9-10.4-28.2l-0.2-0.2c-3-0.4-5.9-0.7-8.9-1.1l-0.5,0.2
			c6.6,9.9,12.7,20.1,18.4,30.5L1373.9,347.5z"/>
	</g>
	<g>
		<g>
			<path class="st1" d="M1365.2,317.9c5.4,0,10.8-0.1,16.2-0.1l0.4,0.2c-3.3-10.7-6.2-21.5-8.6-32.4l0.4,0
				c-2.5,10.9-5.5,21.7-8.9,32.4"/>
		</g>
	</g>
	<g>
		<path class="st1" d="M1375.1,349c2.6-10.2,5.9-20.5,9.7-30.6l0.5-0.1c3.1-0.6,6.2-1,9.4-1.3l0.8-0.4c-6.7,11-12.9,22.2-18.5,33.6"
			/>
	</g>
	<g>
		<g>
			<g>
				<path class="st2" d="M1372.8,350.1c-5.8-11.6-12-23-18.7-34.1c-0.8-1.4-3-0.1-2.2,1.3c6.7,11.1,13,22.5,18.7,34.1
					C1371.4,352.8,1373.5,351.5,1372.8,350.1L1372.8,350.1z"/>
			</g>
		</g>
		<g>
			<g>
				<path class="st2" d="M1372.1,283.3c-2.8,11.6-6.1,23.1-9.9,34.4c-0.5,1.5,1.9,2.2,2.4,0.7c3.8-11.3,7.1-22.8,9.9-34.4
					C1374.9,282.4,1372.5,281.8,1372.1,283.3L1372.1,283.3z"/>
			</g>
		</g>
		<g>
			<g>
				<path class="st2" d="M1374.8,349.1c-2.9-10.6-6.3-21-10.2-31.2c-0.6-1.5-3-0.8-2.4,0.7c3.9,10.2,7.3,20.6,10.2,31.2
					C1372.8,351.3,1375.2,350.6,1374.8,349.1L1374.8,349.1z"/>
			</g>
		</g>
		<g>
			<g>
				<path class="st2" d="M1354.1,316.9c3.3-5.7,6.5-11.5,9.8-17.2c3-5.3,5.7-11,9.8-15.5c1.1-1.2-0.7-3-1.8-1.8
					c-4.2,4.5-6.9,10.2-10,15.6c-3.3,5.9-6.7,11.8-10,17.7C1351.1,317,1353.3,318.3,1354.1,316.9L1354.1,316.9z"/>
			</g>
		</g>
		<g>
			<g>
				<path class="st2" d="M1377.1,351.2c5.5-11.7,11.6-23.2,18-34.5c0.8-1.4-1.4-2.7-2.2-1.3c-6.5,11.2-12.5,22.7-18,34.5
					C1374.2,351.4,1376.4,352.7,1377.1,351.2L1377.1,351.2z"/>
			</g>
		</g>
		<g>
			<g>
				<path class="st2" d="M1371.7,284c3.1,11.5,6.6,22.9,10.7,34.2c0.5,1.5,3,0.9,2.4-0.7c-4.1-11.2-7.6-22.6-10.7-34.2
					C1373.7,281.8,1371.3,282.4,1371.7,284L1371.7,284z"/>
			</g>
		</g>
		<g>
			<g>
				<path class="st2" d="M1375.4,349.7c2.6-10.6,5.8-21.1,9.4-31.4c0.5-1.5-1.9-2.2-2.4-0.7c-3.7,10.3-6.8,20.8-9.4,31.4
					C1372.6,350.6,1375,351.3,1375.4,349.7L1375.4,349.7z"/>
			</g>
		</g>
		<g>
			<g>
				<path class="st2" d="M1395,315.2c-3.5-5.8-7-11.6-10.4-17.4c-3.1-5.3-6-10.9-10.3-15.3c-1.1-1.2-2.9,0.6-1.8,1.8
					c4.2,4.4,7.1,10.1,10.2,15.3c3.4,5.7,6.8,11.3,10.2,17C1393.7,317.8,1395.9,316.5,1395,315.2L1395,315.2z"/>
			</g>
		</g>
		
			<ellipse transform="matrix(0.9999 -1.176281e-02 1.176281e-02 0.9999 -4.0331 16.1846)" class="st3" cx="1373.9" cy="350.9" rx="2.1" ry="0.9"/>
		<g>
			<g>
				<path class="st2" d="M1353.2,317.6c3.2,0.5,6.5,1.1,9.7,1.6c0.7,0.1,1.3-0.2,1.5-0.9c0.2-0.6-0.2-1.4-0.9-1.5
					c-3.2-0.5-6.5-1.1-9.7-1.6c-0.7-0.1-1.3,0.2-1.5,0.9C1352.2,316.6,1352.6,317.5,1353.2,317.6L1353.2,317.6z"/>
			</g>
		</g>
		<g>
			<g>
				<path class="st2" d="M1364,319.3c6.4-0.1,12.8-0.3,19.2-0.4c1.6,0,1.6-2.5,0-2.5c-6.4,0.1-12.8,0.3-19.2,0.4
					C1362.4,316.8,1362.3,319.3,1364,319.3L1364,319.3z"/>
			</g>
		</g>
		<g>
			<g>
				<path class="st2" d="M1384.4,319.1c2.9-0.6,5.9-1,8.8-1.3c0.7-0.1,1.3-0.5,1.3-1.3c0-0.6-0.6-1.3-1.3-1.3
					c-3.2,0.3-6.3,0.8-9.5,1.4c-0.7,0.1-1,0.9-0.9,1.5C1383.1,318.9,1383.7,319.2,1384.4,319.1L1384.4,319.1z"/>
			</g>
		</g>
	</g>
	<g>
		<g>
			<path class="st2" d="M1398.2,346.7c-0.8-2.3-2.2-5.3-1.6-7.8c0.3-1.2,0.9-2.4,1.1-3.7c0.3-1.3,0.4-2.6,0.3-3.9
				c-0.1-2.5-1.1-4.8-2.1-7.1c-1-2.4-1.9-5-0.9-7.5c0.6-1.5-1.8-2.1-2.4-0.7c-2.3,5.4,2.6,10,2.9,15.3c0.1,1.4-0.1,2.8-0.5,4.1
				c-0.4,1.3-0.9,2.5-1.1,3.8c-0.3,2.7,0.9,5.6,1.8,8.1C1396.3,348.9,1398.7,348.3,1398.2,346.7L1398.2,346.7z"/>
		</g>
	</g>
	<g>
		<g>
			<path class="st2" d="M1351.6,316.3c-1.6,1.5-2.2,3.9-1.3,5.9c0.9,2.2,3.2,3.5,3.8,5.8c0.7,2.4-0.2,5-1.1,7.3
				c-1.1,2.7-2.4,5.4-3.7,8c-0.7,1.4,1.4,2.7,2.2,1.3c1.3-2.4,2.4-4.9,3.5-7.4c1-2.3,1.8-4.7,1.9-7.2c0-2.3-0.8-4.3-2.3-6.1
				c-1.5-1.7-3.3-3.8-1.2-5.8C1354.5,316.9,1352.8,315.2,1351.6,316.3L1351.6,316.3z"/>
		</g>
	</g>
	<g>
		<g>
			<path class="st2" d="M1393.6,317c2.6,4.7,1.8,10.5-1.7,14.5c-1.8,2.1-3.3,4.1-4.1,6.8c-0.8,2.7-1,5.5-0.9,8.2
				c0,1.6,2.5,1.6,2.5,0c0-2.9,0.1-5.8,1.2-8.5c1.1-2.9,3.5-4.7,5.1-7.3c2.7-4.5,2.7-10.4,0.2-15
				C1395,314.3,1392.8,315.6,1393.6,317L1393.6,317z"/>
		</g>
	</g>
	<g>
		<g>
			<path class="st2" d="M1352,317.9c0.9,4.8-1.8,9.5-1.6,14.3c0.2,4.8,2.7,9.3,2.2,14.2c-0.2,1.6,2.3,1.6,2.5,0
				c0.5-5.1-2.2-9.6-2.2-14.6c-0.1-4.9,2.5-9.5,1.5-14.5C1354.1,315.6,1351.7,316.3,1352,317.9L1352,317.9z"/>
		</g>
	</g>
</g>
</svg>
