<?xml version="1.0" encoding="utf-8"?>
<!-- Generator: Adobe Illustrator 24.0.1, SVG Export Plug-In . SVG Version: 6.00 Build 0)  -->
<svg version="1.1" id="Camada_1" xmlns="http://www.w3.org/2000/svg" xmlns:xlink="http://www.w3.org/1999/xlink" x="0px" y="0px"
	 viewBox="0 0 639.8 257.2" style="enable-background:new 0 0 639.8 257.2;" xml:space="preserve">
<style type="text/css">
	.st0{fill:#F2AB43;}
	.st1{fill:#F08228;}
	.st2{fill:#FFFFFF;}
</style>
<g>
	<g>
		<g>
			<path class="st0" d="M417.9,184.5c-13-2.2-25.5-5.8-37.1-10.8l-0.1,0c-7.9,9.2-15.8,18.5-23.7,27.7l0.2,0
				c-5.5-21-11.6-41.8-18.2-62.6l0.5,0c8.8-2.8,17.6-5.5,26.5-8.1c2.3-0.7,4.7-1.3,7-2c4.2-1.2,8.4-2.4,12.6-3.6
				c5-1.4,10-2.8,15-3.7l0.5-0.3c5.4,21.3,11.3,42.5,17.7,63.5"/>
		</g>
	</g>
	<g>
		<g>
			<path class="st0" d="M14.7,247.6c12-6,23.2-13.2,33-21.4l0.1-0.1c10.6,6.5,21.1,12.9,31.7,19.4l-0.2,0.1
				c-1-21.7-1.5-43.4-1.4-65.1l-0.5,0.2c-9.5-0.1-18.9,0-28.4,0.2c-2.5,0.1-5,0.1-7.5,0.2c-4.5,0.1-9,0.2-13.5,0.3
				c-5.3,0.1-10.6,0.3-15.9,0.9l-0.6-0.1c1.3,21.9,2,43.9,2.1,65.9"/>
		</g>
	</g>
	<g>
		<g>
			<path class="st1" d="M519.5,139.9c6.9-10.8,12.4-22.4,16.4-34.4l0.1-0.1c11.9,1.2,23.7,2.4,35.6,3.6l-0.1,0.2
				c-11.6-19.4-22.8-39.1-33.5-59.1l-0.3,0.4c-7.8,4.2-15.5,8.4-23.1,12.9c-2,1.2-4,2.3-6,3.5c-3.6,2.1-7.2,4.2-10.8,6.3
				c-4.3,2.5-8.5,5-12.5,7.9l-0.6,0.2c11.9,19.5,23.4,39.4,34.5,59.4"/>
		</g>
	</g>
	<g>
		<g>
			<path class="st1" d="M186,237.4c10.9-7.8,20.7-16.7,29.2-26.4l0.1-0.1c11.5,4.7,22.9,9.4,34.4,14l-0.2,0.1
				c-4.5-21.2-8.4-42.6-11.9-64.1l-0.4,0.2c-9.4,1.4-18.7,3-28,4.8c-2.5,0.5-4.9,0.9-7.4,1.4c-4.4,0.8-8.8,1.7-13.2,2.5
				c-5.2,1-10.4,2-15.5,3.5l-0.6,0c4.8,21.4,9,43,12.7,64.6"/>
		</g>
	</g>
	<g>
		<g>
			<g>
				<g>
					<path class="st2" d="M75.9,181.3c-2.1,17.1-3.9,34.3-5.4,51.5c-0.4,4.9-0.8,9.7-1.2,14.6c-0.1,1.6,2.4,1.6,2.5,0
						c1.3-17.2,2.9-34.4,4.9-51.5c0.5-4.8,1.1-9.7,1.7-14.5C78.6,179.7,76.1,179.7,75.9,181.3L75.9,181.3z"/>
				</g>
			</g>
			<g>
				<g>
					<path class="st2" d="M13.4,176c-1.2,17.4-2.6,34.7-4.4,52c-0.5,4.9-1,9.9-1.6,14.8c-0.2,1.6,2.3,1.6,2.5,0
						c1.9-17.3,3.6-34.6,4.9-52c0.4-5,0.7-9.9,1.1-14.9C16,174.4,13.5,174.4,13.4,176L13.4,176z"/>
				</g>
			</g>
			<g>
				<g>
					<path class="st2" d="M71.6,246.4c-9.1-7.6-18.3-15.3-27.4-22.9c-1.2-1-3,0.7-1.8,1.8c9.1,7.6,18.3,15.3,27.4,22.9
						C71,249.2,72.8,247.4,71.6,246.4L71.6,246.4z"/>
				</g>
			</g>
			<g>
				<g>
					<path class="st2" d="M9.9,243.8c12-4.8,23.4-10.9,33.9-18.3c1.3-0.9,0.1-3.1-1.3-2.2c-10.3,7.3-21.6,13.4-33.3,18.1
						C7.8,241.9,8.4,244.4,9.9,243.8L9.9,243.8z"/>
				</g>
			</g>
		</g>
		<g>
			<g>
				<path class="st2" d="M14.5,177.3c20.5,2.9,41.3,2.5,61.8,5.5c1.6,0.2,2.3-2.2,0.7-2.4c-20.5-3.1-41.3-2.6-61.8-5.5
					C13.6,174.6,13,177,14.5,177.3L14.5,177.3z"/>
			</g>
		</g>
	</g>
	<g>
		<g>
			<g>
				<g>
					<path class="st2" d="M160.3,222c-1.8-14.6-3.3-29.2-4.6-43.8c-0.1-1.6-2.6-1.6-2.5,0c1.3,14.6,2.8,29.3,4.6,43.8
						C158,223.5,160.5,223.6,160.3,222L160.3,222z"/>
				</g>
			</g>
			<g>
				<g>
					<path class="st2" d="M92.7,182.8c1.4,14.4,2.8,28.8,4.2,43.3c0.2,1.6,2.7,1.6,2.5,0c-1.4-14.4-2.8-28.8-4.2-43.3
						C95,181.2,92.5,181.2,92.7,182.8L92.7,182.8z"/>
				</g>
			</g>
			<g>
				<g>
					<path class="st2" d="M158.1,221.1c-2.8,1.4-5,3.8-7.2,5.9c-2.5,2.3-4.9,4.6-7.4,7c-4.9,4.7-9.7,9.5-14.4,14.3
						c-1.1,1.2,0.6,2.9,1.8,1.8c4.6-4.8,9.3-9.4,14-14c2.3-2.2,4.7-4.5,7-6.7c2.3-2.2,4.6-4.7,7.4-6.2
						C160.8,222.5,159.5,220.3,158.1,221.1L158.1,221.1z"/>
				</g>
			</g>
			<g>
				<g>
					<path class="st2" d="M130.8,249.2c-10.5-8.4-21.2-16.6-32-24.6c-1.3-1-2.5,1.2-1.3,2.2c10.7,7.8,21.2,15.9,31.5,24.2
						C130.3,251.9,132.1,250.2,130.8,249.2L130.8,249.2z"/>
				</g>
			</g>
		</g>
		<g>
			<g>
				<path class="st2" d="M94.1,183.8c4.9-0.1,9.7-0.1,14.6-0.6c5-0.4,10-0.9,14.9-1.4c10.2-1,20.4-1.9,30.5-2.9
					c1.6-0.2,1.6-2.7,0-2.5c-10.2,1-20.4,1.9-30.5,2.9c-5,0.5-9.9,1-14.9,1.4c-4.8,0.4-9.7,0.4-14.6,0.6
					C92.5,181.3,92.5,183.8,94.1,183.8L94.1,183.8z"/>
			</g>
		</g>
	</g>
	<g>
		<g>
			<g>
				<g>
					<path class="st2" d="M239.5,165.7c4.7,20.8,9.4,41.5,14.1,62.3c0.4,1.6,2.8,0.9,2.4-0.7c-4.7-20.8-9.4-41.5-14.1-62.3
						C241.5,163.5,239.1,164.1,239.5,165.7L239.5,165.7z"/>
				</g>
			</g>
			<g>
				<g>
					<path class="st2" d="M254.3,225.9c-13.6-5.7-26.8-12.4-39.4-19.9c-1.4-0.8-2.6,1.3-1.3,2.2c12.8,7.7,26.2,14.4,40,20.2
						C255.1,228.9,255.7,226.5,254.3,225.9L254.3,225.9z"/>
				</g>
			</g>
			<g>
				<g>
					<path class="st2" d="M212.7,205.4c-7.3,11.5-15.1,22.7-23.4,33.5c-1,1.3,1.2,2.5,2.2,1.3c8.3-10.8,16.1-22,23.4-33.5
						C215.7,205.3,213.6,204.1,212.7,205.4L212.7,205.4z"/>
				</g>
			</g>
			<g>
				<g>
					<path class="st2" d="M191.1,239.1c-4.8-15.9-9.2-32-13.4-48.1c-1.2-4.6-2.4-9.2-3.6-13.9c-0.4-1.6-2.8-0.9-2.4,0.7
						c4.2,16.1,8.3,32.2,12.9,48.2c1.3,4.6,2.7,9.2,4.1,13.8C189.1,241.3,191.6,240.7,191.1,239.1L191.1,239.1z"/>
				</g>
			</g>
		</g>
		<g>
			<g>
				<path class="st2" d="M173,178.4c8.7-0.8,16.8-4.2,25.4-5.5c4.5-0.6,8.9-1,13.3-2c4.5-1,8.9-1.9,13.4-2.6
					c5.1-0.8,10.3-1.4,15.5-1.8c1.6-0.1,1.6-2.6,0-2.5c-9,0.6-18,1.9-26.9,3.9c-4.4,1-8.8,1.8-13.3,2.3c-4.4,0.5-8.7,1.5-12.9,2.6
					c-4.8,1.3-9.6,2.7-14.6,3.1C171.4,176,171.4,178.5,173,178.4L173,178.4z"/>
			</g>
		</g>
	</g>
	<g>
		<g>
			<g>
				<g>
					<path class="st2" d="M275.4,198.3c-4.4-12.6-9.3-25-14.5-37.3c-0.6-1.5-2.8-0.2-2.2,1.3c5.2,12.1,9.9,24.3,14.3,36.7
						C273.5,200.5,276,199.8,275.4,198.3L275.4,198.3z"/>
				</g>
			</g>
			<g>
				<g>
					<path class="st2" d="M320.1,146.5c2.2,13.5,5.8,26.7,10.6,39.4c0.6,1.5,3,0.8,2.4-0.7c-4.8-12.8-8.3-26-10.6-39.4
						C322.3,144.2,319.8,144.9,320.1,146.5L320.1,146.5z"/>
				</g>
			</g>
			<g>
				<g>
					<path class="st2" d="M313.5,220.1c1.6,0,1.6-2.5,0-2.5C311.9,217.6,311.9,220.1,313.5,220.1L313.5,220.1z"/>
				</g>
			</g>
			<g>
				<g>
					<path class="st2" d="M314,217.6c-12.8-6.7-25.6-13.4-38.5-20.1c-1.4-0.7-2.7,1.4-1.3,2.2c12.8,6.7,25.6,13.4,38.5,20.1
						C314.2,220.6,315.5,218.4,314,217.6L314,217.6z"/>
				</g>
			</g>
			<g>
				<g>
					<path class="st2" d="M330.9,185.3c-3.4,5.4-6.9,10.8-10.3,16.3c-3.1,5.1-6.1,10.3-7.8,16c-0.5,1.5,1.9,2.2,2.4,0.7
						c1.8-5.7,4.7-10.8,7.8-15.8c3.3-5.3,6.7-10.6,10-15.9C333.9,185.2,331.7,183.9,330.9,185.3L330.9,185.3z"/>
				</g>
			</g>
		</g>
		<g>
			<g>
				<path class="st2" d="M260,162.7c16.1-3.1,32-6.9,47.7-11.5c4.5-1.3,9-2.7,13.5-4.1c1.5-0.5,0.9-2.9-0.7-2.4
					c-15.6,4.9-31.4,9.2-47.4,12.7c-4.6,1-9.2,2-13.8,2.9C257.7,160.6,258.4,163,260,162.7L260,162.7z"/>
			</g>
		</g>
	</g>
	<g>
		<g>
			<g>
				<g>
					<path class="st2" d="M395.7,122.4c4.9,16.5,10.1,32.9,15.6,49.2c1.6,4.7,3.2,9.3,4.8,13.9c0.5,1.5,2.9,0.9,2.4-0.7
						c-5.7-16.2-11-32.6-16.1-49c-1.4-4.7-2.9-9.4-4.3-14.1C397.7,120.2,395.3,120.8,395.7,122.4L395.7,122.4z"/>
				</g>
			</g>
			<g>
				<g>
					<path class="st2" d="M336.2,142.2c5.9,16.4,11.5,32.8,16.8,49.4c1.5,4.7,3,9.5,4.5,14.3c0.5,1.5,2.9,0.9,2.4-0.7
						c-5.1-16.6-10.6-33.1-16.3-49.6c-1.6-4.7-3.3-9.4-5-14.1C338.1,140,335.7,140.6,336.2,142.2L336.2,142.2z"/>
				</g>
			</g>
			<g>
				<g>
					<path class="st2" d="M417.8,183.8c-11.5-3.4-22.9-6.8-34.4-10.2c-1.5-0.5-2.2,2-0.7,2.4c11.5,3.4,22.9,6.8,34.4,10.2
						C418.6,186.7,419.3,184.3,417.8,183.8L417.8,183.8z"/>
				</g>
			</g>
			<g>
				<g>
					<path class="st2" d="M360.3,205.7c9.1-9.1,17.1-19.2,23.8-30.2c0.8-1.4-1.3-2.6-2.2-1.3c-6.6,10.8-14.5,20.7-23.4,29.7
						C357.4,205.1,359.1,206.9,360.3,205.7L360.3,205.7z"/>
				</g>
			</g>
		</g>
		<g>
			<g>
				<path class="st2" d="M338.7,142.9c4.6-2.1,9.5-3.7,14.3-5.3c4.8-1.6,9.7-3.2,14.5-4.8c9.8-3.3,19.6-6.3,29.4-9.2
					c1.5-0.5,0.9-2.9-0.7-2.4c-15.6,4.6-31,9.7-46.4,14.9c-4.2,1.4-8.3,2.9-12.4,4.7C335.9,141.4,337.2,143.5,338.7,142.9
					L338.7,142.9z"/>
			</g>
		</g>
	</g>
	<g>
		<g>
			<g>
				<g>
					<path class="st2" d="M487,131.1c-6.2-12.9-12.1-25.9-17.9-38.9c-0.6-1.5-2.8-0.2-2.2,1.3c5.8,13.1,11.7,26,17.9,38.9
						C485.5,133.8,487.7,132.6,487,131.1L487,131.1z"/>
				</g>
			</g>
			<g>
				<g>
					<path class="st2" d="M410.4,116.6c6.1,13.2,12.1,26.3,18.2,39.5c0.7,1.5,2.8,0.2,2.2-1.3c-6.1-13.2-12.1-26.3-18.2-39.5
						C411.9,113.9,409.7,115.2,410.4,116.6L410.4,116.6z"/>
				</g>
			</g>
			<g>
				<g>
					<path class="st2" d="M484.8,131.1c-2.1,2.3-3.5,5.2-4.9,7.9c-1.6,3-3.2,6-4.7,9c-3.1,6-6,12.1-8.9,18.2
						c-0.7,1.4,1.5,2.7,2.2,1.3c2.8-6,5.7-11.9,8.6-17.8c1.5-2.9,2.9-5.7,4.5-8.6c1.5-2.8,2.8-6,5-8.3
						C487.7,131.7,485.9,130,484.8,131.1L484.8,131.1z"/>
				</g>
			</g>
			<g>
				<g>
					<path class="st2" d="M468,166.6c-12.6-4.5-25.3-8.8-38-12.7c-1.5-0.5-2.2,1.9-0.7,2.4c12.8,4,25.4,8.2,38,12.7
						C468.8,169.5,469.5,167.1,468,166.6L468,166.6z"/>
				</g>
			</g>
		</g>
		<g>
			<g>
				<path class="st2" d="M412,117c15.1-4.8,29.9-10.6,44.3-17.1c4.1-1.9,8.2-3.8,12.2-5.8c1.4-0.7,0.2-2.9-1.3-2.2
					c-18,9-36.7,16.6-55.9,22.7C409.8,115.1,410.5,117.5,412,117L412,117z"/>
			</g>
		</g>
	</g>
	<g>
		<g>
			<g>
				<g>
					<path class="st2" d="M540.1,54.4c7.4,15.6,15,31.1,22.9,46.4c2.2,4.3,4.5,8.7,6.8,13c0.8,1.4,2.9,0.2,2.2-1.3
						c-8.1-15.2-15.9-30.6-23.4-46.1c-2.1-4.4-4.2-8.8-6.3-13.2C541.6,51.7,539.5,53,540.1,54.4L540.1,54.4z"/>
				</g>
			</g>
			<g>
				<g>
					<path class="st2" d="M484.4,83.1c8.3,15.3,16.3,30.7,24.1,46.3c2.2,4.5,4.4,8.9,6.6,13.4c0.7,1.4,2.9,0.2,2.2-1.3
						c-7.6-15.6-15.5-31.2-23.6-46.5c-2.3-4.4-4.7-8.8-7.1-13.2C485.8,80.4,483.6,81.7,484.4,83.1L484.4,83.1z"/>
				</g>
			</g>
			<g>
				<g>
					<path class="st2" d="M571.4,111.8c-11.8-1.6-23.7-3.2-35.5-4.9c-1.6-0.2-2.3,2.2-0.7,2.4c11.8,1.6,23.7,3.2,35.5,4.9
						C572.3,114.4,573,112,571.4,111.8L571.4,111.8z"/>
				</g>
			</g>
			<g>
				<g>
					<path class="st2" d="M517.8,142c7.6-10.4,13.9-21.6,18.9-33.5c0.6-1.5-1.8-2.1-2.4-0.7c-4.9,11.7-11.2,22.7-18.7,32.9
						C514.7,142.1,516.8,143.3,517.8,142L517.8,142z"/>
				</g>
			</g>
		</g>
		<g>
			<g>
				<path class="st2" d="M486.2,83.7c7.5-2.6,14.5-6.4,21.3-10.5c7-4.2,13.9-8.5,21.2-12.2c4.3-2.2,8.7-4.3,13.1-6.2
					c1.5-0.6,0.2-2.8-1.3-2.2c-7.7,3.3-15.1,7-22.4,11.2c-6.8,3.9-13.4,8.3-20.3,11.9c-4,2.1-8.1,4-12.3,5.5
					C484,81.8,484.6,84.3,486.2,83.7L486.2,83.7z"/>
			</g>
		</g>
	</g>
	<g>
		<g>
			<g>
				<g>
					<path class="st2" d="M632.6,36.7c-8.9-9.8-17.7-19.7-26.2-29.8c-1-1.2-2.8,0.5-1.8,1.8c8.6,10.1,17.3,20,26.2,29.8
						C631.9,39.7,633.7,37.9,632.6,36.7L632.6,36.7z"/>
				</g>
			</g>
			<g>
				<g>
					<path class="st2" d="M555,44.2c9.5,11,19,21.9,28.5,32.9c1.1,1.2,2.8-0.6,1.8-1.8c-9.5-11-19-21.9-28.5-32.9
						C555.7,41.2,553.9,43,555,44.2L555,44.2z"/>
				</g>
			</g>
			<g>
				<g>
					<path class="st2" d="M630.5,37.3c-1.4,2.8-1.9,6-2.5,9c-0.7,3.3-1.3,6.6-2,9.9c-1.3,6.7-2.4,13.3-3.4,20
						c-0.2,1.6,2.2,2.3,2.4,0.7c1-6.5,2.1-13.1,3.3-19.5c0.6-3.2,1.2-6.4,1.9-9.6c0.6-3,1-6.4,2.4-9.2
						C633.4,37.1,631.2,35.9,630.5,37.3L630.5,37.3z"/>
				</g>
			</g>
			<g>
				<g>
					<path class="st2" d="M624.2,76.1c-13.3-0.8-26.7-1.3-40-1.6c-1.6,0-1.6,2.5,0,2.5c13.4,0.2,26.7,0.8,40,1.6
						C625.8,78.7,625.8,76.1,624.2,76.1L624.2,76.1z"/>
				</g>
			</g>
		</g>
		<g>
			<g>
				<path class="st2" d="M557.2,44.5C564.9,38,572.9,31.9,581,26c8.1-6,16.4-11.9,24.7-17.7c1.3-0.9,0.1-3.1-1.3-2.2
					c-8.4,5.9-16.8,11.9-25.1,18c-8.1,6-16.2,12-23.8,18.6C554.3,43.8,556,45.5,557.2,44.5L557.2,44.5z"/>
			</g>
		</g>
	</g>
</g>
</svg>
