<?xml version="1.0" encoding="utf-8"?>
<!-- Generator: Adobe Illustrator 24.0.1, SVG Export Plug-In . SVG Version: 6.00 Build 0)  -->
<svg version="1.1" id="Camada_1" xmlns="http://www.w3.org/2000/svg" xmlns:xlink="http://www.w3.org/1999/xlink" x="0px" y="0px"
	 viewBox="0 0 600 554" style="enable-background:new 0 0 600 554;" xml:space="preserve">
<style type="text/css">
	.st0{fill:#EC952E;}
	.st1{fill:#EF8128;}
	.st2{fill:#FFFFFF;}
	.st3{fill:#E8511D;}
	.st4{fill:#FFCE00;}
</style>
<g>
	<g>
		<g>
			<path class="st0" d="M393.7,430.9c2.4,0.9,4.8,1.8,7.2,2.6c1.1,0.4,2.3,0.9,3.2,1.6c1,0.8,1.6,2,2.8,2.5c1.1,0.5,2.4,0.5,3.3,1.3
				c0.8,0.7,0.8,1.9,1.5,2.7l0.2-0.9c-0.5,5.1-1.4,15,6.4,17.8l-1.4-0.4c-86.2-33.2-171.4-69.9-255.1-110l0.6,0.1
				c-10.3-3.7-6.5-20.5-4.9-26.4l0.5-0.7c1.5,0.9,3.2,0.2,4.9,0.2c2.1,0.1,4,1.3,6.1,2c2.1,0.7,4.3,0.9,6.5,1.3
				c3.5,0.8,6.8,2.4,10.1,3.9c-4-2.2-8-4.5-12.2-6c-1.4-0.5-2.9-0.9-4.2-1.6c-1.2-0.7-2.1-1.7-3.2-2.5c-1.6-1.1-3.5-1.9-5.4-2.1
				l-0.8-1.2c6.5-10.2,11.1-23,25.3-26.8l-0.1,0.2c84,40.1,169.5,76.8,256,110l0,0c-5.5-2.9-14.5,9.9-16.8,12.8
				c-4.9,6.1-8.7,13-10.7,20.6l0.4,1.6c-1.6,0.4-3.2,0.6-4.9,0.8c-0.4,0-0.8,0.1-1.2,0c-0.5-0.1-1.1-0.3-1.6-0.5
				c-0.9-0.3-1.9-0.5-2.8-0.6"/>
		</g>
		<g>
			<path class="st1" d="M394.6,426.6c2,1.1,4,2.2,5.9,3.3c0.9,0.5,1.9,1.1,2.6,1.9c0.7,0.9,1.1,2.1,2.1,2.8c0.8,0.6,2,0.7,2.7,1.6
				c0.6,0.8,0.5,1.9,0.9,2.8l0.3-0.8c-1.2,5-3.4,14.7,3.1,18.2l0.3,0.2c4.9,3.3,11.9-5.7,14.4-8.5c6.5-7,12.2-14.8,15.5-24.3
				l-0.3-0.5c-0.7-1.3-1.8-2.2-2.8-3c-1.3-1.1-2.6-2.1-4.2-2.7c-1.8-0.6-3.8-0.5-5.4-1.6l1.2,0.4c1.8-0.1,3.6,0.2,5.3,0.9
				c0.5,0.2,1,0.5,1.5,0.3c0.5-0.2,0.9-0.6,1.4-0.7c0.4-0.1,0.7,0.1,1.1,0.2c1.3,0.3,2.7-0.4,3.9-1.2l0.4-0.7
				c0.9-4.6,2.1-12.5-3.6-15.5l-0.3-0.2c-4.4-3.4-14.1,8.4-16.6,11c-5.1,5.5-9.5,12-12.3,19.3l0.1,1.6c-1.4,0.2-2.9,0.3-4.4,0.3
				c-0.4,0-0.7,0-1.1-0.1c-0.5-0.1-0.9-0.4-1.3-0.6c-0.8-0.4-1.6-0.7-2.4-0.9"/>
		</g>
		<g>
			<path class="st0" d="M181.5,393.3c-2.4,1-4.8,1.9-7.1,2.9c-1.1,0.5-2.3,0.9-3.5,1c-1.3,0.1-2.5-0.4-3.8,0
				c-1.1,0.3-2.1,1.2-3.3,1.2c-1.1,0-1.9-0.8-3-1l0.4,0.8c-3.1-4.1-9-12.1-16.7-8.9l1.3-0.6c86.2-33.2,174-63.1,263-89.5l-0.5,0.3
				c10.2-4.2,18.6,10.9,21.4,16.3l0.1,0.9c-1.7,0.3-2.5,2-3.8,3.1c-1.6,1.3-3.9,1.7-5.9,2.6c-2.1,0.9-3.8,2.3-5.7,3.4
				c-3.1,1.8-6.6,2.8-10.1,3.8c4.4-1,8.9-2,13.1-3.8c1.4-0.6,2.7-1.3,4.2-1.6c1.3-0.3,2.7-0.2,4.1-0.3c1.9-0.2,3.9-0.9,5.4-2
				l1.4,0.4c2,11.9,7.2,24.5-0.8,36.8l-0.1-0.2c-89.2,26.6-177.2,56.7-263.7,90.1l0,0c6-1.5,4.1-17.1,3.9-20.8
				c-0.5-7.8-2.3-15.4-5.9-22.4l-1.3-0.9c0.9-1.3,2-2.6,3.1-3.9c0.3-0.3,0.6-0.6,0.9-0.8c0.4-0.3,1-0.5,1.5-0.7
				c0.9-0.4,1.7-0.9,2.5-1.4"/>
		</g>
		<g>
			<path class="st1" d="M185.5,398c-2.2,0.6-4.4,1.2-6.5,1.9c-1,0.3-2.1,0.6-3.2,0.5c-1.2-0.1-2.3-0.7-3.4-0.5c-1,0.2-1.9,0.9-3,0.8
				c-1-0.1-1.7-1-2.7-1.3l0.4,0.8c-2.7-4.4-8-12.8-15-10.7l-0.3,0.1c-5.8,1.1-4.3,12.4-4.2,16.1c0.4,9.6,1.8,19.1,6.2,28.1l0.6,0.2
				c1.4,0.4,2.8,0.3,4.1,0.2c1.7-0.2,3.4-0.4,4.8-1.1c1.7-0.8,3-2.4,4.9-2.7l-1.1,0.6c-1.2,1.4-2.7,2.4-4.4,3.1
				c-0.5,0.2-1,0.4-1.3,0.9c-0.2,0.4-0.2,1.1-0.5,1.5c-0.2,0.3-0.6,0.4-0.9,0.6c-1.1,0.7-1.6,2.2-1.9,3.6l0.2,0.8
				c2.6,3.9,7.4,10.3,13.5,8.4l0.3-0.1c5.5-0.7,4.1-15.9,3.9-19.5c-0.3-7.6-1.8-15.2-4.9-22.4l-1.2-1c0.9-1.2,1.8-2.3,2.9-3.3
				c0.3-0.2,0.5-0.5,0.8-0.7c0.4-0.2,0.9-0.3,1.4-0.5c0.8-0.3,1.6-0.6,2.3-1.1"/>
		</g>
		<g>
			<g>
				<g>
					<path class="st2" d="M422.4,303.8c-1,0-2,0.2-2.7,0.8c-0.4,0.3-0.7,0.7-1,1.1c-0.4,0.4-0.9,0.7-1.5,0.8c-1,0.3-2.1,0.4-3.2,0.8
						c-1.1,0.4-2.2,1-3.2,1.5c-0.3,0.2,0,0.6,0.3,0.4c1-0.6,2.1-1.1,3.2-1.5c1-0.3,2.1-0.4,3.1-0.7c0.9-0.3,1.5-0.7,2-1.4
						c0.7-1,1.9-1.4,3.1-1.3C422.8,304.3,422.8,303.8,422.4,303.8L422.4,303.8z"/>
				</g>
			</g>
			<g>
				<g>
					<path class="st2" d="M384.4,375.6c17.9-5.7,35.9-11.2,53.9-16.6c1.5-0.5,0.9-2.9-0.7-2.4c-18,5.4-35.9,10.9-53.9,16.6
						C382.2,373.6,382.8,376,384.4,375.6L384.4,375.6z"/>
				</g>
			</g>
			<g>
				<g>
					<path class="st2" d="M174,449.5c15.3-5.9,30.7-11.8,46.1-17.5c15.5-5.8,31-11.4,46.6-16.9c8.8-3.1,17.5-6.2,26.3-9.2
						c1.5-0.5,0.9-2.9-0.7-2.4c-15.5,5.4-31,10.9-46.5,16.5c-15.5,5.6-31,11.4-46.5,17.2c-8.7,3.3-17.4,6.6-26,10
						C171.9,447.6,172.5,450.1,174,449.5L174,449.5z"/>
				</g>
			</g>
			<g>
				<g>
					<path class="st2" d="M298.7,336.6c29.5-9.9,59.2-19.4,89-28.5c8.4-2.6,16.7-5.1,25.1-7.6c1.5-0.5,0.9-2.9-0.7-2.4
						c-29.9,8.9-59.6,18.2-89.2,27.9c-8.3,2.7-16.6,5.5-24.9,8.2C296.5,334.7,297.1,337.1,298.7,336.6L298.7,336.6z"/>
				</g>
			</g>
			<g>
				<g>
					<path class="st2" d="M149.2,390.4c16-6.2,32.1-12.2,48.2-18.2c4.6-1.7,9.1-3.3,13.7-5c1.5-0.5,0.9-3-0.7-2.4
						c-16.1,5.9-32.2,11.9-48.3,18c-4.5,1.7-9.1,3.5-13.6,5.2C147,388.6,147.7,391,149.2,390.4L149.2,390.4z"/>
				</g>
			</g>
			<g>
				<g>
					<path class="st2" d="M436.1,322c1.2,5.8,3.2,11.5,4,17.3c0.9,6.3,0.1,12.5-3.2,18c-0.8,1.4,1.3,2.6,2.2,1.3
						c3.5-5.7,4.4-12.2,3.6-18.7c-0.8-6.3-2.9-12.3-4.2-18.5C438.2,319.8,435.7,320.5,436.1,322L436.1,322z"/>
				</g>
			</g>
			<g>
				<g>
					<path class="st2" d="M412.2,300.7c4.9-2,9.5,0.9,12.9,4.3c3.2,3.2,5.8,7,8,11c0.8,1.4,3,0.1,2.2-1.3c-2.5-4.3-5.4-8.6-9-12
						c-3.9-3.7-9.3-6.6-14.8-4.4C410.1,298.9,410.7,301.3,412.2,300.7L412.2,300.7z"/>
				</g>
			</g>
			<g>
				<g>
					<path class="st2" d="M168.8,406.3c3.9,6.9,5.8,14.4,6.8,22.2c0.5,4.4,1.2,9,0.5,13.5c-0.3,1.8-0.8,4.5-2.8,5
						c-1.6,0.4-0.9,2.8,0.7,2.4c5-1.4,5-8.5,4.9-12.5c-0.1-2.5-0.3-5-0.6-7.4c-0.4-3.3-0.8-6.6-1.6-9.9c-1.2-5.1-3.1-9.9-5.7-14.5
						C170.2,403.7,168,404.9,168.8,406.3L168.8,406.3z"/>
				</g>
			</g>
			<g>
				<g>
					<path class="st2" d="M147.9,391c6.8-2.7,12.3,3.6,16.1,8.3c0.4,0.5,1.3,0.4,1.8,0c0.5-0.5,0.4-1.2,0-1.8
						c-4.4-5.4-10.9-12.1-18.5-9c-0.6,0.3-1.1,0.8-0.9,1.5C146.5,390.8,147.3,391.3,147.9,391L147.9,391z"/>
				</g>
			</g>
			<g>
				<g>
					<path class="st2" d="M153.4,434.1c-4.3-6.7-6.6-14.4-7.9-22.2c-0.4-2.6-0.7-5.2-1-7.8c-0.3-2.4-0.5-4.8-0.3-7.1
						c0.2-2.3,1-4.9,3.3-5.7c1.5-0.5,0.9-2.9-0.7-2.4c-5.4,1.8-5.5,8.4-5.1,13.2c0.6,6.8,1.5,13.6,3.5,20.1c1.4,4.7,3.4,9.2,6,13.3
						C152.1,436.7,154.3,435.5,153.4,434.1L153.4,434.1z"/>
				</g>
			</g>
			<g>
				<g>
					<path class="st2" d="M173,447.2c-5.8,2.4-10.7-2.2-14.2-6.2c-1.1-1.2-2.8,0.6-1.8,1.8c4.2,4.6,10.1,9.6,16.7,6.9
						c0.6-0.3,1.1-0.8,0.9-1.5C174.4,447.5,173.6,446.9,173,447.2L173,447.2z"/>
				</g>
			</g>
			<g>
				<g>
					<path class="st2" d="M164.3,398.3c1.6,0.3,2.6,1.4,4.3,0.8c0.8-0.3,1.5-0.8,2.3-1.1c1-0.3,2.1,0,3.1,0c1.9,0.1,3.7-0.8,5.4-1.5
						c2-0.8,4-1.6,6-2.4c0.7-0.3,0.4-1.5-0.3-1.2c-1.9,0.8-3.7,1.5-5.6,2.3c-1.7,0.7-3.5,1.6-5.4,1.6c-1.8-0.1-3.1-0.2-4.8,0.6
						c-0.8,0.4-1.5,0.8-2.5,0.5c-0.8-0.2-1.4-0.7-2.2-0.8C163.8,396.9,163.5,398.1,164.3,398.3L164.3,398.3z"/>
				</g>
			</g>
			<g>
				<g>
					<path class="st2" d="M169.1,405.2c1-1.4,2-2.9,3.3-4.1c0.6-0.6,1.4-0.8,2.2-1.1c0.8-0.3,1.5-0.8,2.1-1.3
						c0.3-0.2,0.4-0.5,0.2-0.9c-0.2-0.3-0.6-0.4-0.9-0.2c-0.7,0.5-1.4,1-2.2,1.3c-0.8,0.4-1.7,0.6-2.3,1.3c-1.3,1.3-2.5,2.8-3.5,4.4
						C167.5,405.2,168.6,405.8,169.1,405.2L169.1,405.2z"/>
				</g>
			</g>
			<g>
				<g>
					<path class="st2" d="M152,436.2c1.4,0.2,2.9,0,4.3-0.4c1.5-0.3,3-0.7,4.4-1.3c2.4-1,4.1-3.3,6.6-4.1c0.5-0.1,0.3-0.9-0.2-0.7
						c-2.4,0.7-3.9,2.9-6.2,3.9c-1.3,0.6-2.8,1-4.2,1.3c-1.5,0.4-3,0.7-4.6,0.5C151.5,435.3,151.5,436.1,152,436.2L152,436.2z"/>
				</g>
			</g>
			<g>
				<g>
					<path class="st2" d="M157,442.2c0.3-1.2,0.5-2.5,1.4-3.4c0.4-0.4,1-0.6,1.3-1.1c0.4-0.5,0.3-1.1,0.5-1.7c0.2-0.6,1-0.9,1.5-1.2
						c0.6-0.3,1.1-0.7,1.7-1c1.1-0.8,2-1.7,2.9-2.7c0.3-0.4-0.2-0.9-0.5-0.5c-0.9,1.1-1.9,2.1-3.1,2.9c-0.6,0.4-1.2,0.7-1.8,1.1
						c-0.5,0.3-1,0.6-1.2,1.1c-0.3,0.6-0.1,1.3-0.6,1.8c-0.5,0.4-1,0.7-1.4,1.2c-0.8,1-1.1,2.2-1.3,3.4
						C156.1,442.4,156.8,442.6,157,442.2L157,442.2z"/>
				</g>
			</g>
			<g>
				<g>
					<path class="st2" d="M434.2,315.7c-2,0.5-2.7,2.3-4.2,3.4c-1.9,1.4-4.4,1.7-6.5,2.8c-2.3,1.2-4.3,2.8-6.6,3.9
						c-2.6,1.2-5.3,2-8,2.8c-0.8,0.2-0.5,1.4,0.3,1.2c4.7-1,9.3-2.1,13.7-4.1c1.2-0.5,2.4-1.1,3.6-1.3c1.3-0.3,2.6-0.2,3.9-0.3
						c2.1-0.2,4-0.9,5.7-2.1c0.7-0.5,0-1.5-0.6-1.1c-2.1,1.5-4.4,1.9-6.9,2.1c-2.2,0.1-4,0.6-6,1.5c-4.4,2-9.1,3.1-13.8,4.1
						c0.1,0.4,0.2,0.8,0.3,1.2c2.5-0.7,5-1.5,7.4-2.5c2.4-1,4.5-2.6,6.8-3.9c2-1.2,4.4-1.6,6.4-2.7c1.8-1,2.8-3.3,4.7-3.8
						C435.4,316.7,435,315.5,434.2,315.7L434.2,315.7z"/>
				</g>
			</g>
			<g>
				<g>
					<path class="st2" d="M216.6,414.1c13.7-6.6,27.5-13.3,42.3-17.2c4.2-1.1,8.5-2,12.9-2.6c0.3,0,0.2-0.5-0.1-0.5
						c-15.2,2.1-29.4,7.7-43.2,14.1c-4,1.9-8,3.8-12,5.8C216,413.8,216.3,414.2,216.6,414.1L216.6,414.1z"/>
				</g>
			</g>
			<g>
				<g>
					<path class="st2" d="M238.8,407c6.4,0,12.4-2.4,18.3-4.7c6.5-2.5,13-5,19.4-7.5c0.3-0.1,0.2-0.6-0.1-0.5
						c-6.3,2.4-12.6,4.9-19,7.3c-6,2.3-12.1,4.9-18.6,4.8C238.5,406.5,238.5,407,238.8,407L238.8,407z"/>
				</g>
			</g>
			<g>
				<g>
					<path class="st2" d="M314.2,344.4c12.4,1.4,23.7-4.8,34.7-9.5c0.3-0.1,0-0.6-0.3-0.4c-11,4.7-22.1,10.8-34.5,9.5
						C313.9,343.9,313.9,344.4,314.2,344.4L314.2,344.4z"/>
				</g>
			</g>
			<g>
				<g>
					<path class="st2" d="M320.3,348.1c5.9-0.2,11.3-2.6,16.8-4.4c0.3-0.1,0.2-0.6-0.1-0.5c-5.5,1.8-10.9,4.2-16.7,4.4
						C320,347.6,320,348.1,320.3,348.1L320.3,348.1z"/>
				</g>
			</g>
			<g>
				<g>
					<path class="st2" d="M356.5,364.8c15-1.6,30-5.5,43.5-12.3c0.3-0.1,0-0.6-0.3-0.4c-13.5,6.8-28.3,10.7-43.3,12.2
						C356.2,364.3,356.2,364.8,356.5,364.8L356.5,364.8z"/>
				</g>
			</g>
			<g>
				<g>
					<path class="st2" d="M373.6,358.4c4.4-0.5,8.7-1.8,12.4-4.1c2.2-1.4,4.1-2.8,6.5-3.8c2.2-0.9,4.5-1.5,6.7-2.1
						c0.3-0.1,0.2-0.6-0.1-0.5c-2.3,0.6-4.5,1.2-6.7,2.1c-2,0.8-3.7,1.9-5.5,3.1c-4,2.7-8.5,4.3-13.3,4.8
						C373.2,357.9,373.2,358.4,373.6,358.4L373.6,358.4z"/>
				</g>
			</g>
			<g>
				<g>
					<path class="st2" d="M150.6,397.9c6.5-0.2,10,6,12.2,11.1c2.4,5.6,4.1,11.6,5.1,17.7c0,0.3,0.5,0.2,0.5-0.1
						c-1-6.6-2.9-13-5.7-19c-2.3-5-6-10.3-12.1-10.1C150.3,397.5,150.3,398,150.6,397.9L150.6,397.9z"/>
				</g>
			</g>
			<g>
				<g>
					<path class="st2" d="M159.3,428.9c-1.5-1.4-1.9-3.4-2.4-5.3c-0.5-1.9-1-3.9-1.5-5.9c-0.9-4.1-2.2-8.7-1.5-12.9
						c0.1-0.3-0.4-0.4-0.5-0.1c-0.8,4.3,0.5,9,1.5,13.2c0.5,2.3,1.1,4.5,1.7,6.8c0.5,1.7,1,3.4,2.3,4.6
						C159.2,429.5,159.6,429.1,159.3,428.9L159.3,428.9z"/>
				</g>
			</g>
			<g>
				<g>
					<path class="st2" d="M159.3,414.8c2.3,2.8,0.5,7,2.9,9.8c0.2,0.2,0.6-0.1,0.4-0.4c-1.2-1.4-1.3-3.3-1.5-5.1
						c-0.1-1.7-0.4-3.4-1.5-4.7C159.5,414.2,159.1,414.6,159.3,414.8L159.3,414.8z"/>
				</g>
			</g>
			<g>
				<g>
					<path class="st2" d="M165.3,439.9c0.3,0.4,0.6,0.8,0.8,1.2c0.2,0.3,0.5,0.8,0.8,1c0.6,0.4,1.5,0.3,2.2,0
						c1.5-0.8,1.8-2.6,1.4-4.1c-0.1-0.3-0.6-0.2-0.5,0.1c0.4,1.3,0.2,2.8-1.1,3.5c-0.5,0.3-1.3,0.4-1.8,0c-0.3-0.3-0.5-0.6-0.7-0.9
						c-0.2-0.3-0.5-0.7-0.7-1C165.5,439.4,165.1,439.6,165.3,439.9L165.3,439.9z"/>
				</g>
			</g>
			<g>
				<g>
					<g>
						<path class="st2" d="M438.9,397.1c-16.7-6.9-33.4-14-50-21.2c-16.6-7.2-33.1-14.5-49.6-22c-16.5-7.5-32.9-15-49.3-22.7
							c-16.4-7.7-32.7-15.5-49-23.5c-16.2-7.9-32.4-16-48.5-24.2c-2-1-4.1-2.1-6.1-3.1c-1.4-0.7-2.7,1.4-1.3,2.2
							c16.2,8.3,32.5,16.4,48.9,24.5c16.3,8,32.6,15.9,49,23.6c16.4,7.8,33,15.4,49.5,22.9c16.5,7.5,33.2,14.9,49.8,22.1
							c16.5,7.2,33.1,14.3,49.7,21.2c2.1,0.9,4.2,1.8,6.3,2.6C439.7,400.1,440.3,397.7,438.9,397.1L438.9,397.1z"/>
					</g>
				</g>
				<g>
					<g>
						<path class="st2" d="M413.3,455.9c-16.7-6.9-33.3-14-49.9-21.2c-16.5-7.2-33-14.5-49.4-21.9c-16.4-7.4-32.8-15-49.2-22.7
							c-16.3-7.7-32.6-15.5-48.8-23.5c-16.2-7.9-32.3-16-48.3-24.2c-2-1-4.1-2.1-6.1-3.1c-1.4-0.7-2.7,1.4-1.3,2.2
							c16.2,8.3,32.4,16.4,48.7,24.5c16.2,8,32.5,15.9,48.8,23.6c16.4,7.8,32.8,15.4,49.3,22.9c16.5,7.5,33,14.9,49.6,22.1
							c16.5,7.2,33,14.2,49.5,21.2c2.1,0.9,4.2,1.8,6.3,2.6C414.1,458.9,414.7,456.5,413.3,455.9L413.3,455.9z"/>
					</g>
				</g>
				<g>
					<g>
						<path class="st2" d="M160.8,308c3.4-5,6.2-10.4,9.9-15.1c4-5.1,9-8.8,15.3-10.4c1.6-0.4,0.9-2.8-0.7-2.4
							c-6.6,1.6-12,5.5-16.2,10.8c-4,5-6.9,10.6-10.5,15.9C157.7,308.1,159.9,309.3,160.8,308L160.8,308z"/>
					</g>
				</g>
				<g>
					<g>
						<path class="st2" d="M161.8,339.2c-4.8-1.9-5.8-7.3-5.7-11.9c0.1-4.4,1.1-8.8,2.3-13.1c0.5-1.5-2-2.2-2.4-0.7
							c-2.6,8.7-5.7,23.7,5.1,28.1C162.6,342.2,163.2,339.8,161.8,339.2L161.8,339.2z"/>
					</g>
				</g>
				<g>
					<g>
						<path class="st2" d="M411.3,431.3c2.2-7.4,6.2-14,11.1-20c2.9-3.6,5.8-7.3,9.6-10.1c1.5-1.1,3.9-2.8,5.9-1.8
							c1.4,0.8,2.7-1.4,1.3-2.2c-4.7-2.5-10,2.8-12.9,5.9c-4.1,4.3-8,9.1-11.2,14.1c-2.6,4.2-4.7,8.7-6.1,13.4
							C408.4,432.2,410.9,432.9,411.3,431.3L411.3,431.3z"/>
					</g>
				</g>
				<g>
					<g>
						<path class="st2" d="M414.6,456.3c-6.6-2.6-5.7-11.1-5-16.8c0.1-0.7-0.6-1.2-1.3-1.3c-0.7,0-1.2,0.6-1.3,1.3
							c-0.9,7.1-1,16.1,6.9,19.2C415.5,459.3,416.1,456.9,414.6,456.3L414.6,456.3z"/>
					</g>
				</g>
				<g>
					<g>
						<path class="st2" d="M442.5,422.2c-1.8,7.2-5.2,13.7-9.5,19.6c-1.7,2.4-3.6,4.6-5.4,6.9c-1.6,2-3.2,3.9-5.1,5.6
							c-1.9,1.6-4.6,3.5-7.2,2.3c-1.5-0.7-2.7,1.5-1.3,2.2c5.5,2.5,10.6-2.7,13.9-6.6c4.4-5.2,8.8-10.7,12.1-16.7
							c2.2-4,3.9-8.2,5-12.6C445.3,421.3,442.9,420.6,442.5,422.2L442.5,422.2z"/>
					</g>
				</g>
				<g>
					<g>
						<path class="st2" d="M438.5,399.7c5.6,2.2,5.6,9,5.2,14c-0.1,1.6,2.4,1.6,2.5,0c0.2-3,0.3-6.1-0.5-9c-0.9-3.5-3.2-6.1-6.5-7.4
							c-0.6-0.2-1.4,0.3-1.5,0.9C437.5,398.8,437.9,399.4,438.5,399.7L438.5,399.7z"/>
					</g>
				</g>
				<g>
					<g>
						<path class="st2" d="M408.7,440.1c-0.5-0.7-0.6-1.5-1-2.3c-0.4-0.6-0.9-1-1.6-1.3c-0.8-0.3-1.7-0.4-2.5-0.9
							c-0.8-0.5-1.3-1.3-1.9-1.9c-1.3-1.4-3.1-2-4.8-2.7c-2.1-0.8-4.2-1.7-6.3-2.5c-0.7-0.3-1.1,0.9-0.3,1.2
							c1.9,0.8,3.8,1.5,5.7,2.3c1.8,0.7,3.7,1.3,5.1,2.8c1.1,1.2,1.9,2.1,3.5,2.6c0.8,0.2,1.6,0.4,2.1,1.1c0.4,0.7,0.6,1.6,1,2.3
							C408.1,441.4,409.1,440.8,408.7,440.1L408.7,440.1z"/>
					</g>
				</g>
				<g>
					<g>
						<path class="st2" d="M410.3,432c-1.7,0.4-3.6,0.7-5.3,0.6c-0.8,0-1.6-0.4-2.4-0.7c-0.8-0.3-1.7-0.5-2.6-0.6
							c-0.8-0.1-0.8,1.2,0,1.3c0.9,0.1,1.8,0.3,2.6,0.7c0.8,0.3,1.6,0.6,2.6,0.6c1.8,0,3.7-0.3,5.5-0.7
							C411.4,433,411.1,431.8,410.3,432L410.3,432z"/>
					</g>
				</g>
				<g>
					<g>
						<path class="st2" d="M445,421.7c-0.8-1-1.8-1.8-2.9-2.4c-1.2-0.7-2.5-1.5-3.8-2.1c-1.2-0.5-2.4-0.8-3.7-1
							c-1.6-0.2-3.1-0.2-4.6-0.9c-0.4-0.2-0.8,0.4-0.4,0.6c2.5,1.2,5.3,0.7,7.8,1.7c1.4,0.5,2.6,1.3,3.9,2.1
							c1.2,0.7,2.2,1.4,3.1,2.5C444.8,422.6,445.3,422.1,445,421.7L445,421.7z"/>
					</g>
				</g>
				<g>
					<g>
						<path class="st2" d="M445.9,414.1c-1.1,0.7-2.4,1.5-3.8,1.4c-0.5,0-1-0.2-1.6-0.1c-0.5,0.1-0.8,0.5-1.2,0.7
							c-0.7,0.4-1.4,0.1-2.1-0.1c-0.6-0.2-1.3-0.3-1.9-0.4c-1.3-0.2-2.7-0.2-4,0c-0.5,0.1-0.5,0.8,0,0.8c1.6-0.2,3.1-0.1,4.7,0.2
							c1.1,0.2,2.4,0.9,3.4,0.5c0.6-0.2,1-0.9,1.8-0.8c0.6,0,1.1,0.2,1.7,0.1c1.3-0.2,2.4-0.9,3.4-1.5
							C446.7,414.5,446.3,413.8,445.9,414.1L445.9,414.1z"/>
					</g>
				</g>
				<g>
					<g>
						<path class="st2" d="M157.4,313.7c2.1,1.1,4.3,0,6.4,0.7c2.3,0.7,4.4,2,6.7,2.6c2.3,0.5,4.6,0.9,6.9,1.7
							c2.5,0.9,4.9,2.1,7.3,3.4c0.7,0.4,1.3-0.7,0.6-1.1c-4.1-2.5-8.3-4.9-12.9-6.6c-1.2-0.4-2.4-0.9-3.5-1.6
							c-1-0.7-1.8-1.5-2.7-2.2c-1.7-1.3-3.6-2.2-5.7-2.5c-0.8-0.1-1.1,1.1-0.3,1.2c2.4,0.4,4.4,1.5,6.3,3.1c1.6,1.4,3.2,2.3,5.2,3.1
							c4.6,1.7,8.8,4.1,13,6.6c0.2-0.4,0.4-0.7,0.6-1.1c-2.1-1.1-4.3-2.2-6.5-3.1c-2.3-0.9-4.7-1.4-7.1-1.9
							c-2.4-0.5-4.4-1.5-6.6-2.4c-1-0.4-2.1-0.7-3.2-0.6c-1.3,0-2.7,0.4-3.9-0.3C157.4,312.3,156.7,313.3,157.4,313.7L157.4,313.7z"
							/>
					</g>
				</g>
				<g>
					<g>
						<path class="st2" d="M383.3,393.2c-3.5-2-7.2-3.7-11-4.8c-3.8-1.1-7.7-1.7-11.5-2.8c-4-1.2-7.3-3.2-10.8-5.5
							c-3.4-2.3-6.9-4.4-10.6-6.3c-4-2.1-8.1-3.9-12.3-5.4c-0.3-0.1-0.4,0.4-0.1,0.5c7.7,2.8,15,6.5,21.8,11c3.2,2.1,6.3,4.3,10,5.6
							c3.7,1.3,7.5,1.9,11.3,2.8c4.6,1.1,9,2.9,13,5.3C383.3,393.7,383.6,393.3,383.3,393.2L383.3,393.2z"/>
					</g>
				</g>
				<g>
					<g>
						<path class="st2" d="M362.4,382.9c-4.3-4.2-9.8-6.5-15.3-8.8c-6.8-2.8-13.6-5.7-20.4-8.5c-0.3-0.1-0.4,0.4-0.1,0.5
							c6.5,2.7,13,5.4,19.5,8.1c5.7,2.4,11.5,4.7,16,9C362.2,383.5,362.6,383.1,362.4,382.9L362.4,382.9z"/>
					</g>
				</g>
				<g>
					<g>
						<path class="st2" d="M295.8,388.7c-4.5-2.3-8.9-4.7-13.4-7c-1.9-1-3.9-2-6-2.6c-2.2-0.7-4.5-0.8-6.7-1.2
							c-4.4-0.9-7.1-4-10.5-6.5c-3.7-2.8-8.1-4.5-12.3-6.3c-5-2.2-10-4.4-15.1-6.5c-0.3-0.1-0.4,0.4-0.1,0.5
							c4.6,1.9,9.2,3.9,13.8,5.9c4.2,1.8,8.6,3.5,12.3,6.1c3.2,2.2,5.8,5.4,9.6,6.8c2.1,0.8,4.3,0.9,6.5,1.2
							c2.4,0.4,4.6,1.3,6.8,2.4c5,2.5,9.9,5.2,14.9,7.8C295.8,389.3,296.1,388.8,295.8,388.7L295.8,388.7z"/>
					</g>
				</g>
				<g>
					<g>
						<path class="st2" d="M270.2,374.1c-2-0.9-4-1.9-5.8-3.2c-1.8-1.3-3.4-2.9-5.3-4.2c-1.8-1.3-3.9-2.2-5.9-3.2
							c-2.2-1.1-4.5-2.1-6.7-3.2c-0.3-0.1-0.5,0.3-0.3,0.4c2.2,1,4.3,2.1,6.5,3.1c2.1,1,4.2,1.9,6.1,3.3c1.8,1.3,3.3,2.8,5.1,4.1
							c1.9,1.3,3.9,2.4,6,3.3C270.2,374.7,270.5,374.3,270.2,374.1L270.2,374.1z"/>
					</g>
				</g>
				<g>
					<g>
						<path class="st2" d="M254.4,334.9c-6.5-2.8-13.3-5.7-18.5-10.8c-2.5-2.4-4.6-5-7.8-6.6c-2.8-1.4-5.8-2.1-8.8-2.8
							c-3.7-0.9-7.4-1.7-10.8-3.6c-0.3-0.2-0.5,0.3-0.3,0.4c5.6,3.1,12.2,3.3,18.1,5.7c1.7,0.7,3.3,1.6,4.7,2.7c1.5,1.2,2.7,2.7,4,4
							c2.4,2.4,5.1,4.4,8.1,6.1c3.5,2,7.2,3.6,10.9,5.2C254.4,335.5,254.7,335,254.4,334.9L254.4,334.9z"/>
					</g>
				</g>
				<g>
					<g>
						<path class="st2" d="M231.6,325c-3.4-2.7-7.3-4.6-11.6-5.5c-2.3-0.5-4.7-0.7-6.9-1.6c-2.4-0.9-4.7-2.1-6.9-3.4
							c-0.3-0.2-0.5,0.3-0.3,0.4c1.9,1,3.8,2.1,5.8,2.9c2.2,0.9,4.5,1.4,6.9,1.8c4.6,0.8,9,2.7,12.7,5.6
							C231.5,325.6,231.8,325.2,231.6,325L231.6,325z"/>
					</g>
				</g>
				<g>
					<g>
						<path class="st2" d="M418.1,449.7c-5-4.5-2.5-11.7-0.2-16.9c2.4-5.4,5.4-10.5,9-15.2c0.2-0.3-0.2-0.5-0.4-0.3
							c-4,5.2-7.3,10.9-9.7,16.9c-2.1,5.1-3.6,11.7,1,15.9C417.9,450.2,418.3,449.9,418.1,449.7L418.1,449.7z"/>
					</g>
				</g>
				<g>
					<g>
						<path class="st2" d="M434.5,421.8c0,2.2-1.4,4.1-2.5,5.9c-1.1,1.8-2.2,3.6-3.4,5.4c-2.2,3.3-4.5,7.1-7.9,9.4
							c-0.3,0.2,0,0.6,0.3,0.4c3.5-2.3,5.8-6.2,8.1-9.6c1.3-1.9,2.5-3.9,3.7-5.9c1-1.8,2.3-3.6,2.2-5.7
							C435,421.5,434.5,421.5,434.5,421.8L434.5,421.8z"/>
					</g>
				</g>
				<g>
					<g>
						<path class="st2" d="M424.2,431.8c0.2-1.8,1.6-3.2,2.7-4.5c1.1-1.3,2.2-2.6,2.4-4.4c0-0.3-0.5-0.3-0.5,0
							c-0.1,1.8-1.5,3.2-2.7,4.5c-1.1,1.3-2.3,2.6-2.4,4.4C423.7,432.1,424.2,432.1,424.2,431.8L424.2,431.8z"/>
					</g>
				</g>
				<g>
					<g>
						<path class="st2" d="M438.3,410c0.1-0.5,0.2-1,0.3-1.6c0.1-0.4,0.2-0.9,0.1-1.3c-0.2-0.7-0.9-1.2-1.6-1.3
							c-1.6-0.4-3.1,0.6-3.8,2c-0.2,0.3,0.3,0.5,0.4,0.3c0.6-1.1,1.8-2.1,3.2-1.8c0.6,0.1,1.2,0.5,1.4,1.1c0.1,0.4-0.1,0.9-0.2,1.3
							c-0.1,0.4-0.2,0.8-0.2,1.3C437.8,410.2,438.3,410.3,438.3,410L438.3,410z"/>
					</g>
				</g>
			</g>
		</g>
	</g>
	<g>
		<g>
			<g>
				<path class="st3" d="M411.3,217.1c3.5,33.2-5.9,66.6-26.4,94.1c-5.1,6.8-10.9,13.4-18,18.8c-21.3,16.4-52.3,21.7-82.1,24.3
					c-27.6-8.7-55.7-20.3-72.4-40.7c-5.6-6.8-9.7-14.4-13.1-22.1c-13.7-31.1-15.7-65.5-5.6-97.2l0.2,1c6.9,7.5,15.2,13.8,24.3,18.5
					l1.1,0.9c-3.3-8.6-3.5-18.1-2.3-27.2c3.5-26,18.4-49.5,37.4-68.3s41.9-33.7,64.8-48.3l1.7-0.9c19,19.3,38.1,38.9,52.4,61.5
					c14.3,22.6,23.6,48.9,21.3,75c-0.8,9.1-3.1,18.3-8.3,26l-0.9,0.9c10-4.2,19-10.8,25.9-19.1"/>
			</g>
		</g>
		<g>
			<g>
				<path class="st4" d="M270.5,260.4c-2.5-6-3.7-13-4.2-20c-1.4-19.8,2.5-39.2,8.7-55.7s14.7-30.4,23.2-44.2l0.6,0.2
					c2.7,4.7,4.7,10.3,6.5,15.8c4.2,12.6,8,25.5,11.5,38.5c1.2,4.5,2.3,8.9,3.1,13.6c1.1,6.1,1.5,12.4,2,18.7
					c0.9,12.8,1.8,26-0.7,37.8l0.1,1.2c15.5-14.3,36.8-17.6,49.5-36.1l1.2,0.8c0.9,17.4-4.5,34.1-12.8,47.1s-19.1,22.6-30.2,31.2
					c-6.2,4.8-12.6,9.4-17.4,16.5c-3.1,4.6-5.4,10-8.5,14.7l-1.7-0.6c-3.9-16.2-15.3-27.3-26.3-36.4c-11-9.1-22.9-18.1-29.4-33
					c-3.5-8.2-5.1-17.4-6.3-26.6l0.6-1.4c1.6-0.3,2.9,1.8,4,3.5c3.3,5.2,8,8.7,12.7,11.1c4.8,2.5,9.7,4.1,14.5,6.6"/>
			</g>
		</g>
		<g>
			<g>
				<g>
					<path class="st2" d="M239.9,246.2c0.7,8.6,1.6,17.3,4.4,25.5c2.5,7.4,6.5,14,11.5,19.9c9.3,11.1,21.5,19.3,30.3,30.8
						c5.3,6.8,9.2,14.6,10.8,23.1c0.3,1.6,2.7,0.9,2.4-0.7c-2.8-14.8-12.3-26.6-23-36.7c-10.7-10.1-22.3-19.6-28.2-33.4
						c-3.8-9-4.9-18.9-5.7-28.6C242.2,244.6,239.7,244.6,239.9,246.2L239.9,246.2z"/>
				</g>
			</g>
			<g>
				<g>
					<path class="st2" d="M300.8,346.6c2.7-3.7,4.9-7.8,7.4-11.7c2.5-3.7,5.5-7,8.9-9.9c3.3-2.8,6.9-5.2,10.5-7.6
						c3.5-2.4,6.9-4.9,10.2-7.5c13.7-10.8,25.2-24.1,31.7-40.4c3.7-9.3,5.7-19.3,5.8-29.3c0-1.6-2.5-1.6-2.5,0
						c0,17.4-6.3,34.5-16.9,48.3c-5.3,7-11.7,13.1-18.6,18.6c-6.6,5.3-13.8,9.7-20.4,14.9c-3.8,3-7.2,6.3-9.9,10.2
						c-3,4.3-5.4,8.9-8.4,13.1C297.7,346.6,299.9,347.9,300.8,346.6L300.8,346.6z"/>
				</g>
			</g>
			<g>
				<g>
					<path class="st2" d="M241.8,246.1c1.2-0.1,2,1.8,2.4,2.6c0.8,1.4,1.6,2.7,2.5,3.9c1.9,2.4,4.1,4.5,6.5,6.3
						c5.5,4.1,12,6.4,17.9,9.8c1.4,0.8,2.7-1.4,1.3-2.2c-6.1-3.5-13-5.9-18.6-10.4c-2.6-2-4.8-4.4-6.6-7.2c-1.3-2.1-2.6-5.6-5.5-5.4
						C240.2,243.7,240.2,246.2,241.8,246.1L241.8,246.1z"/>
				</g>
			</g>
			<g>
				<g>
					<path class="st2" d="M371.9,238.8c-10.1,13.1-25.9,18-39.8,25.7c-4,2.2-7.8,4.7-11.3,7.6c-1.2,1,0.5,2.8,1.8,1.8
						c12.5-10.3,28.8-14.1,41.6-24c3.7-2.8,7-6.1,9.8-9.8C375.1,238.7,372.9,237.5,371.9,238.8L371.9,238.8z"/>
				</g>
			</g>
			<g>
				<g>
					<path class="st2" d="M272.5,264c-2.8-8-3.3-16.6-3.1-25c0.2-8.4,1.3-16.7,3.2-24.8c3.7-15.9,10.4-30.8,18.7-44.8
						c4.6-7.8,9.8-15.2,14.9-22.7c0.9-1.3-1.3-2.6-2.2-1.3c-9.4,13.7-18.7,27.6-25.4,42.9c-6.6,15.1-10.8,31.3-11.6,47.9
						c-0.5,9.5-0.1,19.4,3.1,28.4C270.7,266.2,273.1,265.6,272.5,264L272.5,264z"/>
				</g>
			</g>
			<g>
				<g>
					<path class="st2" d="M304.7,147c3.6,7.2,5.5,15.3,7.5,23c2.1,8.1,4.1,16.3,6,24.5c1.8,8.3,3.7,16.6,4.4,25.1
						c0.6,8.2,0.7,16.6,0.7,24.8c0,9.1-0.4,18.2-2.8,27.1c-0.4,1.6,2,2.2,2.4,0.7c2.1-7.9,2.7-16.1,2.8-24.2c0.1-8.5,0-17-0.5-25.5
						c-0.5-8.6-2.1-16.9-4-25.3c-1.8-8.4-3.8-16.7-6-25c-2.3-8.9-4.3-18.2-8.5-26.4C306.1,144.3,303.9,145.5,304.7,147L304.7,147z"
						/>
				</g>
			</g>
		</g>
		<g>
			<g>
				<g>
					<path class="st2" d="M225.8,213.6c-5-11.2-4.6-24.1-2.4-35.8c2.1-11.3,6.4-22.1,11.9-32.2c11.7-21.3,29.1-38.7,47.8-54
						c10.9-8.9,22.4-17.2,33.8-25.5c1.3-0.9,0-3.1-1.3-2.2c-20.8,15-41.8,30.3-59.5,49.1c-16.1,17.2-29.5,38-34.7,61.2
						c-2.9,13.3-3.6,27.9,2.1,40.6C224.3,216.3,226.5,215,225.8,213.6L225.8,213.6z"/>
				</g>
			</g>
			<g>
				<g>
					<path class="st2" d="M393.4,223.1c6.2-10.5,7.6-23.2,6.9-35.2c-0.7-12-3.6-23.8-8.2-34.9c-9.4-23.1-25-42.9-42.3-60.6
						c-9.9-10.2-20.5-19.8-31-29.3c-1.2-1.1-3,0.7-1.8,1.8c18.3,16.6,36.8,33.4,51.8,53.1c14.4,18.8,25.8,41,28.5,64.8
						c1.5,13.1,0.7,27.4-6.1,39C390.4,223.3,392.6,224.5,393.4,223.1L393.4,223.1z"/>
				</g>
			</g>
			<g>
				<g>
					<path class="st2" d="M392.1,224.5c10-4.9,18.6-12.1,25.3-21c1-1.3-1.2-2.5-2.2-1.3c-6.4,8.6-14.8,15.5-24.4,20.1
						C389.4,223.1,390.7,225.3,392.1,224.5L392.1,224.5z"/>
				</g>
			</g>
			<g>
				<g>
					<path class="st2" d="M224.2,212.3c-9.3-4.1-17.7-9.8-25-16.9c-1.2-1.1-2.9,0.6-1.8,1.8c7.4,7.2,16.1,13.1,25.5,17.3
						C224.4,215.1,225.7,213,224.2,212.3L224.2,212.3z"/>
				</g>
			</g>
			<g>
				<g>
					<path class="st2" d="M196.9,195c-7.1,27.7-5.2,57.2,5.1,83.9c5.1,13.2,11.9,26.2,21.7,36.5c8.8,9.2,19.8,16,31.2,21.3
						c13.7,6.4,28.3,10.7,42.9,14.5c1.6,0.4,2.2-2,0.7-2.4c-12.8-3.3-25.6-7-37.8-12.2c-11.5-4.9-22.7-11.1-31.9-19.7
						c-10.2-9.4-17.3-21.6-22.6-34.3c-5.4-12.8-8.9-26.4-10.3-40.2c-1.5-15.6-0.3-31.4,3.5-46.6C199.7,194.1,197.3,193.5,196.9,195
						L196.9,195z"/>
				</g>
			</g>
			<g>
				<g>
					<path class="st2" d="M415.4,206.1c4.4,27.7-0.4,56.4-13.2,81.3c-6.4,12.4-14.5,24.5-25.3,33.5c-10,8.3-22,13.9-34.2,18
						c-14.6,4.8-29.7,7.6-44.9,9.8c-1.6,0.2-0.9,2.6,0.7,2.4c13.9-2,27.9-4.6,41.4-8.7c12.6-3.9,25-9.2,35.6-17.2
						c11.3-8.5,19.8-20.1,26.7-32.4c7-12.5,12-26.1,14.8-40.1c3.1-15.6,3.4-31.6,0.9-47.3C417.5,203.8,415.1,204.5,415.4,206.1
						L415.4,206.1z"/>
				</g>
			</g>
		</g>
	</g>
</g>
</svg>
