<?xml version="1.0" encoding="utf-8"?>
<!-- Generator: Adobe Illustrator 24.0.1, SVG Export Plug-In . SVG Version: 6.00 Build 0)  -->
<svg version="1.1" id="Camada_1" xmlns="http://www.w3.org/2000/svg" xmlns:xlink="http://www.w3.org/1999/xlink" x="0px" y="0px"
	 viewBox="0 0 841.9 700.9" style="enable-background:new 0 0 841.9 700.9;" xml:space="preserve">
<style type="text/css">
	.st0{fill:#FFFFFF;}
	.st1{fill:#F08228;}
	.st2{fill:#F2AB43;}
	.st3{font-family:'Collegium';}
	.st4{font-size:276.2509px;}
	.st5{letter-spacing:-7.4;}
	.st6{fill:#D88133;}
</style>
<path class="st0" d="M6.8,453.6c4.6-0.2,9.3-0.5,13.9-0.6c229.5-2.2,459.1-2.2,688.6-1c39,0.2,78.1,0.6,117.1,1
	c4.4,0,8.9,0.4,13.3,0.6c0.4,0.2,0.5,0.5,0.4,0.7c-0.1,0.2-0.3,0.3-0.4,0.3c-52.6,0.5-105.2,1-157.8,1.4
	c-200.1,1.4-400.3,0.7-600.4-0.5c-24.9-0.1-49.8-0.6-74.7-0.9c-0.4-0.2-0.5-0.5-0.4-0.7C6.5,453.7,6.6,453.6,6.8,453.6z"/>
<g>
	<path class="st0" d="M591.6,228.7c0.7-13.3-2-26-7.1-38.1c-8.3-19.6-21.8-32.7-45.4-31.5c-5.9,0.3-11.8,0.2-17.7,0
		c-3.5-0.2-4.5,0.9-4.5,4.4c0.2,12.2,0.3,24.3,0,36.5c-0.6,24.7-15,46.1-44.9,46.3c-26.3,0.1-52.6,0.2-78.9,0.2
		c-10.3,0-20.3,1.6-29.3,7c-14.8,8.7-19.5,22.5-19.5,38.6c-0.1,24.1-0.1,48.3,0,72.4c0,8.9,3.1,16.8,9.4,23.2
		c9.7,9.9,22.2,14.1,35.2,16.9c21.6,4.7,43.4,4,65.1,1.9c10.9-1,21.5-3.4,31.4-8.3c13.3-6.6,22.1-15.9,20.8-32.2
		c-0.7-9.2-0.4-18.6,0-27.9c0.1-4.2-1-5.4-5.3-5.3c-24,0.2-47.9-0.1-71.9,0.2c-5.5,0.1-4.3-3.1-4.4-6.2c-0.1-3-0.7-5.7,4.3-5.6
		c19.1,0.3,38.3,0.1,57.4,0.1v-0.3c19,0,37.9,0.1,56.9,0c9.2-0.1,17.4-3.4,24.6-9.2c12.8-10.1,18.6-24.1,21.8-39.4
		C593,258,590.8,243.3,591.6,228.7z M471.3,353.2c7.9,0,14.6,6.6,14.7,14.6c0.1,7.8-6.6,14.5-14.6,14.5c-8.2,0-14.7-6.4-14.6-14.5
		C456.8,359.6,463.2,353.2,471.3,353.2z"/>
	<path class="st0" d="M488.8,88.3c-3.3-2.2-6.6-0.4-9.8,0.3c-18.7,4.1-37.6,6.7-56.8,7.6c-20.3,1-40.4-0.2-59.8-7
		c-2-0.7-4.1-1.5-6,0.4c-8.8,6.4-12.5,15.2-12.1,26c0.3,9.5,0.4,19-0.1,28.4c-0.2,4.8,1.2,5.9,5.9,5.9c23.6-0.3,47.2-0.1,70.8-0.1
		c1.5,0,4.1-0.8,4.4,0.8c0.6,3.1,0.8,6.5,0.1,9.5c-0.5,2.3-3.4,1.1-5.2,1.1c-35.2,0.1-70.5,0.3-105.7,0c-24-0.2-39.8,11.2-48.9,33
		c-5.3,12.7-7.1,26.2-7.6,39.8c-0.7,21.4,0.4,42.7,9.9,62.4c8.4,17.4,21.3,28.4,42,27.3c6.2-0.3,12.5-0.3,18.8,0
		c3.7,0.2,4.8-0.9,4.8-4.7c-0.2-12.7-0.4-25.4,0.1-38.1c0.7-14.5,5.9-27.1,18-36.2c9.2-6.9,19.9-8.4,31-8.4
		c26.3,0,52.6,0.2,78.9-0.1c28.2-0.4,44.7-17.6,44.7-45.8c0-21.8-0.5-43.6,0.2-65.4C507,109.3,501.6,97.2,488.8,88.3z M379.3,129.8
		c-7.7,0-14.6-6.8-14.6-14.7c-0.1-7.9,6.7-14.5,14.8-14.5c8.1,0,14.6,6.4,14.6,14.6C394.1,122.9,387.1,129.8,379.3,129.8z"/>
</g>
<g>
	<path class="st1" d="M394.6,11.7c3.2-0.4,6.5-0.3,9.7,0.1c7.4-0.8,12.2,3.9,17.3,8c7,5.5,12.1,12.6,16.8,20
		c0.8,1.2,1.4,2.5,1.8,3.9c0.7,2.2,0.8,4.3-1.3,5.8c-1.8,1.4-3.8,0.8-5.5-0.2c-3.2-1.9-6.3-4-9.9-5.4c-19.6-7.8-38.2-2.9-51.2,13.7
		c-2,2.6-6,5.4-4.9,8.4c1.1,2.9,5.8,1.1,8.9,1.5c22.3,2.5,44.2-0.7,66-4.4c13.6-2.3,26.8-6,40.1-9.5c1.6-0.4,3.1-0.9,4.7,0.1
		c14.9-3.9,29.8-7.8,44.7-11.7c2.7-0.9,5.4-1.8,8.2-2.2c2.6-0.4,5.6-0.7,6.7,2.7c1,3.1-0.1,5.6-2.9,7.4c-1.8,1.2-3.7,2.1-5.8,2.8
		c-30.6,10.4-60.6,22.3-92.2,29.9c-22.9,5.5-46.1,8.7-69.5,6.9c-29-2.3-52.2-14.9-67-40.9c-2.9-5.1-1.8-7.7,3.3-8.6
		c8.8,12.9,20.5,21.5,36,25.1c4.2,1,6,0.6,7.4-3.7c2.7-8.9,6.3-17.5,10.5-25.7C372.8,23.7,382.3,16.1,394.6,11.7z"/>
	<path class="st2" d="M312.9,39.9c-4.2,2-4.3,4.3-1.9,8.3c16.3,27.5,41.2,38.9,72.2,40c31.1,1.2,60.9-5.7,90.2-14.9
		c21.4-6.7,42.5-14.5,63.7-21.8c2.5-0.9,4.9-2.2,7.2-3.5c2.1-1.2,1.8-3.4,1.5-5.3c-0.4-2.3-2.3-1.7-3.8-1.9
		c-3.4-0.3-6.6,1.7-10.1,1.1c4.4-2,8.7-4,13.1-5.8c1.4-0.6,3-1.9,4.5-0.6c1.7,1.4,0.7,3.3,0.4,5c-0.2,1.2-0.6,2.4-1,4.4
		c4-1.1,7.5-2,11-3c2-0.5,4.3-2.1,5.8,0.3c1.4,2.1-0.9,3.5-1.9,5c-0.8,1.2-2,2.1-2.1,4c2.5,0.5,5,1.1,7.5,1.5c1.3,0.2,2.5,0.6,2.8,2
		c0.4,1.9-1.1,2.5-2.3,3.1c-2.1,1-4.2,1.7-6.5,2.7c2,2.4,4.6,3.4,6.8,4.8c1.3,0.8,3.4,1.2,3.2,3.2c-0.3,2.1-2.3,2.3-4.1,2.5
		c-9.3,1.3-18.7,2.2-28,4.2c-17.6,3.8-34.9,8.3-52.2,13.1c-12.4,2.3-24.8,5-37.3,6.7c-31,4.1-61.9,5.8-92-5.1
		c-1.1-0.4-2-0.6-3.1-0.2c-9.4-4.5-19.7-6.2-29.6-9c-12.4-3.5-24.8-6.7-36.1-13.2c-2.4-1.3-6.5-2-6.1-5.2c0.5-3.9,5-0.9,7.6-2.6
		c-1.5-2.3-3.1-4.6-4.5-7c-0.7-1.2-1.5-2.7,0-3.9c1.1-0.9,2.4-0.4,3.5,0.3c3,1.9,6,3.7,9.9,6.1c-1.6-4.3-2.9-7.7-4.2-11.1
		c-0.5-1.4-1.1-2.8,0.4-3.8c1.5-1,2.7,0,3.9,0.7c0.5,0.3,0.8,0.7,1.3,0.9c1.3,0.8,2.1,3,3.8,2.4c1.7-0.7,1.2-2.6,0.9-4.3
		c-0.2-1.1,0.4-2.4,1.5-2.6C310.6,37,311.8,38.4,312.9,39.9z"/>
	<path class="st2" d="M487.2,53.7c-20.3,5.9-40.9,11.2-61.9,13.8c-19.1,2.4-38.3,3.6-57.5,1.3c-1.8-0.2-4.8,0.1-2.5-3.7
		c7.8-12.6,17.8-22.2,32.8-25.5c12.4-2.7,23.6,0.7,34.1,7.2c2,1.3,4,4,6.5,1.8c2.5-2.1,0.5-4.7-0.7-6.8c-4.8-8-10.2-15.4-17.6-21.3
		c6.6-5.2,13.8-8.7,22.4-8.8c4-0.8,8-1.5,11.9,0c12.2,4.4,18.3,14.8,24.5,25C482.5,42.1,484.6,48,487.2,53.7z"/>
	<path class="st2" d="M453.6,69.2c-3.9,1.1-7.6,3-12.8,2.6C445.5,69.6,449.5,69.2,453.6,69.2z"/>
	<path class="st2" d="M386.2,75.5c3.4,0,6.8,0,10.3,0c0,0.2,0,0.3,0,0.5c-3.4,0-6.7,0-10.1,0C386.3,75.8,386.2,75.7,386.2,75.5z"/>
</g>
<text transform="matrix(0.94 0 0 1 -9.1217 684.3199)"><tspan x="0" y="0" class="st0 st3 st4 st5">CAI</tspan><tspan x="349.9" y="0" class="st6 st3 st4 st5">PY</tspan><tspan x="622.2" y="0" class="st0 st3 st4 st5">RA</tspan></text>
</svg>
